# https://github.com/mikedh/trimesh
v -0.05299118 0.00318339 -0.05872620
v -0.05299118 0.00318339 -0.06487410
v -0.05299118 0.02306605 -0.07327199
v -0.06833734 0.00318339 -0.03990225
v -0.05559967 0.00318339 -0.06267339
v -0.05640642 0.00379073 -0.06298677
v -0.05299118 0.00374596 -0.06577550
v -0.05299118 0.02306605 -0.07587058
v -0.08117959 0.02306605 -0.03990225
v -0.07365889 0.00318339 -0.03990225
v -0.05704285 0.00318339 -0.06131424
v -0.05864141 0.00318339 -0.05978959
v -0.05936450 0.00387249 -0.06030719
v -0.05774204 0.00494702 -0.06311353
v -0.05441345 0.00504240 -0.06610649
v -0.05311667 0.00387833 -0.06588114
v -0.05299118 0.00387054 -0.06596917
v -0.05491244 0.02306605 -0.07455368
v -0.05299118 0.01599597 -0.07274382
v -0.08351319 0.02306605 -0.03990225
v -0.07422661 0.00357271 -0.03990225
v -0.07255036 0.00318339 -0.04191633
v -0.06116026 0.00318339 -0.05725085
v -0.06205665 0.00374791 -0.05736000
v -0.06120508 0.00510859 -0.05995860
v -0.05938243 0.00659969 -0.06300437
v -0.05755080 0.00655881 -0.06464874
v -0.05299118 0.00390753 -0.06601142
v -0.05299118 0.00522149 -0.06741635
v -0.05666040 0.01562222 -0.06974382
v -0.05936749 0.02306605 -0.07102903
v -0.05299118 0.00697539 -0.06863818
v -0.05299118 0.00676710 -0.06854311
v -0.08252716 0.02060359 -0.03990225
v -0.08139771 0.02306605 -0.04412056
v -0.07456126 0.00382577 -0.03990225
v -0.07407422 0.00384329 -0.04089521
v -0.07149860 0.00318339 -0.04369098
v -0.06277376 0.00318339 -0.05550437
v -0.06385241 0.00318339 -0.05428254
v -0.06482649 0.00376738 -0.05424733
v -0.06548384 0.00501320 -0.05516634
v -0.06147698 0.00655881 -0.06092691
v -0.06439622 0.00668534 -0.05794099
v -0.06279468 0.01265948 -0.06276846
v -0.06339227 0.01649041 -0.06414522
v -0.06347593 0.02306605 -0.06739874
v -0.06013240 0.01504213 -0.06649734
v -0.05524410 0.00715837 -0.06694452
v -0.08030412 0.01647678 -0.04102901
v -0.07871153 0.01119369 -0.03990225
v -0.07807211 0.01572734 -0.04461352
v -0.07635105 0.00700264 -0.04115929
v -0.07886691 0.01265948 -0.04078605
v -0.07859201 0.02306605 -0.04891986
v -0.07477938 0.00405353 -0.03990225
v -0.07448357 0.00486332 -0.04198324
v -0.07116096 0.00373623 -0.04555718
v -0.07554430 0.00486137 -0.03990225
v -0.07014206 0.00318339 -0.04585648
v -0.06603063 0.00318339 -0.05159240
v -0.06798476 0.00384719 -0.05036704
v -0.06943392 0.00512027 -0.05021564
v -0.06736326 0.00655687 -0.05435648
v -0.06508345 0.01525821 -0.06177550
v -0.07109522 0.02306605 -0.05931071
v -0.06669695 0.01400070 -0.05934944
v -0.06736326 0.01786277 -0.06070508
v -0.06739314 0.02306605 -0.06346564
v -0.07705620 0.00716421 -0.03990225
v -0.07373957 0.00673206 -0.04547620
v -0.07669765 0.01265948 -0.04473324
v -0.07436405 0.00617533 -0.04389521
v -0.07657215 0.00619285 -0.03990225
v -0.07666179 0.00634858 -0.03990225
v -0.07534112 0.02306605 -0.05383184
v -0.07496463 0.01543535 -0.04944803
v -0.07645264 0.00602739 -0.03990225
v -0.07152848 0.00494118 -0.04691634
v -0.06922476 0.00375570 -0.04847972
v -0.06938313 0.00318339 -0.04698676
v -0.06699276 0.00318339 -0.05036353
v -0.06743498 0.00318339 -0.04976141
v -0.07117590 0.00661526 -0.04931423
v -0.06917696 0.00662500 -0.05208536
v -0.06956838 0.01514141 -0.05661000
f 1 2 7
f 1 7 17
f 1 17 28
f 1 28 29
f 1 29 33
f 1 33 32
f 1 32 19
f 1 19 8
f 1 8 3
f 1 3 4
f 1 4 10
f 1 10 22
f 1 22 38
f 1 38 60
f 1 60 81
f 1 81 83
f 1 83 82
f 1 82 61
f 1 61 40
f 1 40 39
f 1 39 23
f 1 23 12
f 1 12 11
f 1 11 5
f 1 5 2
f 2 5 6
f 2 6 7
f 3 8 18
f 3 18 31
f 3 31 47
f 3 47 69
f 3 69 66
f 3 66 76
f 3 76 55
f 3 55 35
f 3 35 20
f 3 20 9
f 3 9 4
f 4 9 20
f 4 20 34
f 4 34 51
f 4 51 70
f 4 70 75
f 4 75 74
f 4 74 78
f 4 78 59
f 4 59 56
f 4 56 36
f 4 36 21
f 4 21 10
f 5 11 6
f 6 11 12
f 6 12 13
f 6 13 14
f 6 14 15
f 6 15 16
f 6 16 7
f 7 16 17
f 8 19 18
f 10 21 22
f 12 23 13
f 13 23 24
f 13 24 25
f 13 25 14
f 14 26 27
f 14 27 15
f 14 25 26
f 15 28 16
f 15 27 29
f 15 29 28
f 16 28 17
f 18 30 31
f 18 19 32
f 18 32 33
f 18 33 30
f 20 35 34
f 21 36 37
f 21 37 22
f 22 37 38
f 23 39 24
f 24 39 40
f 24 40 41
f 24 41 42
f 24 42 25
f 25 43 26
f 25 42 44
f 25 44 43
f 26 45 46
f 26 46 47
f 26 47 48
f 26 48 27
f 26 43 45
f 27 48 49
f 27 49 33
f 27 33 29
f 30 33 49
f 30 49 31
f 31 49 48
f 31 48 47
f 34 35 50
f 34 50 51
f 35 52 53
f 35 53 54
f 35 54 50
f 35 55 52
f 36 56 37
f 37 57 58
f 37 58 38
f 37 56 59
f 37 59 57
f 38 58 60
f 40 61 41
f 41 61 62
f 41 62 42
f 42 62 63
f 42 63 64
f 42 64 44
f 43 44 65
f 43 65 45
f 44 66 67
f 44 67 68
f 44 68 69
f 44 69 65
f 44 64 66
f 45 69 46
f 45 65 69
f 46 69 47
f 50 54 51
f 51 54 70
f 52 55 71
f 52 71 72
f 52 72 53
f 53 72 71
f 53 71 73
f 53 73 74
f 53 74 75
f 53 75 70
f 53 70 54
f 55 76 77
f 55 77 71
f 57 59 78
f 57 78 74
f 57 74 73
f 57 73 79
f 57 79 58
f 58 79 80
f 58 80 81
f 58 81 60
f 61 82 62
f 62 82 83
f 62 83 80
f 62 80 63
f 63 80 79
f 63 79 84
f 63 84 85
f 63 85 64
f 64 85 86
f 64 86 66
f 66 69 68
f 66 68 67
f 66 86 76
f 71 77 84
f 71 84 73
f 73 84 79
f 76 85 84
f 76 84 77
f 76 86 85
f 80 83 81

