# https://github.com/mikedh/trimesh
v -0.03317572 0.02306605 0.08632206
v -0.03757671 0.02306605 0.08451073
v -0.03317572 0.01542656 0.08334289
v -0.03317572 0.02306605 0.08404427
v -0.04256174 0.02306605 0.08214100
v -0.03719682 0.01543241 0.08163369
v -0.03376235 0.00670964 0.07967935
v -0.03317572 0.01255469 0.08221591
v -0.03317572 0.00316559 0.07165770
v -0.05957390 0.00316559 0.05153890
v -0.05957390 0.02306605 0.06794990
v -0.03699008 0.00660053 0.07818466
v -0.04736846 0.02306605 0.07944442
v -0.04507881 0.01630722 0.07794973
v -0.04245062 0.00658689 0.07536550
v -0.03985861 0.00649922 0.07671039
v -0.03317572 0.00669016 0.07990747
v -0.03317572 0.00534579 0.07902904
v -0.03317572 0.00605110 0.07949890
v -0.03317572 0.00316559 0.07680572
v -0.05957390 0.00316559 0.05880128
v -0.05957390 0.02306605 0.07073842
v -0.03891277 0.00491131 0.07607370
v -0.05198910 0.02306605 0.07652313
v -0.04919552 0.01516159 0.07491607
v -0.04757778 0.00668236 0.07229780
v -0.04429578 0.00675835 0.07436790
v -0.04579723 0.00516460 0.07238292
v -0.04324915 0.00495028 0.07372780
v -0.03317572 0.00503406 0.07880092
v -0.03317572 0.00329223 0.07697596
v -0.03355819 0.00316559 0.07664570
v -0.05930255 0.00316559 0.05909069
v -0.05957390 0.00343056 0.05926773
v -0.05957390 0.02131448 0.06992808
v -0.05649346 0.02306605 0.07325114
v -0.03833906 0.00398390 0.07546765
v -0.03567211 0.00368190 0.07643801
v -0.03317572 0.00469310 0.07849449
v -0.04168051 0.00376373 0.07344181
v -0.05274371 0.01654687 0.07309111
v -0.05235607 0.01265991 0.07162366
v -0.05137664 0.00655767 0.06957058
v -0.05026799 0.00512173 0.06930841
v -0.04620296 0.00388063 0.07081672
v -0.03317572 0.00378322 0.07762627
v -0.03502346 0.00316559 0.07602603
v -0.05843941 0.00316559 0.05993847
v -0.05754526 0.00376763 0.06182812
v -0.05957390 0.00385530 0.05997933
v -0.05597920 0.01265991 0.06883515
v -0.05604897 0.01630917 0.07048646
v -0.05957390 0.01611433 0.06744260
v -0.05513415 0.00675835 0.06674462
v -0.05347247 0.00658884 0.06800779
v -0.03965187 0.00316559 0.07368695
v -0.03840109 0.00316559 0.07433045
v -0.04073467 0.00316559 0.07312516
v -0.04443274 0.00316559 0.07093249
v -0.04917485 0.00384751 0.06875684
v -0.05402291 0.00495028 0.06625773
v -0.05225012 0.00378516 0.06638371
v -0.04567060 0.00316559 0.07016982
v -0.05542875 0.00316559 0.06272358
v -0.05957390 0.00507692 0.06143657
v -0.05957390 0.00476324 0.06106886
v -0.05513673 0.00367800 0.06385056
v -0.05733077 0.00494054 0.06340453
v -0.05957390 0.01123761 0.06506607
v -0.05827919 0.00739741 0.06436809
v -0.05621178 0.00605110 0.06535888
v -0.04642779 0.00316559 0.06965570
v -0.04946170 0.00316559 0.06752090
v -0.05459404 0.00316559 0.06347603
v -0.05352932 0.00316559 0.06434425
v -0.05054968 0.00316559 0.06671397
v -0.05844200 0.00619333 0.06347603
v -0.05957390 0.00554258 0.06184515
v -0.05957390 0.00729415 0.06306746
v -0.05957390 0.00648363 0.06257377
f 1 2 3
f 1 3 8
f 1 8 17
f 1 17 19
f 1 19 18
f 1 18 30
f 1 30 39
f 1 39 46
f 1 46 31
f 1 31 20
f 1 20 9
f 1 9 4
f 1 4 11
f 1 11 22
f 1 22 36
f 1 36 24
f 1 24 13
f 1 13 5
f 1 5 2
f 2 5 6
f 2 6 7
f 2 7 3
f 3 7 8
f 4 9 10
f 4 10 11
f 5 12 6
f 5 13 14
f 5 14 15
f 5 15 16
f 5 16 12
f 6 12 7
f 7 17 8
f 7 12 18
f 7 18 19
f 7 19 17
f 9 20 32
f 9 32 47
f 9 47 57
f 9 57 56
f 9 56 58
f 9 58 59
f 9 59 63
f 9 63 72
f 9 72 73
f 9 73 76
f 9 76 75
f 9 75 74
f 9 74 64
f 9 64 48
f 9 48 33
f 9 33 21
f 9 21 10
f 10 21 34
f 10 34 50
f 10 50 66
f 10 66 65
f 10 65 78
f 10 78 80
f 10 80 79
f 10 79 69
f 10 69 53
f 10 53 35
f 10 35 22
f 10 22 11
f 12 16 23
f 12 23 18
f 13 24 25
f 13 25 26
f 13 26 27
f 13 27 14
f 14 27 15
f 15 27 28
f 15 28 29
f 15 29 23
f 15 23 16
f 18 23 30
f 20 31 32
f 21 33 34
f 22 35 36
f 23 37 38
f 23 38 39
f 23 39 30
f 23 29 40
f 23 40 37
f 24 36 41
f 24 41 26
f 24 26 25
f 26 41 42
f 26 42 43
f 26 43 44
f 26 44 28
f 26 28 27
f 28 44 45
f 28 45 29
f 29 45 40
f 31 46 38
f 31 38 47
f 31 47 32
f 33 48 49
f 33 49 34
f 34 49 50
f 35 51 52
f 35 52 36
f 35 53 54
f 35 54 51
f 36 42 41
f 36 52 55
f 36 55 42
f 37 40 56
f 37 56 38
f 38 46 39
f 38 56 57
f 38 57 47
f 40 58 56
f 40 45 59
f 40 59 58
f 42 55 43
f 43 55 44
f 44 60 45
f 44 55 61
f 44 61 62
f 44 62 60
f 45 60 63
f 45 63 59
f 48 64 49
f 49 65 66
f 49 66 50
f 49 64 67
f 49 67 68
f 49 68 65
f 51 54 55
f 51 55 52
f 53 69 70
f 53 70 54
f 54 70 71
f 54 71 55
f 55 71 61
f 60 72 63
f 60 62 73
f 60 73 72
f 61 71 68
f 61 68 67
f 61 67 62
f 62 67 74
f 62 74 75
f 62 75 76
f 62 76 73
f 64 74 67
f 65 68 77
f 65 77 78
f 68 71 77
f 69 79 70
f 70 79 80
f 70 80 77
f 70 77 71
f 77 80 78

