# https://github.com/mikedh/trimesh
v -0.05957910 0.02306605 0.07074037
v -0.05957910 0.02131448 0.06992875
v -0.05957910 0.02306605 0.06794765
v -0.06081450 0.02306605 0.06972953
v -0.05957910 0.01611433 0.06744224
v -0.05957910 0.00316559 0.05154185
v -0.06056479 0.00316559 0.04988171
v -0.07173590 0.00316559 0.03305534
v -0.08415029 0.02306605 0.03305534
v -0.06482033 0.02306605 0.06601083
v -0.06058582 0.01422054 0.06560871
v -0.05957910 0.01123761 0.06506271
v -0.05968688 0.01621954 0.06739797
v -0.05957910 0.00316559 0.05879847
v -0.07693506 0.00316559 0.03305534
v -0.08642920 0.02306605 0.03305534
v -0.06869736 0.02306605 0.06200806
v -0.06413429 0.01786200 0.06402605
v -0.06197629 0.00709931 0.06065782
v -0.05957910 0.00729415 0.06306317
v -0.05957910 0.00343056 0.05926700
v -0.06202623 0.00411833 0.05787987
v -0.06223652 0.00316559 0.05596887
v -0.07700604 0.00321625 0.03305534
v -0.07686935 0.00316559 0.03321028
v -0.08382961 0.01637931 0.03305534
v -0.08349053 0.01558828 0.03313650
v -0.08534362 0.02306605 0.03578533
v -0.06964625 0.01515964 0.05644109
v -0.06567196 0.00715971 0.05666981
v -0.06663399 0.01547138 0.06013396
v -0.06350608 0.01398089 0.06265736
v -0.07336294 0.02306605 0.05639682
v -0.06395818 0.00631218 0.05802743
v -0.06162408 0.00630828 0.06049181
v -0.05957910 0.00648363 0.06256882
v -0.05957910 0.00385530 0.05997533
v -0.06003121 0.00387479 0.05956214
v -0.06030720 0.00512173 0.06079063
v -0.06525929 0.00506328 0.05538967
v -0.06492021 0.00375399 0.05402467
v -0.06327214 0.00316559 0.05482153
v -0.07616229 0.00316559 0.03482615
v -0.07764739 0.00369554 0.03305534
v -0.08332231 0.01507586 0.03305534
v -0.08385327 0.02306605 0.03914618
v -0.08106180 0.00933017 0.03305534
v -0.08024697 0.00726687 0.03305534
v -0.07924814 0.00706424 0.03521720
v -0.08182670 0.01528044 0.03678141
v -0.06761968 0.00658105 0.05398040
v -0.07658811 0.02306605 0.05192183
v -0.07237463 0.01489661 0.05274452
v -0.07053205 0.00711685 0.05048674
v -0.05957910 0.00554258 0.06184205
v -0.05957910 0.00476324 0.06106364
v -0.05957910 0.00507692 0.06143255
v -0.06894444 0.00512953 0.05081876
v -0.06673913 0.00369554 0.05166728
v -0.06556419 0.00316559 0.05206571
v -0.07668799 0.00380660 0.03557874
v -0.07337608 0.00316559 0.04037837
v -0.07454839 0.00372477 0.03966267
v -0.07841754 0.00450216 0.03305534
v -0.07788921 0.00667457 0.03779225
v -0.08222886 0.02306605 0.04244800
v -0.07983692 0.00642323 0.03305534
v -0.07849639 0.00631218 0.03604727
v -0.07025869 0.00630828 0.05022850
v -0.07523706 0.01568764 0.04910329
v -0.07248502 0.00658689 0.04725132
v -0.07968973 0.02306605 0.04707424
v -0.07195406 0.00512953 0.04646922
v -0.06881038 0.00382413 0.04910329
v -0.06691524 0.00316559 0.05031335
v -0.06624760 0.00316559 0.05122089
v -0.07835446 0.00517434 0.03467489
v -0.07894849 0.00506913 0.03305534
v -0.07600721 0.00505159 0.03938229
v -0.07206972 0.00316559 0.04261402
v -0.07113397 0.00371113 0.04547314
v -0.07354694 0.00443202 0.04286119
v -0.07683781 0.00658884 0.03979548
v -0.07950311 0.01508366 0.04140396
v -0.07949785 0.00586016 0.03305534
v -0.07480335 0.00666288 0.04359165
v -0.06924672 0.00316559 0.04704842
v -0.07010886 0.00316559 0.04579041
f 1 2 5
f 1 5 12
f 1 12 20
f 1 20 36
f 1 36 55
f 1 55 57
f 1 57 56
f 1 56 37
f 1 37 21
f 1 21 14
f 1 14 6
f 1 6 3
f 1 3 9
f 1 9 16
f 1 16 28
f 1 28 46
f 1 46 66
f 1 66 72
f 1 72 52
f 1 52 33
f 1 33 17
f 1 17 10
f 1 10 4
f 1 4 2
f 2 4 5
f 3 6 7
f 3 7 8
f 3 8 9
f 4 10 11
f 4 11 12
f 4 12 13
f 4 13 5
f 5 13 12
f 6 14 23
f 6 23 42
f 6 42 60
f 6 60 76
f 6 76 75
f 6 75 87
f 6 87 88
f 6 88 80
f 6 80 62
f 6 62 43
f 6 43 25
f 6 25 15
f 6 15 8
f 6 8 7
f 8 15 24
f 8 24 44
f 8 44 64
f 8 64 78
f 8 78 85
f 8 85 67
f 8 67 48
f 8 48 47
f 8 47 45
f 8 45 26
f 8 26 16
f 8 16 9
f 10 17 18
f 10 18 19
f 10 19 11
f 11 19 20
f 11 20 12
f 14 21 22
f 14 22 23
f 15 25 24
f 16 26 27
f 16 27 28
f 17 29 30
f 17 30 31
f 17 31 19
f 17 19 32
f 17 32 18
f 17 33 29
f 18 32 19
f 19 31 30
f 19 30 34
f 19 34 35
f 19 35 36
f 19 36 20
f 21 37 38
f 21 38 22
f 22 38 39
f 22 39 40
f 22 40 41
f 22 41 42
f 22 42 23
f 24 25 43
f 24 43 44
f 26 45 27
f 27 45 28
f 28 45 47
f 28 47 48
f 28 48 49
f 28 49 50
f 28 50 46
f 29 33 51
f 29 51 30
f 30 51 34
f 33 52 53
f 33 53 54
f 33 54 51
f 34 39 35
f 34 51 40
f 34 40 39
f 35 39 55
f 35 55 36
f 37 56 39
f 37 39 38
f 39 56 57
f 39 57 55
f 40 51 58
f 40 58 59
f 40 59 41
f 41 59 60
f 41 60 42
f 43 61 44
f 43 62 63
f 43 63 61
f 44 61 64
f 46 50 65
f 46 65 66
f 48 67 49
f 49 68 65
f 49 65 50
f 49 67 68
f 51 54 69
f 51 69 58
f 52 70 71
f 52 71 54
f 52 54 53
f 52 72 70
f 54 71 69
f 58 69 73
f 58 73 74
f 58 74 59
f 59 74 75
f 59 75 76
f 59 76 60
f 61 77 78
f 61 78 64
f 61 63 79
f 61 79 77
f 62 80 63
f 63 80 81
f 63 81 82
f 63 82 79
f 65 79 83
f 65 83 84
f 65 84 66
f 65 68 79
f 66 84 72
f 67 85 68
f 68 85 77
f 68 77 79
f 69 71 73
f 70 72 71
f 71 72 86
f 71 86 73
f 72 84 86
f 73 86 82
f 73 82 81
f 73 81 74
f 74 81 87
f 74 87 75
f 77 85 78
f 79 82 86
f 79 86 83
f 80 88 81
f 81 88 87
f 83 86 84

