# https://github.com/mikedh/trimesh
v -0.00004915 0.02306800 -0.09255950
v -0.00004915 0.02304082 -0.09254967
v -0.00004915 0.02306800 -0.09038781
v 0.00545262 0.02306800 -0.09237580
v 0.00393989 0.01601733 -0.08988262
v -0.00004915 0.00659250 -0.08652995
v 0.00186766 0.00659832 -0.08652011
v -0.00004915 0.00323605 -0.07946048
v 0.05287567 0.00323605 -0.05904596
v 0.05287567 0.02306800 -0.07330299
v 0.00798593 0.01530877 -0.08935446
v 0.00786677 0.00757477 -0.08655620
v 0.00391917 0.00675556 -0.08650699
v 0.01099066 0.02306800 -0.09188700
v -0.00004915 0.00544521 -0.08581480
v 0.00043782 0.00487836 -0.08546051
v 0.00718294 0.00623724 -0.08603788
v 0.00626597 0.00490748 -0.08525712
v -0.00004915 0.00323605 -0.08380386
v 0.05287567 0.00323605 -0.06496397
v 0.05287567 0.02306800 -0.07586178
v 0.01206304 0.01438667 -0.08855402
v 0.01214594 0.00658861 -0.08566718
v 0.01640437 0.02306800 -0.09106032
v -0.00004915 0.00492495 -0.08548675
v 0.00395543 0.00377378 -0.08438123
v 0.00016843 0.00387861 -0.08459118
v -0.00004915 0.00387473 -0.08458462
v -0.00004915 0.00474053 -0.08533257
v 0.01118753 0.00514820 -0.08492579
v 0.00750931 0.00386114 -0.08424017
v -0.00004915 0.00381649 -0.08451573
v 0.00004928 0.00323605 -0.08380714
v 0.05211930 0.00378543 -0.06646316
v 0.05287567 0.00342047 -0.06526578
v 0.05061693 0.00323605 -0.06675512
v 0.05287567 0.02042594 -0.07470048
v 0.04986575 0.00719429 -0.07096400
v 0.05036309 0.02306800 -0.07758076
v 0.01579306 0.00736124 -0.08538178
v 0.01503152 0.00618871 -0.08497500
v 0.02001006 0.02306800 -0.09033532
v 0.00263439 0.00323605 -0.08380386
v 0.00113720 0.00323605 -0.08383994
v 0.00648874 0.00323605 -0.08355782
v 0.00480505 0.00323605 -0.08367264
v 0.01506260 0.00487836 -0.08411223
v 0.01487092 0.00399314 -0.08337084
v 0.01102693 0.00371360 -0.08368904
v 0.05287567 0.00446099 -0.06659109
v 0.05287567 0.00375631 -0.06580378
v 0.05287567 0.00361460 -0.06557742
v 0.04930107 0.00323605 -0.06773271
v 0.04904722 0.00384755 -0.06883824
v 0.05014032 0.00512102 -0.06938936
v 0.05287567 0.01530295 -0.07242382
v 0.04892289 0.01495740 -0.07499901
v 0.05287567 0.00695551 -0.06859220
v 0.05287567 0.00659055 -0.06840521
v 0.05150799 0.00630907 -0.06928111
v 0.04696463 0.00661773 -0.07266001
v 0.04682475 0.02306606 -0.07977541
v 0.04243161 0.02306800 -0.08222266
v 0.02011367 0.01631629 -0.08780278
v 0.01993235 0.00684874 -0.08430249
v 0.01798445 0.00620813 -0.08440747
v 0.02358466 0.02306800 -0.08946600
v 0.00844700 0.00323605 -0.08335443
v 0.01953862 0.00499872 -0.08327898
v 0.01610390 0.00387667 -0.08302638
v 0.01340482 0.00323605 -0.08275410
v 0.01229617 0.00323605 -0.08293781
v 0.01045706 0.00323605 -0.08314448
v 0.05287567 0.00527438 -0.06744402
v 0.04659162 0.00323605 -0.06964196
v 0.04559177 0.00323605 -0.07032102
v 0.04607356 0.00388055 -0.07090167
v 0.04680403 0.00494048 -0.07151184
v 0.04591815 0.00597323 -0.07289621
v 0.05287567 0.00573446 -0.06780160
v 0.04416711 0.00675944 -0.07444789
v 0.04462300 0.01265894 -0.07667534
v 0.04232282 0.00658667 -0.07544844
v 0.03941652 0.00706228 -0.07720022
v 0.04012108 0.01420031 -0.07976229
v 0.03599733 0.00738453 -0.07900449
v 0.03744272 0.02306800 -0.08459118
v 0.02367791 0.00736900 -0.08353486
v 0.02126894 0.00620618 -0.08363655
v 0.02477619 0.01560772 -0.08632328
v 0.02910716 0.02306800 -0.08783887
v 0.02494197 0.00508219 -0.08189133
v 0.02007222 0.00390190 -0.08218330
v 0.01859058 0.00323605 -0.08174043
v 0.01747675 0.00323605 -0.08198319
v 0.04397025 0.00323605 -0.07132157
v 0.04155092 0.00376213 -0.07352607
v 0.04312063 0.00495019 -0.07380819
v 0.03987759 0.00623142 -0.07653756
v 0.03642732 0.00619260 -0.07820733
v 0.03306512 0.00662356 -0.07995584
v 0.03405461 0.02306800 -0.08601492
v 0.02733022 0.00675750 -0.08214721
v 0.02417524 0.00619065 -0.08283284
v 0.03065097 0.00661773 -0.08091374
v 0.02847513 0.01528353 -0.08504717
v 0.02411308 0.00375243 -0.08093999
v 0.02808141 0.00539668 -0.08110073
v 0.02794153 0.00382231 -0.07976557
v 0.02126376 0.00323605 -0.08107449
v 0.04071684 0.00323605 -0.07324722
v 0.03820944 0.00398344 -0.07555341
v 0.03878449 0.00491136 -0.07615374
v 0.03482652 0.00492107 -0.07803347
v 0.03194612 0.00513267 -0.07945064
v 0.03300296 0.01500981 -0.08327898
v 0.02559991 0.00323605 -0.07978525
v 0.02287492 0.00323605 -0.08064802
v 0.02925740 0.00323605 -0.07851242
v 0.02726287 0.00323605 -0.07923413
v 0.03136589 0.00384949 -0.07850586
v 0.03066651 0.00323605 -0.07798098
v 0.03788824 0.00323605 -0.07471033
v 0.03554144 0.00368254 -0.07651788
v 0.03321018 0.00323605 -0.07691482
v 0.03498194 0.00323605 -0.07616358
f 1 2 6
f 1 6 15
f 1 15 25
f 1 25 29
f 1 29 28
f 1 28 32
f 1 32 19
f 1 19 8
f 1 8 3
f 1 3 10
f 1 10 21
f 1 21 39
f 1 39 63
f 1 63 87
f 1 87 102
f 1 102 91
f 1 91 67
f 1 67 42
f 1 42 24
f 1 24 14
f 1 14 4
f 1 4 5
f 1 5 2
f 2 5 7
f 2 7 6
f 3 8 9
f 3 9 10
f 4 11 12
f 4 12 13
f 4 13 5
f 4 14 11
f 5 13 7
f 6 7 16
f 6 16 15
f 7 13 17
f 7 17 18
f 7 18 16
f 8 19 33
f 8 33 44
f 8 44 43
f 8 43 46
f 8 46 45
f 8 45 68
f 8 68 73
f 8 73 72
f 8 72 71
f 8 71 95
f 8 95 94
f 8 94 110
f 8 110 118
f 8 118 117
f 8 117 120
f 8 120 119
f 8 119 122
f 8 122 125
f 8 125 126
f 8 126 123
f 8 123 111
f 8 111 96
f 8 96 76
f 8 76 75
f 8 75 53
f 8 53 36
f 8 36 20
f 8 20 9
f 9 20 35
f 9 35 52
f 9 52 51
f 9 51 50
f 9 50 74
f 9 74 80
f 9 80 59
f 9 59 58
f 9 58 56
f 9 56 37
f 9 37 21
f 9 21 10
f 11 14 12
f 12 17 13
f 12 14 22
f 12 22 23
f 12 23 17
f 14 24 22
f 15 16 25
f 16 18 26
f 16 26 27
f 16 27 28
f 16 28 29
f 16 29 25
f 17 23 30
f 17 30 18
f 18 30 31
f 18 31 26
f 19 32 33
f 20 34 35
f 20 36 34
f 21 37 38
f 21 38 39
f 22 24 40
f 22 40 23
f 23 40 41
f 23 41 30
f 24 42 40
f 26 43 44
f 26 44 27
f 26 31 45
f 26 45 46
f 26 46 43
f 27 44 28
f 28 44 32
f 30 41 47
f 30 47 48
f 30 48 49
f 30 49 31
f 31 49 45
f 32 44 33
f 34 50 51
f 34 51 52
f 34 52 35
f 34 36 53
f 34 53 54
f 34 54 55
f 34 55 50
f 37 56 38
f 38 57 39
f 38 56 58
f 38 58 59
f 38 59 60
f 38 60 61
f 38 61 57
f 39 57 61
f 39 61 62
f 39 62 63
f 40 42 64
f 40 64 65
f 40 65 66
f 40 66 41
f 41 66 47
f 42 67 64
f 45 49 68
f 47 66 69
f 47 69 70
f 47 70 48
f 48 71 72
f 48 72 49
f 48 70 71
f 49 73 68
f 49 72 73
f 50 55 74
f 53 75 54
f 54 75 76
f 54 76 77
f 54 77 78
f 54 78 55
f 55 78 79
f 55 79 61
f 55 61 60
f 55 60 74
f 59 80 60
f 60 80 74
f 61 79 81
f 61 81 62
f 62 81 82
f 62 82 83
f 62 83 63
f 63 83 84
f 63 84 85
f 63 85 86
f 63 86 87
f 64 67 65
f 65 67 88
f 65 88 89
f 65 89 66
f 66 89 69
f 67 90 88
f 67 91 90
f 69 89 92
f 69 92 93
f 69 93 70
f 70 93 94
f 70 94 95
f 70 95 71
f 76 96 77
f 77 96 97
f 77 97 98
f 77 98 78
f 78 98 79
f 79 98 83
f 79 83 81
f 81 83 82
f 83 98 99
f 83 99 84
f 84 100 86
f 84 86 85
f 84 99 100
f 86 100 101
f 86 101 87
f 87 101 102
f 88 90 91
f 88 91 103
f 88 103 104
f 88 104 89
f 89 104 92
f 91 102 105
f 91 105 106
f 91 106 103
f 92 107 93
f 92 104 108
f 92 108 109
f 92 109 107
f 93 107 110
f 93 110 94
f 96 111 97
f 97 111 112
f 97 112 113
f 97 113 98
f 98 113 99
f 99 113 100
f 100 113 114
f 100 114 115
f 100 115 101
f 101 115 105
f 101 105 116
f 101 116 102
f 102 116 105
f 103 106 105
f 103 105 108
f 103 108 104
f 105 115 108
f 107 109 117
f 107 117 118
f 107 118 110
f 108 115 109
f 109 119 120
f 109 120 117
f 109 115 121
f 109 121 122
f 109 122 119
f 111 123 112
f 112 123 124
f 112 124 114
f 112 114 113
f 114 121 115
f 114 124 121
f 121 125 122
f 121 124 125
f 123 126 124
f 124 126 125

