# https://github.com/mikedh/trimesh
v 0.09243330 0.02306800 -0.00005838
v 0.09242398 0.02303888 -0.00005838
v 0.09236099 0.02306800 -0.00372001
v 0.09030606 0.02306800 -0.00005838
v 0.08665569 0.00717682 -0.00005838
v 0.08862899 0.01265894 -0.00201125
v 0.08663936 0.00732435 -0.00350690
v 0.09010780 0.01690643 -0.00401837
v 0.09214174 0.02306800 -0.00738939
v 0.07936662 0.00323605 -0.00005838
v 0.08379605 0.02306800 -0.03374927
v 0.08113233 0.02306606 -0.03964275
v 0.06860678 0.00323605 -0.03964275
v 0.08663704 0.00713023 -0.00005838
v 0.08611922 0.00614212 -0.00330929
v 0.08626384 0.00708946 -0.00809847
v 0.09177787 0.02306800 -0.01105103
v 0.08378205 0.00323605 -0.00005838
v 0.08352081 0.02306800 -0.03964275
v 0.07375929 0.00323605 -0.03964275
v 0.08656706 0.00699240 -0.00005838
v 0.08522120 0.00492107 -0.00544427
v 0.08585098 0.00623336 -0.00819534
v 0.08567138 0.00528020 -0.00005838
v 0.08564106 0.00522390 -0.00025212
v 0.08558974 0.00677886 -0.01260092
v 0.08905117 0.01606392 -0.01226382
v 0.09126705 0.02306800 -0.01469328
v 0.08387069 0.00330982 -0.00005838
v 0.08364677 0.00323605 -0.00361152
v 0.08437218 0.00372719 -0.00052335
v 0.08372607 0.02306800 -0.03922428
v 0.07813273 0.00661385 -0.03704668
v 0.08277441 0.02122574 -0.03964275
v 0.07440772 0.00367866 -0.03964275
v 0.07609646 0.00323605 -0.03498919
v 0.08418791 0.00394461 -0.00793573
v 0.08472438 0.00505501 -0.01155087
v 0.08562706 0.00521226 -0.00005838
v 0.08449580 0.00388249 -0.00005838
v 0.08488999 0.00610136 -0.01475915
v 0.08526319 0.00711275 -0.01538686
v 0.08818582 0.01555919 -0.01648341
v 0.09061395 0.02306800 -0.01831229
v 0.08436984 0.00373884 -0.00005838
v 0.08347416 0.00323605 -0.00657957
v 0.08160116 0.01542136 -0.03717842
v 0.07912404 0.00706422 -0.03529142
v 0.08593961 0.02306800 -0.03414837
v 0.07588187 0.00505113 -0.03946064
v 0.07625040 0.00573057 -0.03964275
v 0.07682886 0.00659055 -0.03964275
v 0.07893744 0.01175820 -0.03964275
v 0.07968851 0.00632848 -0.03310219
v 0.07823069 0.00517343 -0.03475283
v 0.07447769 0.00372719 -0.03964275
v 0.07656529 0.00380678 -0.03565564
v 0.07802310 0.00363789 -0.03181190
v 0.07693849 0.00323605 -0.03306344
v 0.08325490 0.00323605 -0.00886180
v 0.08370974 0.00385143 -0.01127964
v 0.08378672 0.00489971 -0.01644079
v 0.08462875 0.00668179 -0.01780083
v 0.08778696 0.01653759 -0.02016055
v 0.08936373 0.02306800 -0.02371756
v 0.08022032 0.00745442 -0.03309444
v 0.08779396 0.02306800 -0.02897171
v 0.08485734 0.01534954 -0.02889034
v 0.08102503 0.00713023 -0.03073084
v 0.07493720 0.00419115 -0.03964275
v 0.07575357 0.00502007 -0.03964275
v 0.07582122 0.00510743 -0.03964275
v 0.08102270 0.00621007 -0.02951030
v 0.07992642 0.00573834 -0.03161816
v 0.07943893 0.00496183 -0.03145542
v 0.07922434 0.00380484 -0.02925069
v 0.07855491 0.00323605 -0.02904146
v 0.07804176 0.00323605 -0.03037824
v 0.08309630 0.00323605 -0.01029933
v 0.08279540 0.00323605 -0.01251955
v 0.08245719 0.00323605 -0.01464679
v 0.08276974 0.00374466 -0.01638655
v 0.08231258 0.00391938 -0.01925386
v 0.08265312 0.00506860 -0.02197780
v 0.08408528 0.00658861 -0.02003655
v 0.08630349 0.01265894 -0.02031166
v 0.08331788 0.00736512 -0.02417478
v 0.08624984 0.01512047 -0.02414766
v 0.08184374 0.00675556 -0.02802628
v 0.08260880 0.00619842 -0.02473662
v 0.08064717 0.00481042 -0.02790228
v 0.08085243 0.00379708 -0.02434527
v 0.07925233 0.00323605 -0.02695297
v 0.08199302 0.00323605 -0.01697938
v 0.08101803 0.00323605 -0.02120673
v 0.08059352 0.00323605 -0.02284574
f 1 2 3
f 1 3 9
f 1 9 17
f 1 17 28
f 1 28 44
f 1 44 65
f 1 65 67
f 1 67 49
f 1 49 32
f 1 32 19
f 1 19 11
f 1 11 4
f 1 4 10
f 1 10 18
f 1 18 29
f 1 29 45
f 1 45 40
f 1 40 39
f 1 39 24
f 1 24 21
f 1 21 14
f 1 14 5
f 1 5 2
f 2 5 6
f 2 6 3
f 3 6 7
f 3 7 8
f 3 8 9
f 4 11 12
f 4 12 13
f 4 13 10
f 5 14 7
f 5 7 6
f 7 14 15
f 7 15 16
f 7 16 8
f 8 16 9
f 9 16 17
f 10 13 20
f 10 20 36
f 10 36 59
f 10 59 78
f 10 78 77
f 10 77 93
f 10 93 96
f 10 96 95
f 10 95 94
f 10 94 81
f 10 81 80
f 10 80 79
f 10 79 60
f 10 60 46
f 10 46 30
f 10 30 18
f 11 19 12
f 12 19 34
f 12 34 53
f 12 53 52
f 12 52 51
f 12 51 72
f 12 72 71
f 12 71 70
f 12 70 56
f 12 56 35
f 12 35 20
f 12 20 13
f 14 21 15
f 15 22 23
f 15 23 16
f 15 21 24
f 15 24 25
f 15 25 22
f 16 23 26
f 16 26 27
f 16 27 17
f 17 27 28
f 18 30 31
f 18 31 29
f 19 32 33
f 19 33 34
f 20 35 36
f 22 25 31
f 22 31 37
f 22 37 38
f 22 38 23
f 23 38 26
f 24 39 25
f 25 39 40
f 25 40 31
f 26 38 41
f 26 41 42
f 26 42 28
f 26 28 27
f 28 42 43
f 28 43 44
f 29 31 45
f 30 46 37
f 30 37 31
f 31 40 45
f 32 47 48
f 32 48 33
f 32 49 47
f 33 50 51
f 33 51 52
f 33 52 53
f 33 53 34
f 33 48 54
f 33 54 55
f 33 55 50
f 35 56 36
f 36 56 57
f 36 57 58
f 36 58 59
f 37 46 60
f 37 60 61
f 37 61 38
f 38 61 62
f 38 62 41
f 41 62 63
f 41 63 42
f 42 63 43
f 43 63 44
f 44 63 64
f 44 64 65
f 47 49 48
f 48 49 66
f 48 66 54
f 49 67 68
f 49 68 69
f 49 69 66
f 50 55 57
f 50 57 56
f 50 56 70
f 50 70 71
f 50 71 72
f 50 72 51
f 54 66 69
f 54 69 73
f 54 73 74
f 54 74 55
f 55 74 75
f 55 75 57
f 57 75 58
f 58 75 76
f 58 76 77
f 58 77 78
f 58 78 59
f 60 79 61
f 61 79 80
f 61 80 81
f 61 81 82
f 61 82 62
f 62 82 83
f 62 83 84
f 62 84 85
f 62 85 63
f 63 85 86
f 63 86 64
f 64 86 65
f 65 86 85
f 65 85 87
f 65 87 88
f 65 88 67
f 67 88 87
f 67 87 89
f 67 89 68
f 68 89 69
f 69 89 73
f 73 89 90
f 73 90 91
f 73 91 74
f 74 91 75
f 75 91 76
f 76 91 92
f 76 92 77
f 77 92 93
f 81 94 82
f 82 94 95
f 82 95 83
f 83 95 96
f 83 96 92
f 83 92 84
f 84 92 91
f 84 91 90
f 84 90 85
f 85 90 87
f 87 90 89
f 92 96 93

