# https://github.com/mikedh/trimesh
v -0.03317572 0.00316559 0.07165912
v -0.03317572 0.00316559 0.07680727
v -0.03317572 0.02306605 0.08404444
v -0.00005240 0.02306605 0.09032169
v -0.00005240 0.00316559 0.07881273
v -0.03071133 0.00316559 0.07784261
v -0.03149280 0.00384946 0.07842957
v -0.03317572 0.00329223 0.07697643
v -0.03317572 0.02306605 0.08632096
v -0.00005240 0.02306605 0.09247185
v -0.00005240 0.00316559 0.08366944
v -0.02955048 0.00316559 0.07828079
v -0.02806860 0.00382218 0.07968909
v -0.03228724 0.00505354 0.07922646
v -0.03317572 0.00469310 0.07849683
v -0.03317572 0.00378322 0.07763065
v -0.03317572 0.01542656 0.08334131
v -0.03251098 0.02306605 0.08659406
v -0.00005240 0.02304072 0.09246981
v -0.00006537 0.02306605 0.09248000
v -0.00005240 0.00348901 0.08406483
v -0.00097006 0.00316559 0.08367963
v -0.02730983 0.00316559 0.07909194
v -0.02423583 0.00375204 0.08086302
v -0.02506594 0.00508277 0.08181480
v -0.02820803 0.00539645 0.08102403
v -0.03077619 0.00661612 0.08083653
v -0.03317572 0.00669016 0.07990921
v -0.03317572 0.00605110 0.07950160
v -0.03317572 0.00534579 0.07903080
v -0.03317572 0.00503406 0.07880458
v -0.03317572 0.01255469 0.08221630
v -0.03292928 0.01500182 0.08327609
v -0.02924567 0.01523563 0.08473331
v -0.02550045 0.02306605 0.08891542
v -0.00005240 0.00659274 0.08644936
v -0.00558106 0.02306605 0.09229454
v -0.00406676 0.01601692 0.08980198
v -0.00199472 0.00659858 0.08643917
v -0.00005240 0.00383777 0.08445817
v -0.00407973 0.00377347 0.08430124
v -0.00258164 0.00316559 0.08364702
v -0.00127811 0.00316559 0.08367351
v -0.02593496 0.00316559 0.07954440
v -0.02282529 0.00316559 0.08053082
v -0.02151851 0.00316559 0.08087525
v -0.02019553 0.00390012 0.08210217
v -0.01966374 0.00499704 0.08320068
v -0.02297769 0.00619722 0.08314362
v -0.02745899 0.00675835 0.08206956
v -0.02379807 0.00737013 0.08345748
v -0.02264046 0.01525901 0.08673062
v -0.02013392 0.02306605 0.09025443
v -0.00005240 0.00547828 0.08575642
v -0.00056149 0.00487819 0.08538141
v -0.01111944 0.02306605 0.09180948
v -0.00811354 0.01530966 0.08927208
v -0.00799356 0.00757471 0.08647790
v -0.00404730 0.00675640 0.08642694
v -0.00663491 0.00621476 0.08599691
v -0.00639171 0.00490741 0.08517761
v -0.00005240 0.00453918 0.08508997
v -0.00763688 0.00386115 0.08416265
v -0.00504603 0.00316559 0.08349824
v -0.01855152 0.00316559 0.08161507
v -0.01623305 0.00387674 0.08294797
v -0.01518893 0.00487819 0.08403425
v -0.01652164 0.00619917 0.08465790
v -0.01979344 0.00675640 0.08424010
v -0.02033496 0.01265991 0.08632504
v -0.02017607 0.01655856 0.08782098
v -0.01591852 0.00736234 0.08530193
v -0.01653137 0.02306605 0.09098202
v -0.00005240 0.00492690 0.08540995
v -0.01218951 0.01438615 0.08847316
v -0.01167718 0.00652455 0.08564229
v -0.01131400 0.00514901 0.08484540
v -0.00818488 0.00316559 0.08322310
v -0.00649547 0.00316559 0.08339838
v -0.01115187 0.00371307 0.08360830
v -0.01775708 0.00316559 0.08178831
v -0.01339252 0.00316559 0.08261780
v -0.01499761 0.00399364 0.08329036
v -0.01049686 0.00316559 0.08298057
v -0.01261429 0.00316559 0.08274416
f 1 2 8
f 1 8 16
f 1 16 15
f 1 15 31
f 1 31 30
f 1 30 29
f 1 29 28
f 1 28 32
f 1 32 17
f 1 17 9
f 1 9 3
f 1 3 4
f 1 4 5
f 1 5 11
f 1 11 22
f 1 22 43
f 1 43 42
f 1 42 64
f 1 64 79
f 1 79 78
f 1 78 84
f 1 84 85
f 1 85 82
f 1 82 81
f 1 81 65
f 1 65 46
f 1 46 45
f 1 45 44
f 1 44 23
f 1 23 12
f 1 12 6
f 1 6 2
f 2 6 7
f 2 7 8
f 3 9 18
f 3 18 35
f 3 35 53
f 3 53 73
f 3 73 56
f 3 56 37
f 3 37 20
f 3 20 10
f 3 10 4
f 4 10 19
f 4 19 36
f 4 36 54
f 4 54 74
f 4 74 62
f 4 62 40
f 4 40 21
f 4 21 11
f 4 11 5
f 6 12 13
f 6 13 7
f 7 13 14
f 7 14 15
f 7 15 16
f 7 16 8
f 9 17 18
f 10 20 19
f 11 21 22
f 12 23 13
f 13 23 24
f 13 24 25
f 13 25 26
f 13 26 14
f 14 26 27
f 14 27 28
f 14 28 29
f 14 29 30
f 14 30 31
f 14 31 15
f 17 32 33
f 17 33 18
f 18 33 27
f 18 27 34
f 18 34 35
f 19 20 36
f 20 37 38
f 20 38 39
f 20 39 36
f 21 40 41
f 21 41 42
f 21 42 43
f 21 43 22
f 23 44 24
f 24 44 45
f 24 45 46
f 24 46 47
f 24 47 25
f 25 47 48
f 25 48 49
f 25 49 26
f 26 50 27
f 26 49 50
f 27 50 34
f 27 33 32
f 27 32 28
f 34 50 35
f 35 50 51
f 35 51 52
f 35 52 53
f 36 39 55
f 36 55 54
f 37 56 57
f 37 57 58
f 37 58 59
f 37 59 38
f 38 59 39
f 39 59 60
f 39 60 61
f 39 61 55
f 40 62 41
f 41 61 63
f 41 63 64
f 41 64 42
f 41 62 55
f 41 55 61
f 46 65 47
f 47 65 66
f 47 66 48
f 48 66 67
f 48 67 68
f 48 68 69
f 48 69 49
f 49 51 50
f 49 69 51
f 51 69 52
f 52 69 70
f 52 70 71
f 52 71 53
f 53 71 72
f 53 72 73
f 54 55 74
f 55 62 74
f 56 73 75
f 56 75 76
f 56 76 58
f 56 58 57
f 58 60 59
f 58 76 60
f 60 76 77
f 60 77 61
f 61 77 63
f 63 78 79
f 63 79 64
f 63 77 80
f 63 80 78
f 65 81 66
f 66 81 82
f 66 82 83
f 66 83 67
f 67 83 77
f 67 77 68
f 68 72 69
f 68 77 76
f 68 76 72
f 69 72 71
f 69 71 70
f 72 76 75
f 72 75 73
f 77 83 80
f 78 80 84
f 80 83 82
f 80 82 85
f 80 85 84

