# https://github.com/mikedh/trimesh
v -0.06833748 0.00318339 -0.03989873
v -0.07366134 0.00318339 -0.03989873
v -0.08117877 0.02306605 -0.03989873
v -0.09043446 0.02306605 -0.00002515
v -0.07922234 0.00318339 -0.00002515
v -0.07422811 0.00357271 -0.03989873
v -0.07444628 0.00318339 -0.03846631
v -0.08351463 0.02306605 -0.03989873
v -0.09256163 0.02306605 -0.00002515
v -0.08378260 0.00318339 -0.00002515
v -0.07456248 0.00382577 -0.03989873
v -0.07533794 0.00318339 -0.03672945
v -0.07646200 0.00376154 -0.03602690
v -0.08252574 0.02060359 -0.03989873
v -0.08385374 0.02306605 -0.03922351
v -0.09256400 0.02306605 -0.00004077
v -0.08677297 0.00714863 -0.00002515
v -0.08428771 0.00355130 -0.00002515
v -0.08378497 0.00318339 -0.00020860
v -0.07478303 0.00405353 -0.03989873
v -0.07708806 0.00318339 -0.03278737
v -0.07747223 0.00485553 -0.03611667
v -0.07853937 0.00406910 -0.03207702
v -0.07871485 0.01119369 -0.03989873
v -0.07832357 0.00745425 -0.03763496
v -0.08164594 0.01532634 -0.03728759
v -0.08606629 0.02306605 -0.03414953
v -0.09241460 0.02306605 -0.00551284
v -0.08990563 0.01599402 -0.00394772
v -0.08692000 0.00762945 -0.00239821
v -0.08675874 0.00711360 -0.00002515
v -0.08675874 0.00711360 -0.00004467
v -0.08436597 0.00361749 -0.00002515
v -0.08437071 0.00360970 -0.00033349
v -0.08378734 0.00318339 -0.00042326
v -0.07554663 0.00486137 -0.03989873
v -0.07778525 0.00318339 -0.03114419
v -0.07813860 0.00620648 -0.03674897
v -0.07673946 0.00619480 -0.03959820
v -0.07645726 0.00602739 -0.03989873
v -0.07918202 0.00495286 -0.03249464
v -0.07827377 0.00318339 -0.02992253
v -0.07953537 0.00375570 -0.02858769
v -0.08077563 0.00494702 -0.02815445
v -0.07705722 0.00716421 -0.03989873
v -0.07666594 0.00634858 -0.03989873
v -0.07916780 0.00675931 -0.03519165
v -0.08792074 0.02306605 -0.02897019
v -0.08019462 0.00661526 -0.03264296
v -0.08115980 0.00668145 -0.03023477
v -0.08435648 0.01399291 -0.02921608
v -0.09190474 0.02306605 -0.01105127
v -0.08947877 0.01558913 -0.00810837
v -0.08636983 0.00659385 -0.00580948
v -0.08630342 0.00622205 -0.00317101
v -0.08569160 0.00511638 -0.00002515
v -0.08443711 0.00369535 -0.00002515
v -0.08373042 0.00318339 -0.00305392
v -0.08563943 0.00503462 -0.00002515
v -0.08564891 0.00504046 -0.00026714
v -0.08508925 0.00446815 -0.00401407
v -0.08396994 0.00367978 -0.00869383
v -0.08350514 0.00318339 -0.00697649
v -0.07657345 0.00619285 -0.03989873
v -0.08159140 0.00628629 -0.02841205
v -0.07889271 0.00318339 -0.02821690
v -0.07945711 0.00318339 -0.02654639
v -0.08056931 0.00371092 -0.02533644
v -0.08200403 0.00489835 -0.02422017
v -0.08174554 0.00573734 -0.02694060
v -0.08555168 0.01651377 -0.02855256
v -0.08344585 0.00736665 -0.02416553
v -0.08900211 0.02306605 -0.02545744
v -0.08217951 0.00706493 -0.02778756
v -0.09139488 0.02306605 -0.01469282
v -0.08913491 0.01593368 -0.01224951
v -0.08613031 0.00664836 -0.00895534
v -0.08524340 0.00500931 -0.00769465
v -0.08390117 0.00391532 -0.01129717
v -0.08306168 0.00318339 -0.01084441
v -0.08322531 0.00318339 -0.00965398
v -0.08295734 0.00625709 -0.02407186
v -0.08024680 0.00318339 -0.02413430
v -0.08151077 0.00369340 -0.02206569
v -0.08321820 0.00517477 -0.02053179
v -0.08421183 0.00677489 -0.02034834
v -0.09031589 0.02306605 -0.02039908
v -0.08830491 0.01553462 -0.01648432
v -0.08548291 0.00671454 -0.01399027
v -0.08491377 0.00515531 -0.01157038
v -0.08421657 0.00505408 -0.01553198
v -0.08332017 0.00375375 -0.01403711
v -0.08288382 0.00318339 -0.01212461
v -0.08063808 0.00318339 -0.02279946
v -0.08129734 0.00318339 -0.02033273
v -0.08180246 0.00318339 -0.01815483
v -0.08291466 0.00389390 -0.01703465
v -0.08476200 0.00654324 -0.01751473
v -0.08740851 0.01520759 -0.02021174
v -0.08253997 0.00318339 -0.01436887
v -0.08230283 0.00318339 -0.01559052
f 1 2 6
f 1 6 11
f 1 11 20
f 1 20 36
f 1 36 40
f 1 40 64
f 1 64 46
f 1 46 45
f 1 45 24
f 1 24 14
f 1 14 8
f 1 8 3
f 1 3 4
f 1 4 5
f 1 5 10
f 1 10 19
f 1 19 35
f 1 35 58
f 1 58 63
f 1 63 81
f 1 81 80
f 1 80 93
f 1 93 100
f 1 100 101
f 1 101 96
f 1 96 95
f 1 95 94
f 1 94 83
f 1 83 67
f 1 67 66
f 1 66 42
f 1 42 37
f 1 37 21
f 1 21 12
f 1 12 7
f 1 7 2
f 2 7 6
f 3 8 15
f 3 15 27
f 3 27 48
f 3 48 73
f 3 73 87
f 3 87 75
f 3 75 52
f 3 52 28
f 3 28 16
f 3 16 9
f 3 9 4
f 4 9 17
f 4 17 31
f 4 31 56
f 4 56 59
f 4 59 57
f 4 57 33
f 4 33 18
f 4 18 10
f 4 10 5
f 6 7 12
f 6 12 13
f 6 13 11
f 8 14 15
f 9 16 17
f 10 18 19
f 11 13 20
f 12 21 13
f 13 22 20
f 13 21 23
f 13 23 22
f 14 24 25
f 14 25 15
f 15 25 26
f 15 26 27
f 16 28 29
f 16 29 30
f 16 30 17
f 17 30 32
f 17 32 31
f 18 33 34
f 18 34 35
f 18 35 19
f 20 22 36
f 21 37 23
f 22 38 39
f 22 39 40
f 22 40 36
f 22 23 41
f 22 41 38
f 23 37 42
f 23 42 43
f 23 43 44
f 23 44 41
f 24 45 25
f 25 45 46
f 25 46 39
f 25 39 38
f 25 38 47
f 25 47 26
f 26 47 27
f 27 47 49
f 27 49 50
f 27 50 51
f 27 51 48
f 28 52 53
f 28 53 54
f 28 54 29
f 29 54 30
f 30 55 32
f 30 54 55
f 31 32 55
f 31 55 56
f 33 57 34
f 34 58 35
f 34 57 59
f 34 59 60
f 34 60 61
f 34 61 62
f 34 62 63
f 34 63 58
f 38 41 49
f 38 49 47
f 39 46 64
f 39 64 40
f 41 44 65
f 41 65 50
f 41 50 49
f 42 66 43
f 43 66 67
f 43 67 68
f 43 68 44
f 44 68 69
f 44 69 70
f 44 70 65
f 48 51 71
f 48 71 72
f 48 72 73
f 50 65 74
f 50 74 51
f 51 74 71
f 52 75 76
f 52 76 77
f 52 77 53
f 53 77 54
f 54 77 78
f 54 78 55
f 55 61 60
f 55 60 56
f 55 78 61
f 56 60 59
f 61 78 62
f 62 78 79
f 62 79 80
f 62 80 81
f 62 81 63
f 65 70 82
f 65 82 74
f 67 83 68
f 68 83 84
f 68 84 69
f 69 82 70
f 69 84 85
f 69 85 82
f 71 74 72
f 72 82 86
f 72 86 87
f 72 87 73
f 72 74 82
f 75 88 89
f 75 89 76
f 75 87 88
f 76 89 77
f 77 89 90
f 77 90 78
f 78 90 79
f 79 90 91
f 79 91 92
f 79 92 93
f 79 93 80
f 82 85 86
f 83 94 84
f 84 94 95
f 84 95 96
f 84 96 97
f 84 97 85
f 85 97 91
f 85 91 98
f 85 98 86
f 86 99 87
f 86 98 99
f 87 99 98
f 87 98 88
f 88 98 89
f 89 98 91
f 89 91 90
f 91 97 92
f 92 97 100
f 92 100 93
f 96 101 97
f 97 101 100

