# https://github.com/mikedh/trimesh
v 0.03313067 0.00316559 0.07160727
v 0.03313067 0.02306605 0.08401282
v 0.03313067 0.00316559 0.07677046
v -0.00004915 0.00316559 0.07881082
v -0.00004915 0.02306605 0.09032179
v 0.03313067 0.02306605 0.08628601
v 0.03313067 0.00346563 0.07718507
v 0.03218230 0.00316559 0.07718507
v -0.00004915 0.00316559 0.08366969
v -0.00004915 0.02306605 0.09247244
v 0.03313067 0.01509145 0.08317543
v 0.03238367 0.02306605 0.08659441
v 0.03313067 0.00359033 0.07734642
v 0.03096437 0.00389037 0.07862905
v 0.03105856 0.00316559 0.07765074
v 0.00070109 0.00316559 0.08366152
v -0.00004915 0.00348901 0.08406592
v -0.00004915 0.02304072 0.09246835
v 0.00545267 0.02306605 0.09229475
v 0.03313067 0.00751431 0.08020374
v 0.03284162 0.01455760 0.08308557
v 0.03269871 0.00665314 0.08005056
v 0.02711569 0.02306605 0.08837538
v 0.02880781 0.01552788 0.08494211
v 0.02844405 0.00658300 0.08162525
v 0.03313067 0.00384556 0.07767525
v 0.03116574 0.00512953 0.07968088
v 0.02754765 0.00496002 0.08086139
v 0.02769380 0.00366826 0.07960940
v 0.02972370 0.00316559 0.07816747
v 0.00139613 0.00316559 0.08365335
v 0.00098690 0.00385336 0.08449891
v -0.00004915 0.00383777 0.08445806
v -0.00004915 0.00659274 0.08644940
v 0.00090246 0.00659079 0.08645348
v 0.00393918 0.01596236 0.08978464
v 0.00449781 0.00656157 0.08632073
v 0.00779760 0.00666872 0.08614508
v 0.00798922 0.01533889 0.08928425
v 0.01099022 0.02306605 0.09180866
v 0.03313067 0.00664729 0.07985857
v 0.03313067 0.00644856 0.07972990
v 0.02161062 0.02306605 0.08990310
v 0.02452067 0.01555710 0.08629418
v 0.02549178 0.00715971 0.08282618
v 0.02268890 0.00662196 0.08343073
v 0.02430307 0.00517239 0.08206232
v 0.03313067 0.00429758 0.07808985
v 0.03313067 0.00512953 0.07884350
v 0.02344564 0.00385530 0.08116162
v 0.02273112 0.00316559 0.08048559
v 0.02486495 0.00316559 0.07982794
v 0.02735603 0.00316559 0.07905386
v 0.00633933 0.00316559 0.08343073
v 0.00751179 0.00316559 0.08336537
v 0.00763196 0.00395272 0.08423748
v 0.00618343 0.00490741 0.08518311
v 0.00326038 0.00523669 0.08558547
v -0.00004915 0.00492690 0.08540982
v -0.00004915 0.00453918 0.08508916
v -0.00004915 0.00547828 0.08575703
v 0.01158132 0.00499704 0.08467864
v 0.01126628 0.00658884 0.08570597
v 0.01205875 0.01434523 0.08845912
v 0.01640110 0.02306605 0.09098148
v 0.01619974 0.01461021 0.08789133
v 0.01646281 0.00659079 0.08486654
v 0.02075319 0.01532915 0.08719896
v 0.01991201 0.00655962 0.08410268
v 0.02147096 0.00485481 0.08259130
v 0.01984705 0.00367216 0.08193161
v 0.02110071 0.00316559 0.08093900
v 0.00827179 0.00316559 0.08327755
v 0.01192234 0.00385336 0.08363089
v 0.01507599 0.00376568 0.08304063
v 0.01725203 0.00506913 0.08376568
v 0.01356250 0.00660248 0.08538327
v 0.01611529 0.00316559 0.08208888
v 0.01811271 0.00316559 0.08167222
v 0.01197756 0.00316559 0.08276695
v 0.01333840 0.00316559 0.08255863
f 1 2 6
f 1 6 11
f 1 11 20
f 1 20 41
f 1 41 42
f 1 42 49
f 1 49 48
f 1 48 26
f 1 26 13
f 1 13 7
f 1 7 3
f 1 3 8
f 1 8 15
f 1 15 30
f 1 30 53
f 1 53 52
f 1 52 51
f 1 51 72
f 1 72 79
f 1 79 78
f 1 78 81
f 1 81 80
f 1 80 73
f 1 73 55
f 1 55 54
f 1 54 31
f 1 31 16
f 1 16 9
f 1 9 4
f 1 4 5
f 1 5 2
f 2 5 10
f 2 10 19
f 2 19 40
f 2 40 65
f 2 65 43
f 2 43 23
f 2 23 12
f 2 12 6
f 3 7 8
f 4 9 17
f 4 17 33
f 4 33 60
f 4 60 59
f 4 59 61
f 4 61 34
f 4 34 18
f 4 18 10
f 4 10 5
f 6 12 11
f 7 13 14
f 7 14 15
f 7 15 8
f 9 16 17
f 10 18 19
f 11 12 21
f 11 21 22
f 11 22 20
f 12 23 24
f 12 24 25
f 12 25 22
f 12 22 21
f 13 26 14
f 14 26 27
f 14 27 28
f 14 28 29
f 14 29 15
f 15 29 30
f 16 31 17
f 17 31 32
f 17 32 33
f 18 34 35
f 18 35 36
f 18 36 19
f 19 36 37
f 19 37 38
f 19 38 39
f 19 39 40
f 20 22 41
f 22 25 27
f 22 27 42
f 22 42 41
f 23 43 44
f 23 44 45
f 23 45 24
f 24 45 25
f 25 45 46
f 25 46 47
f 25 47 28
f 25 28 27
f 26 48 27
f 27 48 49
f 27 49 42
f 28 47 50
f 28 50 29
f 29 50 51
f 29 51 52
f 29 52 53
f 29 53 30
f 31 54 32
f 32 54 55
f 32 55 56
f 32 56 57
f 32 57 58
f 32 58 59
f 32 59 60
f 32 60 33
f 34 61 35
f 35 58 37
f 35 37 36
f 35 61 59
f 35 59 58
f 37 57 38
f 37 58 57
f 38 57 62
f 38 62 63
f 38 63 40
f 38 40 39
f 40 63 64
f 40 64 65
f 43 65 66
f 43 66 67
f 43 67 68
f 43 68 69
f 43 69 46
f 43 46 44
f 44 46 45
f 46 69 70
f 46 70 47
f 47 70 50
f 50 70 71
f 50 71 51
f 51 71 72
f 55 73 74
f 55 74 56
f 56 74 62
f 56 62 57
f 62 74 75
f 62 75 76
f 62 76 77
f 62 77 63
f 63 77 64
f 64 77 65
f 65 77 66
f 66 77 67
f 67 76 69
f 67 69 68
f 67 77 76
f 69 76 70
f 70 76 71
f 71 76 75
f 71 75 78
f 71 78 79
f 71 79 72
f 73 80 74
f 74 80 75
f 75 80 81
f 75 81 78

