# https://github.com/mikedh/trimesh
v 0.05949751 0.02306605 0.07069899
v 0.05636683 0.02306605 0.07325139
v 0.05949751 0.02093845 0.06971260
v 0.05949751 0.02306605 0.06791270
v 0.05290064 0.01579480 0.07253956
v 0.05205151 0.00745391 0.06939737
v 0.05395882 0.00675835 0.06759407
v 0.05652943 0.01562140 0.06966515
v 0.05186052 0.02306605 0.07652239
v 0.05640297 0.00660248 0.06549589
v 0.05949751 0.01385814 0.06628907
v 0.05949751 0.00316559 0.05165936
v 0.05878001 0.00316559 0.05194409
v 0.03313325 0.02306605 0.08401351
v 0.05000999 0.00713828 0.07074305
v 0.05133659 0.00614267 0.06920755
v 0.05328261 0.00528345 0.06707207
v 0.04724323 0.02306605 0.07944427
v 0.04889761 0.01477387 0.07485469
v 0.04764844 0.00675835 0.07218026
v 0.05687786 0.00490741 0.06367904
v 0.05874646 0.00665119 0.06343498
v 0.05949751 0.01166819 0.06521794
v 0.05949751 0.00316559 0.05868270
v 0.03313325 0.00316559 0.07160402
v 0.03313325 0.02306605 0.08628457
v 0.04879695 0.00621281 0.07106507
v 0.04951187 0.00469504 0.06935669
v 0.05271481 0.00396052 0.06611619
v 0.04243495 0.02306605 0.08214242
v 0.04509847 0.01520056 0.07738676
v 0.04373832 0.00655767 0.07452929
v 0.04598889 0.00658884 0.07318699
v 0.05581968 0.00375009 0.06326211
v 0.05923425 0.00387284 0.06023177
v 0.05949751 0.00404819 0.06018093
v 0.05949751 0.00503211 0.06130968
v 0.05949751 0.00615436 0.06229267
v 0.05949751 0.00662391 0.06268926
v 0.05949751 0.00780072 0.06329262
v 0.05949751 0.00333509 0.05899116
v 0.05849352 0.00316559 0.05969959
v 0.03313325 0.00316559 0.07676645
v 0.03744858 0.02306605 0.08451179
v 0.03313325 0.01509145 0.08317627
v 0.04642249 0.00493859 0.07167182
v 0.04584694 0.00383582 0.07091253
v 0.05043068 0.00370528 0.06757035
v 0.05138563 0.00316559 0.06597721
v 0.05221153 0.00316559 0.06530945
v 0.05340908 0.00316559 0.06433324
v 0.03706402 0.01534668 0.08160347
v 0.03596970 0.00660443 0.07859686
v 0.03978174 0.00666288 0.07678340
v 0.04161937 0.00504575 0.07469538
v 0.05525445 0.00316559 0.06276722
v 0.05665074 0.00316559 0.06144865
v 0.05949751 0.00386115 0.05994365
v 0.03606778 0.00316559 0.07548177
v 0.03313325 0.00346563 0.07717999
v 0.03313325 0.00751431 0.08020355
v 0.04327375 0.00382218 0.07250228
v 0.04667542 0.00316559 0.06942787
v 0.04768457 0.00316559 0.06873300
v 0.05013129 0.00316559 0.06692970
v 0.03313325 0.00664729 0.07985780
v 0.03591808 0.00512953 0.07765115
v 0.03935589 0.00379101 0.07468182
v 0.03728340 0.00316559 0.07489537
v 0.03425338 0.00382218 0.07717999
v 0.03313325 0.00359033 0.07734269
v 0.04099994 0.00316559 0.07288870
v 0.04237042 0.00316559 0.07210908
v 0.03313325 0.00644856 0.07972561
v 0.03313325 0.00512953 0.07884091
v 0.03313325 0.00429758 0.07808841
v 0.03313325 0.00384556 0.07767487
f 1 2 3
f 1 3 11
f 1 11 23
f 1 23 40
f 1 40 39
f 1 39 38
f 1 38 37
f 1 37 36
f 1 36 58
f 1 58 41
f 1 41 24
f 1 24 12
f 1 12 4
f 1 4 14
f 1 14 26
f 1 26 44
f 1 44 30
f 1 30 18
f 1 18 9
f 1 9 2
f 2 5 6
f 2 6 7
f 2 7 8
f 2 8 3
f 2 9 5
f 3 8 10
f 3 10 11
f 4 12 13
f 4 13 14
f 5 15 6
f 5 9 15
f 6 15 16
f 6 16 7
f 7 17 10
f 7 10 8
f 7 16 17
f 9 18 19
f 9 19 20
f 9 20 15
f 10 17 21
f 10 21 22
f 10 22 11
f 11 22 23
f 12 24 42
f 12 42 57
f 12 57 56
f 12 56 51
f 12 51 50
f 12 50 49
f 12 49 65
f 12 65 64
f 12 64 63
f 12 63 73
f 12 73 72
f 12 72 69
f 12 69 59
f 12 59 43
f 12 43 25
f 12 25 13
f 13 25 14
f 14 25 43
f 14 43 60
f 14 60 71
f 14 71 77
f 14 77 76
f 14 76 75
f 14 75 74
f 14 74 66
f 14 66 61
f 14 61 45
f 14 45 26
f 15 27 16
f 15 20 27
f 16 27 28
f 16 28 17
f 17 29 21
f 17 28 29
f 18 30 31
f 18 31 32
f 18 32 33
f 18 33 19
f 19 33 20
f 20 33 27
f 21 34 35
f 21 35 36
f 21 36 37
f 21 37 38
f 21 38 22
f 21 29 34
f 22 38 39
f 22 39 40
f 22 40 23
f 24 41 42
f 26 45 44
f 27 33 46
f 27 46 28
f 28 46 47
f 28 47 48
f 28 48 29
f 29 48 49
f 29 49 50
f 29 50 51
f 29 51 34
f 30 44 52
f 30 52 53
f 30 53 54
f 30 54 31
f 31 54 32
f 32 54 55
f 32 55 33
f 33 55 46
f 34 51 56
f 34 56 57
f 34 57 42
f 34 42 35
f 35 42 41
f 35 41 58
f 35 58 36
f 43 59 60
f 44 45 61
f 44 61 52
f 46 62 47
f 46 55 62
f 47 63 64
f 47 64 48
f 47 62 63
f 48 64 65
f 48 65 49
f 52 61 66
f 52 66 53
f 53 66 67
f 53 67 54
f 54 67 55
f 55 67 68
f 55 68 62
f 59 69 68
f 59 68 70
f 59 70 60
f 60 70 71
f 62 72 73
f 62 73 63
f 62 68 72
f 66 74 67
f 67 70 68
f 67 74 75
f 67 75 70
f 68 69 72
f 70 75 76
f 70 76 77
f 70 77 71

