# https://github.com/mikedh/trimesh
v -0.02849202 0.00318339 -0.07364041
v -0.02849202 0.00318339 -0.07877758
v -0.02849202 0.02306605 -0.08581931
v -0.05299118 0.00318339 -0.05872801
v -0.02978221 0.00318339 -0.07829570
v -0.02849202 0.00350264 -0.07921069
v -0.02849202 0.02306605 -0.08803079
v -0.05299118 0.02306605 -0.07327613
v -0.05299118 0.00318339 -0.06487769
v -0.03118510 0.00318339 -0.07775359
v -0.02849202 0.00371482 -0.07948606
v -0.03109637 0.00389001 -0.07870874
v -0.03073905 0.02306605 -0.08730510
v -0.02849202 0.01650209 -0.08553822
v -0.05299118 0.02306605 -0.07586910
v -0.05299118 0.00374596 -0.06577834
v -0.05246119 0.00318339 -0.06533088
v -0.03236737 0.00318339 -0.07726310
v -0.03438179 0.00382188 -0.07726023
v -0.02849202 0.00470564 -0.08040678
v -0.03129542 0.00513000 -0.07975854
v -0.02849202 0.00499958 -0.08067354
v -0.03585903 0.02306605 -0.08534604
v -0.02893807 0.01552684 -0.08502191
v -0.02849202 0.01127155 -0.08354473
v -0.02849202 0.00742895 -0.08206181
v -0.03296930 0.01455743 -0.08316611
v -0.05049234 0.02306605 -0.07758149
v -0.04931487 0.01398707 -0.07440626
v -0.05012063 0.00653545 -0.07055984
v -0.05299118 0.02093452 -0.07492829
v -0.05299118 0.00382577 -0.06590168
v -0.05055709 0.00370508 -0.06765136
v -0.05148276 0.00318339 -0.06610820
v -0.03614441 0.00318339 -0.07560808
v -0.03948259 0.00379268 -0.07476193
v -0.03604369 0.00513000 -0.07773064
v -0.03282781 0.00665420 -0.08012856
v -0.02849202 0.00643618 -0.08162296
v -0.04090467 0.02306605 -0.08303417
v -0.03719238 0.01534580 -0.08168319
v -0.02849202 0.00666004 -0.08176063
v -0.04898392 0.01648068 -0.07570847
v -0.04604863 0.02306605 -0.08032361
v -0.04611338 0.00658801 -0.07327040
v -0.04777767 0.00675737 -0.07226362
v -0.05299118 0.01599597 -0.07274836
v -0.04654983 0.00493729 -0.07175592
v -0.04963861 0.00469591 -0.06944119
v -0.05268182 0.00526042 -0.06770299
v -0.05289526 0.00674958 -0.06861224
v -0.05299118 0.00387054 -0.06597052
v -0.04597189 0.00383551 -0.07099582
v -0.04790237 0.00318339 -0.06877574
v -0.05026692 0.00318339 -0.06703180
v -0.05299118 0.00390753 -0.06601354
v -0.03746817 0.00318339 -0.07496844
v -0.04285914 0.00515725 -0.07421981
v -0.03984470 0.00487305 -0.07563103
v -0.04107733 0.00318339 -0.07302086
v -0.04339871 0.00382383 -0.07258774
v -0.03609644 0.00660553 -0.07867719
v -0.03982312 0.00625709 -0.07664641
v -0.04003415 0.00739001 -0.07710248
v -0.04134352 0.01592005 -0.07989622
v -0.04325482 0.00706688 -0.07518931
v -0.04533639 0.01518813 -0.07739792
v -0.04415892 0.00630770 -0.07426284
v -0.05299118 0.00676710 -0.06854627
v -0.05299118 0.00427739 -0.06640937
v -0.05299118 0.00522149 -0.06741902
v -0.04678005 0.00318339 -0.06955019
v -0.04251860 0.00318339 -0.07220339
f 1 2 6
f 1 6 11
f 1 11 20
f 1 20 22
f 1 22 39
f 1 39 42
f 1 42 26
f 1 26 25
f 1 25 14
f 1 14 7
f 1 7 3
f 1 3 4
f 1 4 9
f 1 9 17
f 1 17 34
f 1 34 55
f 1 55 54
f 1 54 72
f 1 72 73
f 1 73 60
f 1 60 57
f 1 57 35
f 1 35 18
f 1 18 10
f 1 10 5
f 1 5 2
f 2 5 6
f 3 7 13
f 3 13 23
f 3 23 40
f 3 40 44
f 3 44 28
f 3 28 15
f 3 15 8
f 3 8 4
f 4 8 15
f 4 15 31
f 4 31 47
f 4 47 69
f 4 69 71
f 4 71 70
f 4 70 56
f 4 56 52
f 4 52 32
f 4 32 16
f 4 16 9
f 5 10 6
f 6 10 12
f 6 12 11
f 7 14 13
f 9 16 17
f 10 18 19
f 10 19 12
f 11 12 20
f 12 21 22
f 12 22 20
f 12 19 21
f 13 14 24
f 13 24 25
f 13 25 26
f 13 26 27
f 13 27 23
f 14 25 24
f 15 28 29
f 15 29 30
f 15 30 31
f 16 32 17
f 17 32 33
f 17 33 34
f 18 35 19
f 19 35 36
f 19 36 37
f 19 37 21
f 21 37 38
f 21 38 39
f 21 39 22
f 23 27 38
f 23 38 41
f 23 41 40
f 26 42 38
f 26 38 27
f 28 43 29
f 28 44 45
f 28 45 43
f 29 43 46
f 29 46 30
f 30 47 31
f 30 46 45
f 30 45 48
f 30 48 49
f 30 49 50
f 30 50 51
f 30 51 47
f 32 52 33
f 33 49 53
f 33 53 54
f 33 54 55
f 33 55 34
f 33 52 56
f 33 56 49
f 35 57 36
f 36 58 59
f 36 59 37
f 36 57 60
f 36 60 61
f 36 61 58
f 37 62 38
f 37 59 63
f 37 63 62
f 38 62 41
f 38 42 39
f 40 41 62
f 40 62 64
f 40 64 65
f 40 65 44
f 43 45 46
f 44 65 64
f 44 64 66
f 44 66 67
f 44 67 45
f 45 67 66
f 45 66 68
f 45 68 58
f 45 58 48
f 47 51 69
f 48 53 49
f 48 58 61
f 48 61 53
f 49 56 50
f 50 69 51
f 50 56 70
f 50 70 71
f 50 71 69
f 53 61 72
f 53 72 54
f 58 68 63
f 58 63 59
f 60 73 61
f 61 73 72
f 62 63 64
f 63 68 66
f 63 66 64

