# https://github.com/mikedh/trimesh
v 0.09243600 0.02306605 -0.00003895
v 0.08977922 0.01599743 0.00386866
v 0.08679625 0.00763705 0.00231792
v 0.08664033 0.00713438 -0.00004219
v 0.08663828 0.00712854 -0.00005838
v 0.09243395 0.02306605 -0.00005838
v 0.09228623 0.02306605 0.00543236
v 0.08624438 0.00659274 0.00572697
v 0.08617257 0.00622060 0.00314023
v 0.08567200 0.00528150 -0.00005838
v 0.09030648 0.02306605 -0.00005838
v 0.09177745 0.02306605 0.01097166
v 0.08935250 0.01559217 0.00802880
v 0.08600434 0.00664924 0.00887378
v 0.08511602 0.00501068 0.00761441
v 0.08538888 0.00500094 0.00328916
v 0.08562686 0.00521136 -0.00005838
v 0.07910904 0.00316559 -0.00005838
v 0.07147723 0.00316559 0.03301554
v 0.08402049 0.02306605 0.03301554
v 0.09126866 0.02306605 0.01461380
v 0.08900578 0.01593314 0.01216628
v 0.08535605 0.00671354 0.01390803
v 0.08478777 0.00515486 0.01148965
v 0.08377225 0.00391570 0.01121770
v 0.08416820 0.00384751 0.00686655
v 0.08434668 0.00383387 0.00383953
v 0.08449645 0.00388258 -0.00005838
v 0.08369018 0.00316559 -0.00005838
v 0.07679898 0.00316559 0.03301554
v 0.08631003 0.02306605 0.03301554
v 0.08817695 0.01553372 0.01640412
v 0.09061216 0.02306605 0.01823005
v 0.08478777 0.00662002 0.01684765
v 0.08408818 0.00505354 0.01544907
v 0.08313421 0.00391181 0.01521273
v 0.08251669 0.00316559 0.01372350
v 0.08269517 0.00316559 0.01259039
v 0.08304189 0.00316559 0.01001660
v 0.08318960 0.00316559 0.00866334
v 0.08347067 0.00316559 0.00527696
v 0.08352401 0.00316559 0.00445464
v 0.08369429 0.00316559 0.00019414
v 0.08387072 0.00330977 -0.00005838
v 0.08436925 0.00373840 -0.00005838
v 0.08369634 0.00316559 0.00010349
v 0.07689951 0.00323768 0.03301554
v 0.07697952 0.00316559 0.03260762
v 0.08329013 0.01528239 0.03301554
v 0.08657468 0.02306605 0.03236157
v 0.08981410 0.02306605 0.02182039
v 0.08728657 0.01525316 0.02016929
v 0.08414563 0.00655962 0.01965129
v 0.08309112 0.00517434 0.02045095
v 0.08229922 0.00370918 0.01831422
v 0.08179454 0.00316559 0.01740773
v 0.07758268 0.00376568 0.03301554
v 0.07795606 0.00316559 0.03030255
v 0.08188686 0.01168573 0.03301554
v 0.08400818 0.01632476 0.03222884
v 0.08393227 0.01265991 0.02850252
v 0.08545658 0.01623513 0.02806870
v 0.08837390 0.02306605 0.02710393
v 0.08628131 0.01520056 0.02404453
v 0.08332090 0.00736623 0.02408338
v 0.08283058 0.00625762 0.02398950
v 0.08137192 0.00496781 0.02606471
v 0.08138423 0.00369359 0.02198874
v 0.08116676 0.00316559 0.02013368
v 0.07820020 0.00435408 0.03301554
v 0.07902493 0.00377153 0.02962592
v 0.07913571 0.00465023 0.03154573
v 0.07885465 0.00316559 0.02782265
v 0.07986402 0.00659858 0.03301554
v 0.08048359 0.00668041 0.03162667
v 0.08178838 0.00651675 0.02782265
v 0.08044461 0.00370918 0.02525534
v 0.08077081 0.00316559 0.02175241
v 0.07854897 0.00471648 0.03301554
v 0.07912546 0.00551335 0.03301554
v 0.07940652 0.00316559 0.02621363
v 0.08034818 0.00316559 0.02318337
f 1 2 3
f 1 3 4
f 1 4 5
f 1 5 6
f 1 6 11
f 1 11 20
f 1 20 31
f 1 31 50
f 1 50 63
f 1 63 51
f 1 51 33
f 1 33 21
f 1 21 12
f 1 12 7
f 1 7 2
f 2 7 8
f 2 8 3
f 3 8 9
f 3 9 5
f 3 5 4
f 5 9 10
f 5 10 17
f 5 17 28
f 5 28 45
f 5 45 44
f 5 44 29
f 5 29 18
f 5 18 11
f 5 11 6
f 7 12 13
f 7 13 8
f 8 13 14
f 8 14 15
f 8 15 16
f 8 16 9
f 9 16 10
f 10 16 17
f 11 18 19
f 11 19 20
f 12 21 22
f 12 22 14
f 12 14 13
f 14 22 23
f 14 23 24
f 14 24 15
f 15 24 25
f 15 25 26
f 15 26 16
f 16 26 27
f 16 27 28
f 16 28 17
f 18 29 46
f 18 46 43
f 18 43 42
f 18 42 41
f 18 41 40
f 18 40 39
f 18 39 38
f 18 38 37
f 18 37 56
f 18 56 69
f 18 69 78
f 18 78 82
f 18 82 81
f 18 81 73
f 18 73 58
f 18 58 48
f 18 48 30
f 18 30 19
f 19 30 47
f 19 47 57
f 19 57 70
f 19 70 79
f 19 79 80
f 19 80 74
f 19 74 59
f 19 59 49
f 19 49 31
f 19 31 20
f 21 32 23
f 21 23 22
f 21 33 32
f 23 32 34
f 23 34 35
f 23 35 24
f 24 35 25
f 25 35 36
f 25 36 37
f 25 37 38
f 25 38 39
f 25 39 40
f 25 40 26
f 26 40 41
f 26 41 42
f 26 42 27
f 27 43 44
f 27 44 45
f 27 45 28
f 27 42 43
f 29 44 46
f 30 48 47
f 31 49 50
f 32 33 34
f 33 51 52
f 33 52 34
f 34 52 53
f 34 53 54
f 34 54 35
f 35 54 55
f 35 55 36
f 36 55 37
f 37 55 56
f 43 46 44
f 47 48 57
f 48 58 57
f 49 59 60
f 49 60 50
f 50 60 61
f 50 61 62
f 50 62 63
f 51 53 52
f 51 63 64
f 51 64 65
f 51 65 53
f 53 65 66
f 53 66 54
f 54 66 67
f 54 67 68
f 54 68 55
f 55 68 69
f 55 69 56
f 57 58 71
f 57 71 72
f 57 72 70
f 58 73 71
f 59 74 75
f 59 75 60
f 60 75 61
f 61 76 62
f 61 75 76
f 62 76 65
f 62 65 63
f 63 65 64
f 65 76 66
f 66 76 67
f 67 77 68
f 67 76 72
f 67 72 71
f 67 71 77
f 68 77 78
f 68 78 69
f 70 72 79
f 71 73 77
f 72 76 75
f 72 75 74
f 72 74 80
f 72 80 79
f 73 81 77
f 77 82 78
f 77 81 82

