# https://github.com/mikedh/trimesh
v 0.08631063 0.02306605 0.03301923
v 0.08401933 0.02306605 0.03301923
v 0.08440515 0.02306605 0.03770777
v 0.08262304 0.01431211 0.03374593
v 0.08328969 0.01528239 0.03301923
v 0.07147890 0.00316559 0.03301923
v 0.05949751 0.02306605 0.06790851
v 0.08147345 0.01620785 0.03809511
v 0.08068869 0.01265991 0.03668965
v 0.07911129 0.00649727 0.03469397
v 0.08210074 0.02306605 0.04244797
v 0.07986194 0.00659858 0.03301923
v 0.08188552 0.01168573 0.03301923
v 0.05949751 0.00316559 0.05166275
v 0.07679638 0.00316559 0.03301923
v 0.05949751 0.02306605 0.07070098
v 0.07809032 0.00660443 0.03704747
v 0.08042098 0.01786200 0.04157739
v 0.07734493 0.00485676 0.03604041
v 0.07854700 0.00471648 0.03301923
v 0.07912179 0.00551335 0.03301923
v 0.07956273 0.02306605 0.04707380
v 0.07881209 0.01422054 0.04180610
v 0.05949751 0.00316559 0.05867897
v 0.07689874 0.00323768 0.03301923
v 0.07517437 0.00316559 0.03667120
v 0.06068646 0.02306605 0.06973081
v 0.05949751 0.02093845 0.06971237
v 0.07622421 0.00700189 0.04107940
v 0.07661003 0.00619333 0.03951901
v 0.07633182 0.00376178 0.03594819
v 0.07435548 0.00486455 0.04190201
v 0.07394605 0.00384361 0.04081380
v 0.07819793 0.00435408 0.03301923
v 0.07361271 0.00673302 0.04539537
v 0.07657066 0.01265991 0.04465391
v 0.07521374 0.02306605 0.05374696
v 0.07577278 0.01786200 0.04954166
v 0.06100666 0.00316559 0.05716654
v 0.05949751 0.00333509 0.05898884
v 0.07758114 0.00376568 0.03301923
v 0.07432661 0.00316559 0.03832382
v 0.05949751 0.01385814 0.06628541
v 0.05949751 0.01166819 0.06521564
v 0.06000406 0.01504274 0.06641452
v 0.06469163 0.02306605 0.06601243
v 0.07423738 0.00617579 0.04381653
v 0.07140278 0.00494054 0.04683403
v 0.07103534 0.00373646 0.04547652
v 0.07138704 0.00316559 0.04355094
v 0.07238439 0.00316559 0.04186513
v 0.07412189 0.01421274 0.04964494
v 0.07163113 0.00660248 0.04836860
v 0.07097235 0.02306605 0.05922861
v 0.07205369 0.01611433 0.05376909
v 0.07160226 0.01265991 0.05225297
v 0.06975452 0.00658689 0.05101720
v 0.06193053 0.00374815 0.05727720
v 0.05949751 0.00386115 0.05994056
v 0.06267068 0.00316559 0.05536268
v 0.05949751 0.00780072 0.06329005
v 0.06326384 0.01649231 0.06406471
v 0.06266805 0.01265991 0.06268877
v 0.06726639 0.02306605 0.06338596
v 0.06930834 0.00512173 0.05013556
v 0.06910099 0.00375594 0.04839810
v 0.06998549 0.00316559 0.04578639
v 0.06723751 0.01786200 0.06062669
v 0.06806427 0.01525901 0.05825106
v 0.06639239 0.00661222 0.05533686
v 0.06881229 0.01265991 0.05587544
v 0.07028208 0.01786200 0.05706694
v 0.06810102 0.00660443 0.05322683
v 0.06369428 0.00316559 0.05420069
v 0.06469951 0.00376763 0.05416380
v 0.06342657 0.00494054 0.05717391
v 0.06107753 0.00510809 0.05987785
v 0.05949751 0.00404819 0.06018034
v 0.05949751 0.00662391 0.06268508
v 0.06135049 0.00655767 0.06084802
v 0.06495672 0.01525901 0.06169646
v 0.06421920 0.00671548 0.05793382
v 0.06611155 0.00512758 0.05428922
v 0.06785693 0.00384751 0.05028311
v 0.06926372 0.00316559 0.04685985
v 0.06725326 0.00316559 0.04971872
v 0.06594095 0.00316559 0.05143035
v 0.05949751 0.00615436 0.06228668
v 0.05949751 0.00503211 0.06130544
v 0.06683857 0.00316559 0.05028311
f 1 2 7
f 1 7 16
f 1 16 27
f 1 27 46
f 1 46 64
f 1 64 54
f 1 54 37
f 1 37 22
f 1 22 11
f 1 11 3
f 1 3 4
f 1 4 5
f 1 5 13
f 1 13 12
f 1 12 21
f 1 21 20
f 1 20 34
f 1 34 41
f 1 41 25
f 1 25 15
f 1 15 6
f 1 6 2
f 2 6 7
f 3 8 9
f 3 9 10
f 3 10 4
f 3 11 8
f 4 10 12
f 4 12 13
f 4 13 5
f 6 14 7
f 6 15 26
f 6 26 42
f 6 42 51
f 6 51 50
f 6 50 67
f 6 67 85
f 6 85 86
f 6 86 90
f 6 90 87
f 6 87 74
f 6 74 60
f 6 60 39
f 6 39 24
f 6 24 14
f 7 14 24
f 7 24 40
f 7 40 59
f 7 59 78
f 7 78 89
f 7 89 88
f 7 88 79
f 7 79 61
f 7 61 44
f 7 44 43
f 7 43 28
f 7 28 16
f 8 17 9
f 8 11 18
f 8 18 17
f 9 17 10
f 10 17 19
f 10 19 20
f 10 20 21
f 10 21 12
f 11 22 23
f 11 23 18
f 15 25 26
f 16 28 27
f 17 18 29
f 17 29 30
f 17 30 19
f 18 23 29
f 19 31 20
f 19 30 32
f 19 32 33
f 19 33 31
f 20 31 34
f 22 35 36
f 22 36 29
f 22 29 23
f 22 37 38
f 22 38 35
f 24 39 40
f 25 41 31
f 25 31 26
f 26 31 33
f 26 33 42
f 27 28 43
f 27 43 44
f 27 44 45
f 27 45 46
f 29 36 35
f 29 35 47
f 29 47 30
f 30 47 32
f 31 41 34
f 32 47 48
f 32 48 49
f 32 49 33
f 33 49 50
f 33 50 51
f 33 51 42
f 35 38 52
f 35 52 53
f 35 53 47
f 37 54 55
f 37 55 56
f 37 56 57
f 37 57 53
f 37 53 52
f 37 52 38
f 39 58 59
f 39 59 40
f 39 60 58
f 44 46 45
f 44 61 46
f 46 61 62
f 46 62 63
f 46 63 64
f 47 53 48
f 48 53 65
f 48 65 66
f 48 66 49
f 49 66 67
f 49 67 50
f 53 57 65
f 54 64 68
f 54 68 69
f 54 69 70
f 54 70 71
f 54 71 72
f 54 72 55
f 55 73 57
f 55 57 56
f 55 72 73
f 57 73 65
f 58 60 74
f 58 74 75
f 58 75 76
f 58 76 77
f 58 77 78
f 58 78 59
f 61 79 80
f 61 80 63
f 61 63 62
f 63 81 64
f 63 80 81
f 64 81 82
f 64 82 68
f 65 73 83
f 65 83 84
f 65 84 66
f 66 85 67
f 66 84 86
f 66 86 85
f 68 82 69
f 69 82 70
f 70 83 73
f 70 73 71
f 70 82 83
f 71 73 72
f 74 87 75
f 75 87 84
f 75 84 83
f 75 83 76
f 76 82 77
f 76 83 82
f 77 80 88
f 77 88 89
f 77 89 78
f 77 82 80
f 79 88 80
f 80 82 81
f 84 87 90
f 84 90 86

