# https://github.com/mikedh/trimesh
v 0.00112463 0.00323605 -0.08384161
v -0.00002350 0.00323605 -0.08379241
v 0.00263361 0.00323605 -0.08379241
v 0.00169870 0.00285896 -0.08338249
v -0.00312346 0.00293773 -0.08341528
v -0.00313987 0.00318054 -0.08369403
v -0.00002350 0.00323605 -0.07944714
v -0.00761759 0.00318054 -0.08344808
v -0.00847049 0.00318054 -0.08334969
v -0.01207891 0.00318054 -0.08284137
v -0.01348947 0.00318054 -0.08262821
v -0.01619579 0.00318054 -0.08216909
v -0.01827883 0.00318054 -0.08174276
v -0.02116557 0.00318054 -0.08103768
v -0.02285497 0.00318054 -0.08056216
v -0.02506923 0.00318054 -0.07988987
v -0.02748031 0.00318054 -0.07913560
v -0.02976017 0.00318054 -0.07828294
v -0.03117074 0.00318054 -0.07774183
v -0.03235168 0.00318054 -0.07724991
v -0.03612412 0.00318054 -0.07559379
v -0.03743627 0.00318054 -0.07495429
v -0.04106109 0.00318054 -0.07300302
v -0.04248806 0.00318054 -0.07218316
v -0.04675256 0.00318054 -0.06952680
v -0.04788429 0.00318054 -0.06875614
v -0.05024616 0.00318054 -0.06701803
v -0.05144350 0.00318054 -0.06609978
v -0.05242762 0.00318054 -0.06531271
v -0.05557679 0.00318054 -0.06265636
v -0.05861114 0.00318054 -0.05977043
v -0.06113703 0.00318054 -0.05722887
v -0.06276083 0.00318054 -0.05549076
v -0.06382695 0.00318054 -0.05426096
v -0.06602481 0.00318054 -0.05157181
v -0.06741897 0.00318054 -0.04975171
v -0.06935439 0.00318054 -0.04696418
v -0.07012528 0.00318054 -0.04583277
v -0.07148665 0.00318054 -0.04366833
v -0.07251996 0.00318054 -0.04189743
v -0.07442259 0.00318054 -0.03847040
v -0.07530829 0.00318054 -0.03673229
v -0.07707970 0.00318054 -0.03279695
v -0.07775218 0.00318054 -0.03114083
v -0.07824424 0.00318054 -0.02992743
v -0.07886751 0.00318054 -0.02822212
v -0.07944158 0.00318054 -0.02654959
v -0.08022886 0.00318054 -0.02413920
v -0.08062251 0.00318054 -0.02279462
v -0.08127859 0.00318054 -0.02033503
v -0.08178705 0.00318054 -0.01815420
v -0.08252513 0.00318054 -0.01436643
v -0.08286957 0.00318054 -0.01212001
v -0.08319761 0.00318054 -0.00964402
v -0.08349285 0.00318054 -0.00697127
v -0.08370607 0.00318054 -0.00305233
v -0.08378808 0.00318054 -0.00041237
v 0.00479866 0.00323605 -0.08366124
v 0.00563516 0.00271414 -0.08297255
v 0.00012412 0.00205578 -0.08202151
v -0.00002350 0.00270670 -0.08315293
v 0.00365053 0.00194539 -0.08170997
v -0.00071238 0.00264747 -0.08305455
v -0.00415678 0.00202136 -0.08184114
v -0.00758478 0.00301556 -0.08326771
v 0.07934536 0.00323605 -0.00006803
v -0.08377168 0.00318054 -0.00003523
v -0.01211171 0.00270670 -0.08225108
v -0.01690107 0.00277337 -0.08152960
v -0.02236291 0.00269678 -0.08008664
v -0.02723428 0.00282051 -0.07874207
v -0.03121994 0.00282051 -0.07724991
v -0.03671459 0.00296285 -0.07501989
v -0.04199600 0.00281989 -0.07196999
v -0.04698219 0.00300347 -0.06913327
v -0.04991813 0.00259568 -0.06631294
v -0.05208318 0.00281989 -0.06503395
v -0.05483870 0.00262359 -0.06237760
v -0.05782385 0.00241675 -0.05919653
v -0.06015292 0.00256653 -0.05711408
v -0.06320368 0.00281462 -0.05429375
v -0.06656607 0.00291075 -0.05034202
v -0.06946921 0.00282175 -0.04602954
v -0.07168347 0.00282051 -0.04245493
v -0.07463581 0.00282454 -0.03715862
v -0.07745694 0.00281989 -0.03076369
v -0.07822783 0.00261243 -0.02784498
v -0.07999924 0.00282051 -0.02331934
v -0.08111457 0.00274174 -0.01884288
v -0.08188546 0.00271259 -0.01462879
v -0.08252513 0.00271352 -0.01056227
v -0.08313200 0.00278174 -0.00559390
v -0.08372247 0.00316349 0.00201443
v -0.08286957 0.00251071 -0.00055994
v -0.08319761 0.00279787 0.00394930
v 0.00648806 0.00323605 -0.08354646
v 0.01044092 0.00323605 -0.08313653
v 0.00963723 0.00255816 -0.08234946
v 0.00724255 0.00205578 -0.08169357
v -0.00002350 0.00151403 -0.08061135
v -0.00179491 0.00151837 -0.08062775
v -0.00299225 0.00199035 -0.08182475
v 0.01104779 0.00157605 -0.08011943
v 0.00688170 0.00136828 -0.07988987
v 0.00304366 0.00150503 -0.08056216
v -0.00715833 0.00151434 -0.08033259
v -0.00814245 0.00206974 -0.08166077
v 0.08377388 0.00323605 -0.00006803
v -0.05351015 0.00316349 0.06432400
v -0.05052500 0.00316349 0.06670160
v -0.04944247 0.00316349 0.06750507
v -0.04640811 0.00316349 0.06963672
v -0.04565363 0.00316349 0.07016142
v -0.04440708 0.00316349 0.07091570
v -0.04071665 0.00316349 0.07311294
v -0.03838758 0.00316349 0.07432633
v -0.03502519 0.00316349 0.07601525
v -0.03354901 0.00316349 0.07663834
v -0.03071149 0.00316349 0.07783534
v -0.02954695 0.00316349 0.07826167
v -0.02729989 0.00316349 0.07908153
v -0.02592212 0.00316349 0.07954066
v -0.02280576 0.00316349 0.08052449
v -0.02151001 0.00316349 0.08086883
v -0.01854126 0.00316349 0.08160671
v -0.01773757 0.00316349 0.08177068
v -0.01337466 0.00316349 0.08260694
v -0.01258737 0.00316349 0.08273812
v -0.01048792 0.00316349 0.08296769
v -0.00648586 0.00316349 0.08339401
v -0.00504249 0.00316349 0.08349239
v -0.00256580 0.00316349 0.08363997
v -0.00127005 0.00316349 0.08367276
v -0.08359126 0.00316349 0.00490034
v -0.08336163 0.00316349 0.00809781
v -0.08311560 0.00316349 0.01027864
v -0.08275476 0.00316349 0.01293500
v -0.08237752 0.00316349 0.01496826
v -0.08181985 0.00316349 0.01785418
v -0.08129499 0.00316349 0.02013339
v -0.08065532 0.00316349 0.02257659
v -0.07916274 0.00316349 0.02721701
v -0.07857227 0.00316349 0.02893872
v -0.07816222 0.00316349 0.03003734
v -0.07685007 0.00316349 0.03320201
v -0.07614479 0.00316349 0.03482534
v -0.07335646 0.00316349 0.04038401
v -0.07204431 0.00316349 0.04259764
v -0.07007608 0.00316349 0.04577870
v -0.06922318 0.00316349 0.04704129
v -0.06689411 0.00316349 0.05030435
v -0.06622163 0.00316349 0.05120620
v -0.06553275 0.00316349 0.05205885
v -0.06325289 0.00316349 0.05481359
v -0.06221956 0.00316349 0.05596140
v -0.05928362 0.00316349 0.05906048
v -0.05843072 0.00316349 0.05991314
v -0.05541277 0.00316349 0.06270067
v -0.05457627 0.00316349 0.06345495
v -0.01498205 0.00194446 -0.08041459
v -0.01104559 0.00201423 -0.08120165
v -0.02008304 0.00198539 -0.07939795
v -0.02480680 0.00211688 -0.07833213
v -0.02828400 0.00202850 -0.07695476
v -0.03241728 0.00206633 -0.07539702
v -0.03689501 0.00202632 -0.07324899
v -0.04176637 0.00202974 -0.07055984
v -0.04621129 0.00201299 -0.06772310
v -0.05200117 0.00193763 -0.06313187
v -0.05903759 0.00174723 -0.05603186
v -0.06231797 0.00207966 -0.05347389
v -0.05474029 0.00173141 -0.06016397
v -0.06463065 0.00204865 -0.05057157
v -0.06755019 0.00199966 -0.04643946
v -0.07012528 0.00205361 -0.04265170
v -0.07227393 0.00202539 -0.03874915
v -0.07463581 0.00206075 -0.03414152
v -0.07571834 0.00205361 -0.03159995
v -0.07622680 0.00194756 -0.02969787
v -0.07801461 0.00202539 -0.02525421
v -0.07876909 0.00199655 -0.02253227
v -0.07995003 0.00197640 -0.01780986
v -0.08057331 0.00197578 -0.01461239
v -0.08136060 0.00202477 -0.01028352
v -0.08142621 0.00192182 -0.00726642
v -0.08200027 0.00205268 -0.00246203
v -0.08211509 0.00208804 -0.00001883
v -0.08218069 0.00210943 0.00144052
v -0.08285317 0.00281369 0.00896686
v -0.08185266 0.00202943 0.00488395
v 0.01229434 0.00323605 -0.08292336
v 0.01293401 0.00299448 -0.08254623
v 0.01122821 0.00211532 -0.08138202
v -0.00002350 0.00128672 -0.07979149
v -0.00033514 0.00006831 -0.07503629
v -0.00696151 0.00006831 -0.07472473
v 0.01526308 0.00199252 -0.08044738
v 0.01619799 0.00152147 -0.07900442
v 0.01285200 0.00006800 -0.07392127
v 0.00491347 0.00006800 -0.07485591
v -0.00002350 0.00006800 -0.07503629
v 0.00821026 0.00006800 -0.07456076
v 0.00010771 0.00126501 -0.07970950
v -0.01404714 0.00149759 -0.07936515
v 0.08073952 0.00316349 0.02175672
v 0.08114958 0.00316349 0.02013339
v 0.08177285 0.00316349 0.01741145
v 0.08249453 0.00316349 0.01372207
v 0.08267495 0.00316349 0.01259066
v 0.08301939 0.00316349 0.01001629
v 0.08316701 0.00316349 0.00865531
v 0.08344584 0.00316349 0.00526108
v 0.08349505 0.00316349 0.00445762
v 0.08369187 0.00316349 0.00009595
v 0.08377388 0.00323605 -0.00021560
v -0.00095841 0.00316349 0.08367276
v 0.00138706 0.00316349 0.08363997
v 0.00632404 0.00316349 0.08341041
v 0.00748858 0.00316349 0.08334482
v 0.00825946 0.00316349 0.08326283
v 0.01196630 0.00316349 0.08275451
v 0.01332766 0.00316349 0.08254135
v 0.01609958 0.00316349 0.08208222
v 0.01810061 0.00316349 0.08165590
v 0.02108576 0.00316349 0.08091802
v 0.02272595 0.00316349 0.08047530
v 0.02735129 0.00316349 0.07903234
v 0.02971317 0.00316349 0.07814689
v 0.03104173 0.00316349 0.07763858
v 0.03217346 0.00316349 0.07716305
v 0.03606071 0.00316349 0.07547413
v 0.03727445 0.00316349 0.07488383
v 0.04099769 0.00316349 0.07286697
v 0.04234264 0.00316349 0.07209630
v 0.04321194 0.00316349 0.07155519
v 0.04663994 0.00316349 0.06940715
v 0.04765686 0.00316349 0.06871847
v 0.05011715 0.00316349 0.06691477
v 0.05136370 0.00316349 0.06594732
v 0.05220019 0.00316349 0.06529144
v 0.05339753 0.00316349 0.06430761
v 0.05523455 0.00316349 0.06274987
v 0.05848213 0.00316349 0.05966718
v 0.06099162 0.00316349 0.05715840
v 0.06264821 0.00316349 0.05535471
v 0.06368154 0.00316349 0.05419049
v 0.06592860 0.00316349 0.05141936
v 0.06683071 0.00316349 0.05027155
v 0.06724075 0.00316349 0.04969765
v 0.06924179 0.00316349 0.04684452
v 0.06996347 0.00316349 0.04576231
v 0.07135763 0.00316349 0.04353228
v 0.07235815 0.00316349 0.04184336
v 0.07430998 0.00316349 0.03831795
v 0.07514647 0.00316349 0.03666183
v 0.07695069 0.00316349 0.03259531
v 0.07793480 0.00316349 0.03029969
v 0.07883690 0.00316349 0.02782371
v 0.07937817 0.00316349 0.02621678
v 0.08032948 0.00316349 0.02318328
v -0.05421543 0.00282268 0.06320898
v -0.04959009 0.00281958 0.06688198
v -0.04547321 0.00293153 0.06994826
v -0.04017539 0.00282268 0.07293256
v -0.03458234 0.00281958 0.07573649
v -0.03031784 0.00282051 0.07754018
v -0.02690624 0.00282268 0.07876999
v -0.02206768 0.00285245 0.08034412
v -0.01813122 0.00298145 0.08147553
v -0.01304662 0.00299479 0.08247576
v -0.00976624 0.00255878 0.08227900
v -0.00574777 0.00271445 0.08290209
v -0.00182771 0.00285865 0.08331202
v -0.08236112 0.00286764 0.01309897
v -0.08121298 0.00265646 0.01757542
v -0.08049129 0.00279911 0.02160915
v -0.07817863 0.00281958 0.02882394
v -0.07583315 0.00278671 0.03438261
v -0.07263478 0.00281958 0.04081034
v -0.06945281 0.00282268 0.04597547
v -0.06591000 0.00282268 0.05092745
v -0.06230157 0.00282051 0.05527271
v -0.05893918 0.00281958 0.05883091
v -0.01921374 0.00143557 -0.07810257
v -0.02539727 0.00155713 -0.07672520
v -0.03133476 0.00152209 -0.07436400
v -0.03625533 0.00149852 -0.07200279
v -0.03986375 0.00138006 -0.06964159
v -0.04389863 0.00152147 -0.06775590
v -0.04895042 0.00168428 -0.06482079
v -0.05962806 0.00137944 -0.05371985
v -0.06381055 0.00147433 -0.04919421
v -0.05229641 0.00144053 -0.06114781
v -0.06745177 0.00143433 -0.04384870
v -0.07125702 0.00143154 -0.03732259
v -0.07365170 0.00150659 -0.03289533
v -0.07558713 0.00151837 -0.02823851
v -0.07704690 0.00151930 -0.02394243
v -0.07799821 0.00140580 -0.01925282
v -0.07906433 0.00141324 -0.01444842
v -0.07998284 0.00149852 -0.01023432
v -0.08040929 0.00149542 -0.00570868
v -0.08072092 0.00153325 -0.00003523
v -0.08054050 0.00146720 0.00029271
v -0.08131139 0.00200865 0.01029504
v -0.08011405 0.00142627 0.00676963
v 0.01339326 0.00323605 -0.08274299
v 0.01747734 0.00323605 -0.08197232
v 0.01801860 0.00298176 -0.08156239
v 0.01572234 0.00268995 -0.08159519
v -0.01353868 0.00006831 -0.07382288
v 0.01851066 0.00201578 -0.07980789
v 0.02234871 0.00155930 -0.07764344
v 0.01800220 0.00006800 -0.07282265
v -0.07502946 0.00006800 -0.00001883
v -0.05249323 0.00006831 -0.05363787
v -0.05008215 0.00006831 -0.05590068
v -0.04624410 0.00006831 -0.05911455
v -0.04222563 0.00006831 -0.06203326
v -0.03802674 0.00006831 -0.06472241
v -0.03364743 0.00006831 -0.06708362
v -0.02913690 0.00006831 -0.06916607
v -0.02318301 0.00006831 -0.07137969
v -0.01811481 0.00006831 -0.07282265
v 0.08024747 0.00273554 0.02155996
v 0.08131359 0.00266732 0.01657519
v 0.08224850 0.00286764 0.01313177
v 0.08270776 0.00284253 0.00949157
v 0.08318341 0.00291044 0.00467078
v 0.08349505 0.00300936 0.00027632
v 0.08347865 0.00300254 -0.00006803
v 0.08310140 0.00287385 -0.00588905
v 0.08362626 0.00323605 -0.00360983
v -0.00003990 0.00280655 0.08323004
v 0.00161669 0.00275756 0.08314805
v 0.00747217 0.00301556 0.08318085
v 0.01201550 0.00270670 0.08218062
v 0.01677206 0.00277368 0.08145914
v 0.02223390 0.00269678 0.08001617
v 0.02712167 0.00282051 0.07865521
v 0.03109093 0.00282051 0.07716305
v 0.03660197 0.00296254 0.07494943
v 0.04186699 0.00281958 0.07188313
v 0.04685317 0.00300347 0.06906281
v 0.04978911 0.00259568 0.06622608
v 0.05197057 0.00281958 0.06494709
v 0.05470969 0.00262359 0.06229074
v 0.05769484 0.00241644 0.05910968
v 0.06004031 0.00256653 0.05704361
v 0.06309106 0.00281462 0.05420689
v 0.06645346 0.00291044 0.05027155
v 0.06932379 0.00282175 0.04594268
v 0.07157085 0.00282051 0.04236808
v 0.07449040 0.00282485 0.03707176
v 0.07732793 0.00281958 0.03069323
v 0.07873849 0.00282268 0.02680708
v -0.05674132 0.00201051 0.05909328
v -0.05234561 0.00207253 0.06315979
v -0.04876999 0.00198787 0.06571777
v -0.04624410 0.00202788 0.06763624
v -0.04260287 0.00202788 0.06998105
v -0.03843679 0.00202353 0.07235866
v -0.03409028 0.00205640 0.07455589
v -0.03080990 0.00202260 0.07590047
v -0.02779194 0.00203749 0.07709746
v -0.02305179 0.00204772 0.07865521
v -0.01862327 0.00201547 0.07973742
v -0.01583495 0.00268933 0.08152472
v -0.01135722 0.00211564 0.08131156
v -0.00737156 0.00205578 0.08160671
v -0.00377954 0.00194539 0.08163950
v -0.00025313 0.00205578 0.08193465
v -0.00003990 0.00205268 0.08193465
v -0.08055690 0.00197392 0.01454193
v -0.07978601 0.00194074 0.01798535
v -0.07881830 0.00201485 0.02246180
v -0.07732573 0.00204617 0.02739738
v -0.07512787 0.00203873 0.03285767
v -0.07291361 0.00204617 0.03753088
v -0.07051893 0.00202632 0.04177777
v -0.06856711 0.00200865 0.04481127
v -0.06591000 0.00204772 0.04879580
v -0.06351531 0.00204927 0.05186209
v -0.06074339 0.00205578 0.05509234
v -0.02237931 0.00126532 -0.07651203
v -0.02915330 0.00137045 -0.07472473
v -0.05478950 0.00006831 -0.05127666
v -0.05826670 0.00006831 -0.04730853
v -0.06112063 0.00006831 -0.04356995
v -0.06389256 0.00006831 -0.03945424
v -0.06633645 0.00006831 -0.03510896
v -0.06863271 0.00006831 -0.03038655
v -0.07396333 0.00126532 -0.02977986
v -0.07038772 0.00006831 -0.02604128
v -0.07199510 0.00006831 -0.02131887
v -0.07363530 0.00006831 -0.01459600
v -0.07463581 0.00006831 -0.00802070
v -0.08054050 0.00146875 -0.00001883
v -0.07506226 0.00006831 -0.00139620
v -0.07496385 0.00006800 0.00327701
v -0.07978601 0.00149883 0.01152483
v -0.07457021 0.00006800 0.00852414
v 0.01859267 0.00323605 -0.08172636
v 0.02126618 0.00323605 -0.08105407
v 0.02195506 0.00285276 -0.08041459
v 0.02292278 0.00204710 -0.07874207
v 0.02766293 0.00203749 -0.07716793
v 0.02557989 0.00136332 -0.07595453
v 0.02251273 0.00006800 -0.07156007
v 0.07849246 0.00204462 0.02338005
v 0.07937817 0.00193918 0.01910037
v 0.08031308 0.00199128 0.01539459
v 0.08098555 0.00196461 0.01093453
v 0.08152682 0.00201919 0.00713037
v 0.08187126 0.00206137 0.00265392
v 0.08315061 0.00279167 -0.00006803
v 0.08346224 0.00323605 -0.00657774
v 0.08203528 0.00210292 -0.00110105
v 0.08169084 0.00201082 -0.00479044
v 0.08259294 0.00273988 -0.00949645
v 0.00363412 0.00200152 0.08175428
v 0.00802984 0.00206974 0.08159031
v 0.01093298 0.00201485 0.08111479
v 0.01486944 0.00194446 0.08032773
v 0.01997043 0.00198539 0.07931109
v 0.02469418 0.00211657 0.07824527
v 0.02817139 0.00202881 0.07688430
v 0.03379725 0.00206447 0.07467067
v 0.03793053 0.00201640 0.07252263
v 0.04163736 0.00202943 0.07047298
v 0.04608228 0.00201268 0.06763624
v 0.05187216 0.00193763 0.06304501
v 0.05444726 0.00165234 0.05997873
v 0.05892498 0.00174754 0.05594500
v 0.06218896 0.00207935 0.05338703
v 0.06450163 0.00204834 0.05048471
v 0.06742117 0.00199935 0.04635260
v 0.06997987 0.00205361 0.04258124
v 0.07216133 0.00202570 0.03866229
v 0.07449040 0.00206075 0.03405466
v 0.07724592 0.00228619 0.02849599
v 0.07560573 0.00205361 0.03151309
v -0.05679053 0.00137944 0.05661729
v -0.05387099 0.00146937 0.05978197
v -0.06023493 0.00156551 0.05391174
v -0.04980331 0.00144456 0.06309420
v -0.04642452 0.00152271 0.06591453
v -0.04245526 0.00151310 0.06848890
v -0.03714104 0.00143402 0.07126004
v -0.03331939 0.00149666 0.07330970
v -0.02972737 0.00146937 0.07476905
v -0.02570890 0.00136332 0.07588407
v -0.02247772 0.00155930 0.07757298
v -0.01629420 0.00152147 0.07893396
v -0.01537569 0.00199252 0.08037692
v -0.01117680 0.00157636 0.08003257
v -0.00315627 0.00150534 0.08049170
v -0.00003990 0.00140859 0.08022933
v -0.07829344 0.00139278 0.01773939
v -0.07771937 0.00150659 0.02146157
v -0.07647283 0.00154628 0.02606920
v -0.07517707 0.00167528 0.03074242
v -0.07137183 0.00155651 0.03787522
v -0.06942000 0.00149666 0.04089232
v -0.06735336 0.00147340 0.04408979
v -0.06382695 0.00144022 0.04892697
v -0.07386493 0.00006800 0.01316456
v 0.02287357 0.00323605 -0.08062775
v 0.02559629 0.00323605 -0.07977509
v 0.02677723 0.00282237 -0.07884045
v 0.03018883 0.00282020 -0.07761065
v 0.03068088 0.00202291 -0.07597093
v 0.02956555 0.00137820 -0.07456076
v 0.02748251 0.00006800 -0.06977277
v 0.07731153 0.00194539 0.02629876
v 0.07737713 0.00152271 0.02239622
v 0.07891892 0.00141324 0.01436156
v 0.07788559 0.00136735 0.01857565
v 0.08003424 0.00150317 0.00893407
v 0.08052630 0.00150969 0.00083382
v 0.08123158 0.00178258 -0.00006803
v 0.08200247 0.00209145 -0.00006803
v 0.08323262 0.00323605 -0.00885696
v 0.08041149 0.00150255 -0.00400337
v 0.08119878 0.00193081 -0.00856180
v 0.08067392 0.00198198 -0.01341539
v 0.08219929 0.00284470 -0.01330061
v 0.08308500 0.00323605 -0.01029991
v 0.00045215 0.00139278 0.08018014
v 0.00702932 0.00151403 0.08026213
v 0.01393453 0.00149728 0.07929469
v 0.01908473 0.00143557 0.07803211
v 0.02528465 0.00155713 0.07665473
v 0.02986079 0.00142751 0.07452309
v 0.03542104 0.00143402 0.07206350
v 0.03975114 0.00138037 0.06955472
v 0.04375321 0.00152147 0.06766904
v 0.04880500 0.00168490 0.06473393
v 0.05095365 0.00141231 0.06194640
v 0.04993673 0.00006800 0.05583022
v 0.05236421 0.00006800 0.05356740
v 0.05951545 0.00137944 0.05363299
v 0.06369794 0.00147433 0.04910735
v 0.06732276 0.00143402 0.04376184
v 0.07111160 0.00143154 0.03725213
v 0.07350628 0.00150659 0.03280847
v 0.07611419 0.00194756 0.02961101
v -0.05574081 0.00006800 0.05018957
v -0.05247682 0.00006800 0.05356740
v -0.04881920 0.00006800 0.05692883
v -0.04493194 0.00006800 0.06002792
v -0.04061824 0.00006800 0.06304501
v -0.03659977 0.00006800 0.06543902
v -0.03217126 0.00006800 0.06773463
v -0.02759512 0.00006800 0.06970230
v -0.02447876 0.00006800 0.07085011
v -0.02132959 0.00006800 0.07186674
v -0.01650743 0.00006800 0.07312932
v -0.01160325 0.00006800 0.07404758
v -0.00701072 0.00136828 0.07980301
v -0.00171290 0.00006800 0.07493303
v -0.07320885 0.00006800 0.01641122
v -0.07189669 0.00006800 0.02152716
v -0.07038772 0.00006800 0.02597082
v -0.07276599 0.00125881 0.03259531
v -0.06697612 0.00006800 0.03382510
v -0.06471266 0.00006800 0.03794082
v -0.06190793 0.00006800 0.04238447
v -0.05911960 0.00006800 0.04615584
v 0.02725288 0.00323605 -0.07921758
v 0.02925392 0.00323605 -0.07849610
v 0.03066448 0.00323605 -0.07797139
v 0.03446972 0.00281989 -0.07582335
v 0.03396127 0.00205610 -0.07464275
v 0.03320678 0.00149604 -0.07339656
v 0.03179621 0.00006800 -0.06793627
v 0.07545811 0.00151837 0.02815165
v 0.07134123 0.00006800 0.02282254
v 0.07373591 0.00006800 0.01316456
v 0.07450680 0.00006800 0.00795023
v 0.07278460 0.00006800 0.01775579
v 0.07483484 0.00006800 0.00327701
v 0.08050990 0.00150783 -0.00006803
v 0.07490044 0.00006800 -0.00006803
v 0.07491684 0.00006800 -0.00198650
v 0.07985382 0.00149976 -0.01015234
v 0.07445759 0.00006800 -0.00861100
v 0.07883690 0.00138192 -0.01443202
v 0.07973901 0.00197361 -0.01807221
v 0.08111677 0.00266794 -0.01764588
v 0.08198607 0.00323605 -0.01699000
v 0.08244532 0.00323605 -0.01464519
v 0.08277337 0.00323605 -0.01251354
v 0.00353571 0.00006800 0.07486743
v -0.00003990 0.00006800 0.07491662
v 0.00986685 0.00006800 0.07429353
v 0.01477102 0.00006800 0.07345727
v 0.01988842 0.00006800 0.07226028
v 0.02225030 0.00126532 0.07642517
v 0.02592433 0.00006800 0.07030900
v 0.03053327 0.00006800 0.06840692
v 0.03501099 0.00006800 0.06624248
v 0.03932469 0.00006800 0.06375010
v 0.04209661 0.00006800 0.06194640
v 0.04611508 0.00006800 0.05902769
v 0.05600544 0.00006800 0.04974684
v 0.05899059 0.00006800 0.04613944
v 0.06099162 0.00006800 0.04348309
v 0.06376354 0.00006800 0.03936738
v 0.06620743 0.00006800 0.03503850
v 0.06852010 0.00006800 0.03029969
v 0.07383432 0.00126532 0.02970939
v -0.00640385 0.00006800 0.07468706
v -0.06917397 0.00006800 0.02903710
v 0.03320678 0.00323605 -0.07690557
v 0.03497818 0.00323605 -0.07615130
v 0.04006278 0.00282237 -0.07301942
v 0.03832418 0.00202322 -0.07242912
v 0.03701202 0.00143433 -0.07133050
v 0.03766810 0.00006800 -0.06485358
v 0.07025870 0.00006800 0.02595442
v 0.07340787 0.00006800 -0.01516990
v 0.07827924 0.00146937 -0.01844935
v 0.07911574 0.00209858 -0.02172880
v 0.08044429 0.00293990 -0.02205675
v 0.08100196 0.00323605 -0.02120409
v 0.03788132 0.00323605 -0.07469194
v 0.04071886 0.00323605 -0.07323259
v 0.04396643 0.00323605 -0.07129770
v 0.04536060 0.00293184 -0.07001872
v 0.04249026 0.00202788 -0.07005152
v 0.04234264 0.00151372 -0.06857576
v 0.04209661 0.00006800 -0.06204966
v 0.07229254 0.00006800 -0.01972834
v 0.07645863 0.00139216 -0.02420479
v 0.07757396 0.00198818 -0.02597569
v 0.07804961 0.00281989 -0.02889440
v 0.07923055 0.00323605 -0.02695953
v 0.08057551 0.00323605 -0.02284382
v 0.04559022 0.00323605 -0.07029747
v 0.04659074 0.00323605 -0.06962518
v 0.04946108 0.00281989 -0.06695243
v 0.04613149 0.00202788 -0.06772310
v 0.04631191 0.00152209 -0.06598499
v 0.04969070 0.00144425 -0.06318106
v 0.04590186 0.00006800 -0.05929492
v 0.07075076 0.00006800 -0.02474590
v 0.07572054 0.00151868 -0.02756623
v 0.07662264 0.00202788 -0.02891080
v 0.07803321 0.00323605 -0.03038655
v 0.07854167 0.00323605 -0.02904198
v 0.07501526 0.00203873 -0.03294453
v 0.07572054 0.00278671 -0.03446947
v 0.04929705 0.00323605 -0.06770671
v 0.04865738 0.00198787 -0.06580463
v 0.05060921 0.00323605 -0.06673927
v 0.05408641 0.00282237 -0.06327945
v 0.05223300 0.00207253 -0.06324665
v 0.04993673 0.00006800 -0.05590068
v 0.05374198 0.00146937 -0.05986882
v 0.06904496 0.00006800 -0.02912396
v 0.07391633 0.00152209 -0.03210826
v 0.07693428 0.00323605 -0.03305930
v 0.07160366 0.00151651 -0.03706024
v 0.07280100 0.00204679 -0.03761774
v 0.07608138 0.00323605 -0.03499418
v 0.07252217 0.00281989 -0.04089720
v 0.07339147 0.00323605 -0.04037248
v 0.05323352 0.00323605 -0.06464042
v 0.05661231 0.00201082 -0.05918014
v 0.05452927 0.00323605 -0.06359100
v 0.05552978 0.00323605 -0.06268915
v 0.05881017 0.00281989 -0.05891777
v 0.05667792 0.00137975 -0.05670415
v 0.05334833 0.00006800 -0.05268683
v 0.06684711 0.00006800 -0.03391196
v 0.06929099 0.00149604 -0.04097918
v 0.07040632 0.00202694 -0.04186463
v 0.06359952 0.00006800 -0.03970019
v 0.06932379 0.00282237 -0.04604593
v 0.07011108 0.00323605 -0.04579998
v 0.07180048 0.00323605 -0.04304523
v 0.06063078 0.00205578 -0.05516280
v 0.06008952 0.00156582 -0.05398221
v 0.05818689 0.00323605 -0.06022956
v 0.05923662 0.00323605 -0.05919653
v 0.05979428 0.00323605 -0.05860623
v 0.06217256 0.00282020 -0.05534317
v 0.05690755 0.00006800 -0.04878427
v 0.06724075 0.00147371 -0.04416025
v 0.06843809 0.00200896 -0.04489813
v 0.05984349 0.00006800 -0.04514408
v 0.06906136 0.00323605 -0.04732491
v 0.06578098 0.00204710 -0.04886626
v 0.06578098 0.00282237 -0.05099791
v 0.06697832 0.00323605 -0.05024363
v 0.06338630 0.00204927 -0.05193255
v 0.06369794 0.00144084 -0.04899744
v 0.06207415 0.00323605 -0.05617943
v 0.06333709 0.00323605 -0.05478567
v 0.06533813 0.00323605 -0.05237527
v 0.06615822 0.00323605 -0.05134225
f 1 2 7
f 1 7 66
f 1 66 108
f 1 108 215
f 1 215 333
f 1 333 417
f 1 417 483
f 1 483 488
f 1 488 553
f 1 553 552
f 1 552 551
f 1 551 586
f 1 586 599
f 1 599 598
f 1 598 611
f 1 611 610
f 1 610 623
f 1 623 626
f 1 626 628
f 1 628 642
f 1 642 641
f 1 641 653
f 1 653 656
f 1 656 662
f 1 662 661
f 1 661 660
f 1 660 659
f 1 659 647
f 1 647 646
f 1 646 645
f 1 645 632
f 1 632 631
f 1 631 629
f 1 629 616
f 1 616 614
f 1 614 601
f 1 601 600
f 1 600 589
f 1 589 588
f 1 588 587
f 1 587 576
f 1 576 575
f 1 575 532
f 1 532 531
f 1 531 530
f 1 530 469
f 1 469 468
f 1 468 404
f 1 404 403
f 1 403 308
f 1 308 307
f 1 307 191
f 1 191 97
f 1 97 96
f 1 96 58
f 1 58 3
f 1 3 4
f 1 4 5
f 1 5 6
f 1 6 2
f 2 6 8
f 2 8 9
f 2 9 10
f 2 10 11
f 2 11 12
f 2 12 13
f 2 13 14
f 2 14 15
f 2 15 16
f 2 16 17
f 2 17 18
f 2 18 19
f 2 19 20
f 2 20 21
f 2 21 22
f 2 22 23
f 2 23 24
f 2 24 25
f 2 25 26
f 2 26 27
f 2 27 28
f 2 28 29
f 2 29 30
f 2 30 31
f 2 31 32
f 2 32 33
f 2 33 34
f 2 34 35
f 2 35 36
f 2 36 37
f 2 37 38
f 2 38 39
f 2 39 40
f 2 40 41
f 2 41 42
f 2 42 43
f 2 43 44
f 2 44 45
f 2 45 46
f 2 46 47
f 2 47 48
f 2 48 49
f 2 49 50
f 2 50 51
f 2 51 52
f 2 52 53
f 2 53 54
f 2 54 55
f 2 55 56
f 2 56 57
f 2 57 7
f 3 58 59
f 3 59 4
f 4 60 61
f 4 61 5
f 4 59 62
f 4 62 60
f 5 63 64
f 5 64 65
f 5 65 6
f 5 61 63
f 6 65 8
f 7 57 67
f 7 67 66
f 8 65 9
f 9 65 68
f 9 68 10
f 10 68 11
f 11 68 69
f 11 69 12
f 12 69 13
f 13 69 14
f 14 70 15
f 14 69 70
f 15 70 16
f 16 71 17
f 16 70 71
f 17 71 18
f 18 72 19
f 18 71 72
f 19 72 20
f 20 72 21
f 21 73 22
f 21 72 73
f 22 73 74
f 22 74 23
f 23 74 24
f 24 74 75
f 24 75 25
f 25 75 26
f 26 75 76
f 26 76 27
f 27 76 77
f 27 77 28
f 28 77 29
f 29 77 30
f 30 77 78
f 30 78 79
f 30 79 31
f 31 79 32
f 32 79 80
f 32 80 33
f 33 80 81
f 33 81 34
f 34 81 35
f 35 81 82
f 35 82 36
f 36 82 83
f 36 83 37
f 37 83 38
f 38 83 39
f 39 84 40
f 39 83 84
f 40 84 85
f 40 85 41
f 41 85 42
f 42 85 43
f 43 86 44
f 43 85 86
f 44 86 45
f 45 86 46
f 46 86 87
f 46 87 47
f 47 87 88
f 47 88 48
f 48 88 49
f 49 88 89
f 49 89 50
f 50 89 51
f 51 89 52
f 52 89 90
f 52 90 91
f 52 91 53
f 53 91 54
f 54 91 55
f 55 91 92
f 55 92 56
f 56 92 57
f 57 93 67
f 57 92 94
f 57 94 95
f 57 95 93
f 58 96 59
f 59 96 97
f 59 97 98
f 59 98 99
f 59 99 62
f 60 100 101
f 60 101 102
f 60 102 63
f 60 63 61
f 60 62 100
f 62 99 103
f 62 103 104
f 62 104 105
f 62 105 100
f 63 102 64
f 64 106 107
f 64 107 65
f 64 102 106
f 65 107 68
f 66 67 109
f 66 109 110
f 66 110 111
f 66 111 112
f 66 112 113
f 66 113 114
f 66 114 115
f 66 115 116
f 66 116 117
f 66 117 118
f 66 118 119
f 66 119 120
f 66 120 121
f 66 121 122
f 66 122 123
f 66 123 124
f 66 124 125
f 66 125 126
f 66 126 127
f 66 127 128
f 66 128 129
f 66 129 130
f 66 130 131
f 66 131 132
f 66 132 133
f 66 133 216
f 66 216 108
f 67 93 134
f 67 134 135
f 67 135 136
f 67 136 137
f 67 137 138
f 67 138 139
f 67 139 140
f 67 140 141
f 67 141 142
f 67 142 143
f 67 143 144
f 67 144 145
f 67 145 146
f 67 146 147
f 67 147 148
f 67 148 149
f 67 149 150
f 67 150 151
f 67 151 152
f 67 152 153
f 67 153 154
f 67 154 155
f 67 155 156
f 67 156 157
f 67 157 158
f 67 158 159
f 67 159 109
f 68 160 69
f 68 107 161
f 68 161 160
f 69 162 70
f 69 160 162
f 70 163 71
f 70 162 163
f 71 163 164
f 71 164 72
f 72 165 73
f 72 164 165
f 73 165 166
f 73 166 74
f 74 166 167
f 74 167 168
f 74 168 75
f 75 168 76
f 76 168 169
f 76 169 78
f 76 78 77
f 78 169 79
f 79 170 171
f 79 171 80
f 79 169 172
f 79 172 170
f 80 171 81
f 81 171 173
f 81 173 82
f 82 173 174
f 82 174 83
f 83 175 84
f 83 174 175
f 84 176 85
f 84 175 176
f 85 177 86
f 85 176 177
f 86 177 178
f 86 178 87
f 87 178 179
f 87 179 180
f 87 180 88
f 88 180 181
f 88 181 89
f 89 181 182
f 89 182 90
f 90 182 183
f 90 183 184
f 90 184 91
f 91 184 92
f 92 184 185
f 92 185 186
f 92 186 94
f 93 95 134
f 94 186 187
f 94 187 188
f 94 188 95
f 95 189 135
f 95 135 134
f 95 188 190
f 95 190 189
f 97 191 192
f 97 192 98
f 98 192 193
f 98 193 99
f 99 193 103
f 100 105 194
f 100 194 101
f 101 195 196
f 101 196 106
f 101 106 102
f 101 194 195
f 103 193 197
f 103 197 198
f 103 198 199
f 103 199 104
f 104 200 201
f 104 201 105
f 104 199 202
f 104 202 200
f 105 201 203
f 105 203 194
f 106 196 204
f 106 204 161
f 106 161 107
f 108 205 206
f 108 206 207
f 108 207 208
f 108 208 209
f 108 209 210
f 108 210 211
f 108 211 212
f 108 212 213
f 108 213 214
f 108 214 215
f 108 216 217
f 108 217 218
f 108 218 219
f 108 219 220
f 108 220 221
f 108 221 222
f 108 222 223
f 108 223 224
f 108 224 225
f 108 225 226
f 108 226 227
f 108 227 228
f 108 228 229
f 108 229 230
f 108 230 231
f 108 231 232
f 108 232 233
f 108 233 234
f 108 234 235
f 108 235 236
f 108 236 237
f 108 237 238
f 108 238 239
f 108 239 240
f 108 240 241
f 108 241 242
f 108 242 243
f 108 243 244
f 108 244 245
f 108 245 246
f 108 246 247
f 108 247 248
f 108 248 249
f 108 249 250
f 108 250 251
f 108 251 252
f 108 252 253
f 108 253 254
f 108 254 255
f 108 255 256
f 108 256 257
f 108 257 258
f 108 258 259
f 108 259 260
f 108 260 205
f 109 159 261
f 109 261 110
f 110 261 262
f 110 262 111
f 111 262 263
f 111 263 112
f 112 263 113
f 113 263 114
f 114 263 115
f 115 263 264
f 115 264 116
f 116 264 117
f 117 264 265
f 117 265 266
f 117 266 118
f 118 266 119
f 119 266 120
f 120 266 121
f 121 266 267
f 121 267 122
f 122 267 268
f 122 268 123
f 123 268 124
f 124 268 125
f 125 268 269
f 125 269 126
f 126 269 270
f 126 270 127
f 127 270 128
f 128 270 129
f 129 270 271
f 129 271 130
f 130 271 272
f 130 272 131
f 131 272 273
f 131 273 132
f 132 273 133
f 133 273 216
f 135 189 136
f 136 189 274
f 136 274 137
f 137 274 138
f 138 274 139
f 139 274 275
f 139 275 276
f 139 276 140
f 140 276 141
f 141 276 142
f 142 276 277
f 142 277 143
f 143 277 144
f 144 277 278
f 144 278 145
f 145 278 146
f 146 278 147
f 147 278 279
f 147 279 148
f 148 279 280
f 148 280 149
f 149 280 150
f 150 280 151
f 151 280 281
f 151 281 152
f 152 281 153
f 153 281 154
f 154 281 282
f 154 282 155
f 155 282 283
f 155 283 156
f 156 283 157
f 157 283 261
f 157 261 158
f 158 261 159
f 160 161 204
f 160 204 284
f 160 284 162
f 162 284 285
f 162 285 163
f 163 285 164
f 164 286 165
f 164 285 286
f 165 286 166
f 166 287 167
f 166 286 287
f 167 287 288
f 167 288 289
f 167 289 168
f 168 289 290
f 168 290 169
f 169 290 172
f 170 291 292
f 170 292 171
f 170 172 291
f 171 292 173
f 172 290 293
f 172 293 291
f 173 292 174
f 174 292 294
f 174 294 175
f 175 295 176
f 175 294 295
f 176 295 296
f 176 296 177
f 177 296 178
f 178 296 179
f 179 296 297
f 179 297 180
f 180 297 298
f 180 298 181
f 181 298 299
f 181 299 182
f 182 299 300
f 182 300 183
f 183 300 301
f 183 301 184
f 184 301 185
f 185 301 302
f 185 302 186
f 186 302 303
f 186 303 187
f 187 303 188
f 188 303 304
f 188 304 190
f 189 190 305
f 189 305 274
f 190 304 306
f 190 306 305
f 191 307 192
f 192 307 308
f 192 308 309
f 192 309 310
f 192 310 193
f 193 310 197
f 194 203 195
f 195 203 201
f 195 201 196
f 196 311 204
f 196 201 311
f 197 310 312
f 197 312 198
f 198 312 313
f 198 313 314
f 198 314 199
f 199 314 409
f 199 409 474
f 199 474 536
f 199 536 580
f 199 580 593
f 199 593 606
f 199 606 619
f 199 619 635
f 199 635 649
f 199 649 652
f 199 652 639
f 199 639 636
f 199 636 621
f 199 621 607
f 199 607 594
f 199 594 582
f 199 582 547
f 199 547 545
f 199 545 544
f 199 544 542
f 199 542 540
f 199 540 539
f 199 539 541
f 199 541 538
f 199 538 581
f 199 581 571
f 199 571 570
f 199 570 569
f 199 569 568
f 199 568 567
f 199 567 566
f 199 566 501
f 199 501 500
f 199 500 565
f 199 565 564
f 199 564 563
f 199 563 562
f 199 562 561
f 199 561 560
f 199 560 558
f 199 558 557
f 199 557 556
f 199 556 554
f 199 554 555
f 199 555 521
f 199 521 573
f 199 573 519
f 199 519 518
f 199 518 517
f 199 517 516
f 199 516 515
f 199 515 514
f 199 514 513
f 199 513 512
f 199 512 511
f 199 511 510
f 199 510 509
f 199 509 508
f 199 508 529
f 199 529 528
f 199 528 527
f 199 527 526
f 199 526 574
f 199 574 524
f 199 524 523
f 199 523 522
f 199 522 467
f 199 467 402
f 199 402 400
f 199 400 315
f 199 315 201
f 199 201 200
f 199 200 202
f 201 315 316
f 201 316 317
f 201 317 318
f 201 318 319
f 201 319 320
f 201 320 321
f 201 321 322
f 201 322 323
f 201 323 324
f 201 324 311
f 204 311 284
f 205 260 325
f 205 325 206
f 206 325 326
f 206 326 207
f 207 326 327
f 207 327 208
f 208 327 209
f 209 327 328
f 209 328 210
f 210 328 211
f 211 328 212
f 212 328 329
f 212 329 213
f 213 329 214
f 214 329 330
f 214 330 331
f 214 331 332
f 214 332 215
f 215 332 333
f 216 273 334
f 216 334 335
f 216 335 217
f 217 335 218
f 218 335 336
f 218 336 219
f 219 336 220
f 220 336 337
f 220 337 221
f 221 337 222
f 222 337 223
f 223 337 338
f 223 338 224
f 224 338 339
f 224 339 225
f 225 339 226
f 226 339 340
f 226 340 227
f 227 340 228
f 228 340 341
f 228 341 229
f 229 341 230
f 230 341 231
f 231 341 342
f 231 342 232
f 232 342 233
f 233 342 343
f 233 343 234
f 234 343 344
f 234 344 235
f 235 344 236
f 236 344 237
f 237 344 238
f 238 344 345
f 238 345 346
f 238 346 239
f 239 346 240
f 240 346 241
f 241 346 242
f 242 346 347
f 242 347 348
f 242 348 243
f 243 348 349
f 243 349 244
f 244 349 350
f 244 350 245
f 245 350 246
f 246 350 351
f 246 351 247
f 247 351 248
f 248 351 249
f 249 351 250
f 250 351 352
f 250 352 251
f 251 352 353
f 251 353 252
f 252 353 253
f 253 353 254
f 254 353 354
f 254 354 255
f 255 354 355
f 255 355 256
f 256 355 257
f 257 355 258
f 258 355 356
f 258 356 259
f 259 356 260
f 260 356 325
f 261 283 357
f 261 357 358
f 261 358 262
f 262 359 360
f 262 360 263
f 262 358 359
f 263 360 361
f 263 361 264
f 264 361 362
f 264 362 265
f 265 363 364
f 265 364 266
f 265 362 363
f 266 364 365
f 266 365 267
f 267 366 268
f 267 365 366
f 268 366 367
f 268 367 368
f 268 368 269
f 269 368 270
f 270 368 369
f 270 369 271
f 271 369 370
f 271 370 272
f 272 370 371
f 272 371 273
f 273 371 372
f 273 372 373
f 273 373 334
f 274 305 374
f 274 374 275
f 275 374 375
f 275 375 276
f 276 375 376
f 276 376 377
f 276 377 277
f 277 377 378
f 277 378 278
f 278 378 379
f 278 379 279
f 279 379 380
f 279 380 280
f 280 380 381
f 280 381 382
f 280 382 281
f 281 382 383
f 281 383 282
f 282 384 283
f 282 383 384
f 283 384 357
f 284 324 385
f 284 385 285
f 284 311 324
f 285 385 323
f 285 323 386
f 285 386 286
f 286 386 287
f 287 386 322
f 287 322 321
f 287 321 288
f 288 321 320
f 288 320 289
f 289 318 290
f 289 320 319
f 289 319 318
f 290 318 293
f 291 293 316
f 291 316 387
f 291 387 388
f 291 388 292
f 292 388 389
f 292 389 294
f 293 318 317
f 293 317 316
f 294 389 390
f 294 390 295
f 295 390 391
f 295 391 392
f 295 392 296
f 296 393 297
f 296 392 393
f 297 393 394
f 297 394 395
f 297 395 298
f 298 395 299
f 299 395 396
f 299 396 300
f 300 396 397
f 300 397 301
f 301 397 302
f 302 398 303
f 302 397 399
f 302 399 398
f 303 398 304
f 304 398 399
f 304 399 400
f 304 400 306
f 305 306 401
f 305 401 374
f 306 400 402
f 306 402 401
f 308 403 309
f 309 403 404
f 309 404 405
f 309 405 312
f 309 312 310
f 312 405 406
f 312 406 313
f 313 406 407
f 313 407 408
f 313 408 314
f 314 408 409
f 315 400 399
f 315 399 397
f 315 397 396
f 315 396 395
f 315 395 394
f 315 394 392
f 315 392 391
f 315 391 390
f 315 390 389
f 315 389 388
f 315 388 387
f 315 387 316
f 322 386 323
f 323 385 324
f 325 356 410
f 325 410 411
f 325 411 326
f 326 411 412
f 326 412 327
f 327 412 413
f 327 413 328
f 328 413 414
f 328 414 329
f 329 414 415
f 329 415 330
f 330 415 416
f 330 416 331
f 331 416 332
f 332 417 333
f 332 416 418
f 332 418 419
f 332 419 420
f 332 420 417
f 334 373 335
f 335 421 422
f 335 422 336
f 335 373 421
f 336 422 337
f 337 422 423
f 337 423 424
f 337 424 338
f 338 424 425
f 338 425 339
f 339 426 340
f 339 425 426
f 340 427 341
f 340 426 427
f 341 428 342
f 341 427 428
f 342 429 343
f 342 428 429
f 343 429 430
f 343 430 431
f 343 431 344
f 344 431 345
f 345 431 432
f 345 432 347
f 345 347 346
f 347 432 348
f 348 432 433
f 348 433 434
f 348 434 349
f 349 434 435
f 349 435 350
f 350 435 436
f 350 436 351
f 351 437 352
f 351 436 437
f 352 438 353
f 352 437 438
f 353 439 354
f 353 438 439
f 354 439 440
f 354 440 355
f 355 441 356
f 355 440 442
f 355 442 441
f 356 441 410
f 357 443 444
f 357 444 358
f 357 384 445
f 357 445 443
f 358 444 446
f 358 446 359
f 359 446 447
f 359 447 360
f 360 447 448
f 360 448 361
f 361 448 362
f 362 448 449
f 362 449 450
f 362 450 363
f 363 450 364
f 364 451 365
f 364 450 451
f 365 451 452
f 365 452 453
f 365 453 366
f 366 453 367
f 367 454 455
f 367 455 368
f 367 453 454
f 368 455 369
f 369 456 370
f 369 455 456
f 370 456 371
f 371 457 373
f 371 373 372
f 371 456 457
f 373 458 421
f 373 457 458
f 374 401 459
f 374 459 375
f 375 459 460
f 375 460 376
f 376 460 461
f 376 461 377
f 377 461 462
f 377 462 378
f 378 462 379
f 379 462 463
f 379 463 380
f 380 463 464
f 380 464 465
f 380 465 381
f 381 465 382
f 382 466 383
f 382 465 466
f 383 445 384
f 383 466 445
f 392 394 393
f 401 402 467
f 401 467 459
f 404 468 405
f 405 468 469
f 405 469 470
f 405 470 406
f 406 470 407
f 407 470 471
f 407 471 472
f 407 472 473
f 407 473 408
f 408 473 474
f 408 474 409
f 410 441 475
f 410 475 476
f 410 476 411
f 411 477 412
f 411 476 478
f 411 478 477
f 412 477 413
f 413 477 479
f 413 479 414
f 414 479 480
f 414 480 415
f 415 480 481
f 415 481 482
f 415 482 416
f 416 482 418
f 417 420 483
f 418 482 481
f 418 481 484
f 418 484 419
f 419 485 420
f 419 484 485
f 420 485 486
f 420 486 487
f 420 487 488
f 420 488 483
f 421 458 489
f 421 489 490
f 421 490 422
f 422 490 423
f 423 490 491
f 423 491 424
f 424 491 492
f 424 492 425
f 425 492 493
f 425 493 426
f 426 493 427
f 427 493 494
f 427 494 428
f 428 494 495
f 428 495 429
f 429 496 430
f 429 495 496
f 430 496 497
f 430 497 431
f 431 498 432
f 431 497 498
f 432 498 433
f 433 498 499
f 433 499 500
f 433 500 501
f 433 501 502
f 433 502 434
f 434 502 503
f 434 503 435
f 435 503 436
f 436 503 437
f 437 503 504
f 437 504 438
f 438 505 439
f 438 504 505
f 439 505 506
f 439 506 440
f 440 506 442
f 441 507 475
f 441 442 507
f 442 506 507
f 443 508 509
f 443 509 444
f 443 445 508
f 444 509 510
f 444 510 446
f 445 466 508
f 446 510 511
f 446 511 447
f 447 511 512
f 447 512 448
f 448 512 513
f 448 513 449
f 449 513 514
f 449 514 450
f 450 514 451
f 451 514 515
f 451 515 452
f 452 516 517
f 452 517 453
f 452 515 516
f 453 517 518
f 453 518 454
f 454 518 519
f 454 519 456
f 454 456 455
f 456 519 520
f 456 520 457
f 457 520 521
f 457 521 458
f 458 521 489
f 459 467 522
f 459 522 523
f 459 523 460
f 460 523 461
f 461 523 524
f 461 524 525
f 461 525 462
f 462 525 463
f 463 525 526
f 463 526 527
f 463 527 464
f 464 527 465
f 465 527 528
f 465 528 466
f 466 528 529
f 466 529 508
f 469 530 470
f 470 530 471
f 471 531 532
f 471 532 533
f 471 533 472
f 471 530 531
f 472 533 534
f 472 534 535
f 472 535 473
f 473 535 536
f 473 536 474
f 475 507 537
f 475 537 476
f 476 537 538
f 476 538 478
f 477 478 539
f 477 539 540
f 477 540 479
f 478 538 541
f 478 541 539
f 479 540 542
f 479 542 480
f 480 543 481
f 480 542 544
f 480 544 545
f 480 545 543
f 481 543 484
f 484 546 485
f 484 543 545
f 484 545 547
f 484 547 546
f 485 546 486
f 486 546 548
f 486 548 549
f 486 549 550
f 486 550 487
f 487 550 551
f 487 551 552
f 487 552 553
f 487 553 488
f 489 554 490
f 489 521 555
f 489 555 554
f 490 556 491
f 490 554 556
f 491 557 492
f 491 556 557
f 492 558 559
f 492 559 493
f 492 557 558
f 493 560 494
f 493 559 558
f 493 558 560
f 494 561 495
f 494 560 561
f 495 561 562
f 495 562 496
f 496 562 563
f 496 563 497
f 497 563 564
f 497 564 499
f 497 499 498
f 499 564 565
f 499 565 500
f 501 566 502
f 502 566 567
f 502 567 503
f 503 567 568
f 503 568 504
f 504 568 569
f 504 569 505
f 505 569 570
f 505 570 571
f 505 571 506
f 506 572 537
f 506 537 507
f 506 571 572
f 519 573 520
f 520 573 521
f 524 574 525
f 525 574 526
f 532 575 533
f 533 576 577
f 533 577 578
f 533 578 534
f 533 575 576
f 534 578 535
f 535 578 579
f 535 579 536
f 536 579 580
f 537 572 581
f 537 581 538
f 546 547 548
f 547 582 548
f 548 583 549
f 548 582 583
f 549 583 584
f 549 584 550
f 550 584 585
f 550 585 551
f 551 585 586
f 571 581 572
f 576 587 577
f 577 587 588
f 577 588 589
f 577 589 590
f 577 590 591
f 577 591 578
f 578 591 592
f 578 592 579
f 579 592 580
f 580 592 593
f 582 594 583
f 583 595 584
f 583 594 595
f 584 595 596
f 584 596 585
f 585 596 597
f 585 597 598
f 585 598 599
f 585 599 586
f 589 600 590
f 590 600 601
f 590 601 602
f 590 602 603
f 590 603 591
f 591 603 592
f 592 603 604
f 592 604 593
f 593 604 605
f 593 605 606
f 594 607 595
f 595 608 596
f 595 607 608
f 596 608 609
f 596 609 597
f 597 610 611
f 597 611 598
f 597 609 612
f 597 612 613
f 597 613 610
f 601 614 602
f 602 615 603
f 602 614 616
f 602 616 617
f 602 617 618
f 602 618 615
f 603 615 604
f 604 615 605
f 605 619 606
f 605 615 618
f 605 618 620
f 605 620 619
f 607 621 608
f 608 621 622
f 608 622 609
f 609 622 612
f 610 613 623
f 612 622 624
f 612 624 625
f 612 625 613
f 613 626 623
f 613 625 627
f 613 627 628
f 613 628 626
f 616 629 617
f 617 630 618
f 617 629 631
f 617 631 632
f 617 632 633
f 617 633 630
f 618 630 620
f 619 620 634
f 619 634 635
f 620 630 634
f 621 636 622
f 622 636 624
f 624 637 638
f 624 638 625
f 624 636 639
f 624 639 637
f 625 638 627
f 627 638 640
f 627 640 641
f 627 641 642
f 627 642 628
f 630 633 643
f 630 643 644
f 630 644 634
f 632 645 633
f 633 646 647
f 633 647 648
f 633 648 643
f 633 645 646
f 634 649 635
f 634 644 649
f 637 639 650
f 637 650 638
f 638 650 651
f 638 651 640
f 639 652 650
f 640 653 641
f 640 651 654
f 640 654 655
f 640 655 656
f 640 656 653
f 643 648 657
f 643 657 644
f 644 657 658
f 644 658 649
f 647 659 648
f 648 659 660
f 648 660 661
f 648 661 655
f 648 655 657
f 649 658 652
f 650 652 658
f 650 658 654
f 650 654 651
f 654 658 657
f 654 657 655
f 655 661 662
f 655 662 656

