# https://github.com/mikedh/trimesh
v -0.00005194 0.02306605 -0.09038771
v -0.00005194 0.00318339 -0.07895956
v -0.00005194 0.02306605 -0.09255815
v -0.02849202 0.02306605 -0.08581904
v -0.02849202 0.00318339 -0.07364088
v -0.00005194 0.00318339 -0.08373935
v -0.00005194 0.02304075 -0.09254889
v -0.00006586 0.02306605 -0.09256000
v -0.02849202 0.02306605 -0.08803022
v -0.02849202 0.00318339 -0.07878178
v -0.00229596 0.00318339 -0.08373194
v -0.00005194 0.00381604 -0.08451715
v -0.00005194 0.00659385 -0.08653018
v -0.00102639 0.00658996 -0.08653388
v -0.00406668 0.01596288 -0.08986361
v -0.00557847 0.02306605 -0.09237481
v -0.02849202 0.01650209 -0.08553755
v -0.02549906 0.02306605 -0.08899507
v -0.02849202 0.00350264 -0.07921328
v -0.02781825 0.00366810 -0.07968922
v -0.02749529 0.00318339 -0.07915402
v -0.00316183 0.00318339 -0.08371713
v -0.00005194 0.00387638 -0.08458567
v -0.00317854 0.00383940 -0.08449123
v -0.00005194 0.00544535 -0.08581719
v -0.00338457 0.00523512 -0.08566533
v -0.00462351 0.00656270 -0.08640240
v -0.00792551 0.00666977 -0.08622462
v -0.00811762 0.01533802 -0.08936360
v -0.01111893 0.02306605 -0.09188961
v -0.02800758 0.00666004 -0.08194484
v -0.02849202 0.01127155 -0.08354489
v -0.02013122 0.02306605 -0.09033585
v -0.02057390 0.01562222 -0.08745428
v -0.02192143 0.00745425 -0.08406343
v -0.02400676 0.00658801 -0.08315229
v -0.02849202 0.00371482 -0.07948921
v -0.02767348 0.00496065 -0.08094111
v -0.02357243 0.00385692 -0.08124297
v -0.02287639 0.00318339 -0.08058184
v -0.02509257 0.00318339 -0.07989848
v -0.00672276 0.00318339 -0.08352452
v -0.00005194 0.00474068 -0.08533199
v -0.00775846 0.00395230 -0.08431715
v -0.00631071 0.00490614 -0.08526347
v -0.00005194 0.00492366 -0.08548755
v -0.01170917 0.00499763 -0.08475975
v -0.01139178 0.00658801 -0.08578756
v -0.01218526 0.01434525 -0.08853950
v -0.01652853 0.02306605 -0.09106180
v -0.02849202 0.00499958 -0.08067629
v -0.02849202 0.00643618 -0.08162447
v -0.02849202 0.00666004 -0.08176336
v -0.02849202 0.00742895 -0.08206337
v -0.02377567 0.00505408 -0.08225782
v -0.01658700 0.00659190 -0.08494679
v -0.01946302 0.00677294 -0.08440418
v -0.02094419 0.00618117 -0.08373379
v -0.02849202 0.00470564 -0.08040776
v -0.01997531 0.00367394 -0.08201152
v -0.02118363 0.00318339 -0.08105408
v -0.00764153 0.00318339 -0.08346341
v -0.01204884 0.00385303 -0.08371157
v -0.01549561 0.00496065 -0.08411899
v -0.01368870 0.00660358 -0.08546533
v -0.01632250 0.01461193 -0.08797096
v -0.01884773 0.00517477 -0.08359860
v -0.01520049 0.00376543 -0.08312081
v -0.01830203 0.00318339 -0.08176150
v -0.00849348 0.00318339 -0.08336526
v -0.01210174 0.00318339 -0.08287265
v -0.01620835 0.00318339 -0.08219856
v -0.01351608 0.00318339 -0.08265598
f 1 2 6
f 1 6 12
f 1 12 23
f 1 23 43
f 1 43 46
f 1 46 25
f 1 25 13
f 1 13 7
f 1 7 3
f 1 3 8
f 1 8 16
f 1 16 30
f 1 30 50
f 1 50 33
f 1 33 18
f 1 18 9
f 1 9 4
f 1 4 5
f 1 5 2
f 2 5 10
f 2 10 21
f 2 21 41
f 2 41 40
f 2 40 61
f 2 61 69
f 2 69 72
f 2 72 73
f 2 73 71
f 2 71 70
f 2 70 62
f 2 62 42
f 2 42 22
f 2 22 11
f 2 11 6
f 3 7 8
f 4 9 17
f 4 17 32
f 4 32 54
f 4 54 53
f 4 53 52
f 4 52 51
f 4 51 59
f 4 59 37
f 4 37 19
f 4 19 10
f 4 10 5
f 6 11 12
f 7 13 8
f 8 13 14
f 8 14 15
f 8 15 16
f 9 18 17
f 10 19 20
f 10 20 21
f 11 22 12
f 12 22 24
f 12 24 23
f 13 25 14
f 14 25 26
f 14 26 27
f 14 27 15
f 15 27 16
f 16 27 28
f 16 28 29
f 16 29 30
f 17 18 31
f 17 31 32
f 18 33 34
f 18 34 35
f 18 35 36
f 18 36 31
f 19 37 20
f 20 38 39
f 20 39 40
f 20 40 41
f 20 41 21
f 20 37 38
f 22 42 24
f 23 24 43
f 24 42 44
f 24 44 45
f 24 45 26
f 24 26 46
f 24 46 43
f 25 46 26
f 26 45 27
f 27 45 28
f 28 47 48
f 28 48 30
f 28 30 29
f 28 45 47
f 30 48 49
f 30 49 50
f 31 38 51
f 31 51 52
f 31 52 53
f 31 53 54
f 31 54 32
f 31 36 55
f 31 55 38
f 33 50 56
f 33 56 57
f 33 57 34
f 34 57 35
f 35 57 36
f 36 57 58
f 36 58 55
f 37 59 38
f 38 59 51
f 38 55 39
f 39 55 60
f 39 60 61
f 39 61 40
f 42 62 44
f 44 62 63
f 44 63 47
f 44 47 45
f 47 63 64
f 47 64 65
f 47 65 48
f 48 65 49
f 49 65 50
f 50 65 66
f 50 66 56
f 55 58 67
f 55 67 60
f 56 66 65
f 56 65 64
f 56 64 67
f 56 67 58
f 56 58 57
f 60 67 68
f 60 68 69
f 60 69 61
f 62 70 63
f 63 70 71
f 63 71 68
f 63 68 64
f 64 68 67
f 68 72 69
f 68 71 73
f 68 73 72

