# https://github.com/mikedh/trimesh
v 0.08351829 0.02306800 -0.03964276
v 0.08277435 0.02122574 -0.03964276
v 0.08209940 0.02306800 -0.04252515
v 0.08010455 0.02306800 -0.04175580
v 0.08113348 0.02306606 -0.03964276
v 0.07893464 0.01175820 -0.03964276
v 0.07939361 0.01469533 -0.04112827
v 0.08034753 0.02306800 -0.04575853
v 0.05287567 0.02306800 -0.07329900
v 0.06860345 0.00323605 -0.03964630
v 0.06860645 0.00323605 -0.03964276
v 0.07682581 0.00659055 -0.03964276
v 0.07671182 0.00658861 -0.03987321
v 0.07498995 0.00763690 -0.04385112
v 0.07737777 0.01542136 -0.04534017
v 0.07745876 0.02306800 -0.05054124
v 0.05287567 0.02306800 -0.07585877
v 0.05287567 0.00323605 -0.05904305
v 0.07375705 0.00323605 -0.03964276
v 0.07624686 0.00573057 -0.03964276
v 0.07581789 0.00510743 -0.03964276
v 0.07448599 0.00629354 -0.04357103
v 0.07235616 0.00658667 -0.04732913
v 0.07557490 0.01641529 -0.04897773
v 0.07418901 0.01265894 -0.04858774
v 0.07040331 0.00711664 -0.05056606
v 0.07433301 0.02306800 -0.05500487
v 0.05478352 0.02306800 -0.07455052
v 0.05287567 0.02042594 -0.07469588
v 0.05287567 0.00323605 -0.06496028
v 0.07440500 0.00367866 -0.03964276
v 0.07340008 0.00323605 -0.04036601
v 0.07575189 0.00502007 -0.03964276
v 0.07182220 0.00513072 -0.04654915
v 0.07341808 0.00443381 -0.04294350
v 0.07013033 0.00630907 -0.05030724
v 0.06749354 0.00658085 -0.05406534
v 0.07208918 0.02306800 -0.05791562
v 0.06068706 0.02306800 -0.06981390
v 0.05704835 0.01786153 -0.07038116
v 0.05576445 0.01398871 -0.06961182
v 0.05415657 0.00685457 -0.06758031
v 0.05291167 0.01539613 -0.07243748
v 0.05287567 0.01530295 -0.07241975
v 0.05287567 0.00342047 -0.06526164
v 0.05325664 0.00323605 -0.06465893
v 0.07442300 0.00372525 -0.03974203
v 0.07447399 0.00372719 -0.03964276
v 0.07181620 0.00323605 -0.04307468
v 0.07493296 0.00419115 -0.03964276
v 0.07100326 0.00371166 -0.04555644
v 0.06868145 0.00382425 -0.04918336
v 0.06881643 0.00513072 -0.05089933
v 0.06513272 0.00506472 -0.05547640
v 0.06383082 0.00631101 -0.05810707
v 0.06554369 0.00715934 -0.05675274
v 0.06951838 0.01515929 -0.05652229
v 0.06856745 0.02306800 -0.06208853
v 0.06060607 0.01786153 -0.06733568
v 0.05815526 0.00739812 -0.06444266
v 0.05823026 0.01525830 -0.06816530
v 0.06469175 0.02306800 -0.06609480
v 0.05383859 0.00532679 -0.06675424
v 0.05287567 0.00659055 -0.06840284
v 0.05287567 0.00695551 -0.06858720
v 0.05608542 0.00605282 -0.06543536
v 0.05287567 0.00361460 -0.06557363
v 0.05287567 0.00375631 -0.06580054
v 0.05454654 0.00323605 -0.06360595
v 0.07011533 0.00323605 -0.04582944
v 0.06699558 0.00323605 -0.05025761
v 0.06618864 0.00323605 -0.05136377
v 0.06661160 0.00369419 -0.05174667
v 0.06906841 0.00323605 -0.04735395
v 0.06190197 0.00411933 -0.05795816
v 0.06018010 0.00512102 -0.06087247
v 0.06479374 0.00375437 -0.05411143
v 0.06150000 0.00630907 -0.06057111
v 0.06185097 0.00709917 -0.06073774
v 0.06650661 0.01547184 -0.06021303
v 0.06337786 0.01398095 -0.06274088
v 0.06400780 0.01786153 -0.06410585
v 0.06167699 0.01525830 -0.06505955
v 0.05831725 0.00619260 -0.06355277
v 0.05287567 0.00446099 -0.06658761
v 0.05287567 0.00527438 -0.06744205
v 0.05287567 0.00573446 -0.06779659
v 0.05720733 0.00494048 -0.06348186
v 0.05501450 0.00367866 -0.06392503
v 0.05742032 0.00376602 -0.06190771
v 0.05556046 0.00323605 -0.06269124
v 0.06535770 0.00323605 -0.05238838
v 0.06334786 0.00323605 -0.05480633
v 0.06209395 0.00323605 -0.05619612
v 0.05925317 0.00323605 -0.05921678
v 0.05990413 0.00387473 -0.05964222
v 0.05820926 0.00323605 -0.06024139
f 1 2 3
f 1 3 8
f 1 8 16
f 1 16 27
f 1 27 38
f 1 38 58
f 1 58 62
f 1 62 39
f 1 39 28
f 1 28 17
f 1 17 9
f 1 9 4
f 1 4 5
f 1 5 11
f 1 11 19
f 1 19 31
f 1 31 48
f 1 48 50
f 1 50 33
f 1 33 21
f 1 21 20
f 1 20 12
f 1 12 6
f 1 6 2
f 2 6 7
f 2 7 3
f 3 7 8
f 4 9 5
f 5 10 11
f 5 9 10
f 6 12 13
f 6 13 7
f 7 13 14
f 7 14 8
f 8 14 15
f 8 15 16
f 9 17 29
f 9 29 44
f 9 44 65
f 9 65 64
f 9 64 87
f 9 87 86
f 9 86 85
f 9 85 68
f 9 68 67
f 9 67 45
f 9 45 30
f 9 30 18
f 9 18 10
f 10 18 30
f 10 30 46
f 10 46 69
f 10 69 91
f 10 91 97
f 10 97 95
f 10 95 94
f 10 94 93
f 10 93 92
f 10 92 72
f 10 72 71
f 10 71 74
f 10 74 70
f 10 70 49
f 10 49 32
f 10 32 19
f 10 19 11
f 12 20 13
f 13 20 21
f 13 21 22
f 13 22 14
f 14 22 23
f 14 23 24
f 14 24 16
f 14 16 15
f 16 24 25
f 16 25 26
f 16 26 27
f 17 28 29
f 19 32 31
f 21 33 22
f 22 34 23
f 22 33 35
f 22 35 34
f 23 25 24
f 23 34 36
f 23 36 26
f 23 26 25
f 26 36 37
f 26 37 27
f 27 37 38
f 28 39 40
f 28 40 41
f 28 41 42
f 28 42 43
f 28 43 29
f 29 43 44
f 30 45 46
f 31 32 47
f 31 47 48
f 32 49 47
f 33 50 47
f 33 47 35
f 34 35 51
f 34 51 52
f 34 52 53
f 34 53 36
f 35 47 51
f 36 53 37
f 37 53 54
f 37 54 55
f 37 55 56
f 37 56 57
f 37 57 38
f 38 57 56
f 38 56 58
f 39 59 60
f 39 60 61
f 39 61 40
f 39 62 59
f 40 61 42
f 40 42 41
f 42 63 64
f 42 64 65
f 42 65 43
f 42 61 60
f 42 60 66
f 42 66 63
f 43 65 44
f 45 67 46
f 46 67 68
f 46 68 69
f 47 49 51
f 47 50 48
f 49 70 51
f 51 70 52
f 52 71 72
f 52 72 73
f 52 73 53
f 52 70 74
f 52 74 71
f 53 73 54
f 54 75 76
f 54 76 55
f 54 73 77
f 54 77 75
f 55 76 78
f 55 78 79
f 55 79 56
f 56 79 80
f 56 80 58
f 58 80 79
f 58 79 81
f 58 81 82
f 58 82 62
f 59 62 83
f 59 83 60
f 60 84 66
f 60 83 79
f 60 79 84
f 62 82 79
f 62 79 83
f 63 85 86
f 63 86 87
f 63 87 64
f 63 66 88
f 63 88 89
f 63 89 68
f 63 68 85
f 66 84 88
f 68 89 69
f 69 89 90
f 69 90 91
f 72 92 77
f 72 77 73
f 75 77 93
f 75 93 94
f 75 94 95
f 75 95 96
f 75 96 76
f 76 96 90
f 76 90 88
f 76 88 84
f 76 84 78
f 77 92 93
f 78 84 79
f 79 82 81
f 88 90 89
f 90 96 95
f 90 95 97
f 90 97 91

