# https://github.com/mikedh/trimesh
v -0.07173403 0.00316559 0.03305165
v -0.08415103 0.02306605 0.03305165
v -0.07693734 0.00316559 0.03305165
v -0.07913122 0.00316559 -0.00002515
v -0.09043497 0.02306605 -0.00002515
v -0.08642850 0.02306605 0.03305165
v -0.07700871 0.00321625 0.03305165
v -0.07815050 0.00363709 0.03173065
v -0.07817293 0.00316559 0.03004055
v -0.08375752 0.00316559 -0.00002515
v -0.09256156 0.02306605 -0.00002515
v -0.08670171 0.02306605 0.03236201
v -0.08332323 0.01507586 0.03305165
v -0.07764893 0.00369554 0.03305165
v -0.07956551 0.00496002 0.03137773
v -0.07935142 0.00380465 0.02916959
v -0.07859702 0.00316559 0.02893648
v -0.08428764 0.00355136 -0.00002515
v -0.08373713 0.00316559 0.00201787
v -0.09241476 0.02306605 0.00543045
v -0.09254932 0.02302903 -0.00002515
v -0.08081332 0.00738182 0.03182778
v -0.08850208 0.02306605 0.02710715
v -0.08498494 0.01534863 0.02881020
v -0.08106411 0.00933017 0.03305165
v -0.07841963 0.00450216 0.03305165
v -0.07895179 0.00506913 0.03305165
v -0.07950230 0.00586016 0.03305165
v -0.08005281 0.00619138 0.03226811
v -0.08115178 0.00621086 0.02943185
v -0.08077866 0.00481195 0.02782269
v -0.08098255 0.00379685 0.02426441
v -0.07917403 0.00316559 0.02721076
v -0.08436715 0.00361761 -0.00002515
v -0.08360868 0.00316559 0.00490270
v -0.08658550 0.00745391 0.00716912
v -0.08953988 0.01575389 0.00801417
v -0.09190503 0.02306605 0.01097023
v -0.08916268 0.01388542 0.00347161
v -0.08668133 0.00711100 0.00361084
v -0.08677308 0.00714802 -0.00002515
v -0.08024854 0.00726687 0.03305165
v -0.08211823 0.00655767 0.02727551
v -0.08994155 0.02306605 0.02181991
v -0.08630413 0.01511288 0.02429679
v -0.08344353 0.00736429 0.02409281
v -0.07983872 0.00642323 0.03305165
v -0.08232416 0.00515486 0.02374637
v -0.08308060 0.00497366 0.02036293
v -0.08242815 0.00366437 0.01812565
v -0.08131490 0.00316559 0.02013628
v -0.08067875 0.00316559 0.02257107
v -0.08428356 0.00379296 0.00654747
v -0.08542943 0.00494833 0.00445589
v -0.08563944 0.00503601 -0.00002515
v -0.08337624 0.00316559 0.00810806
v -0.08594935 0.00608812 0.00748642
v -0.08592897 0.00641934 0.00942583
v -0.08632655 0.00745391 0.00978521
v -0.09139530 0.02306605 0.01461269
v -0.08917900 0.01606368 0.01218438
v -0.08675881 0.00711490 -0.00002515
v -0.08625519 0.00616215 0.00327735
v -0.08397365 0.00656157 0.02089392
v -0.09074081 0.02306605 0.01822925
v -0.08730523 0.01520835 0.02056043
v -0.08463017 0.00660638 0.01817421
v -0.08443240 0.00508666 0.01436339
v -0.08344964 0.00432681 0.01639993
v -0.08183686 0.00316559 0.01785368
v -0.08357605 0.00378711 0.01263119
v -0.08239552 0.00316559 0.01496561
v -0.08312545 0.00316559 0.01029030
v -0.08469338 0.00456840 0.00966542
v -0.08569041 0.00511589 -0.00002515
v -0.08491359 0.00515096 0.01148179
v -0.08571896 0.00677783 0.01252111
v -0.08515418 0.00655767 0.01540594
v -0.08845314 0.01589807 0.01630603
v -0.08276252 0.00316559 0.01294525
f 1 2 6
f 1 6 13
f 1 13 25
f 1 25 42
f 1 42 47
f 1 47 28
f 1 28 27
f 1 27 26
f 1 26 14
f 1 14 7
f 1 7 3
f 1 3 9
f 1 9 17
f 1 17 33
f 1 33 52
f 1 52 51
f 1 51 70
f 1 70 72
f 1 72 80
f 1 80 73
f 1 73 56
f 1 56 35
f 1 35 19
f 1 19 10
f 1 10 4
f 1 4 5
f 1 5 2
f 2 5 11
f 2 11 20
f 2 20 38
f 2 38 60
f 2 60 65
f 2 65 44
f 2 44 23
f 2 23 12
f 2 12 6
f 3 7 8
f 3 8 9
f 4 10 18
f 4 18 34
f 4 34 55
f 4 55 75
f 4 75 62
f 4 62 41
f 4 41 21
f 4 21 11
f 4 11 5
f 6 12 13
f 7 14 8
f 8 15 16
f 8 16 17
f 8 17 9
f 8 14 15
f 10 19 18
f 11 21 20
f 12 22 13
f 12 23 24
f 12 24 22
f 13 22 25
f 14 26 15
f 15 26 27
f 15 27 28
f 15 28 29
f 15 29 30
f 15 30 31
f 15 31 16
f 16 31 32
f 16 32 17
f 17 32 33
f 18 19 34
f 19 35 34
f 20 36 37
f 20 37 38
f 20 21 39
f 20 39 40
f 20 40 36
f 21 41 39
f 22 30 29
f 22 29 42
f 22 42 25
f 22 24 43
f 22 43 30
f 23 44 45
f 23 45 46
f 23 46 43
f 23 43 24
f 28 47 29
f 29 47 42
f 30 43 31
f 31 43 48
f 31 48 32
f 32 48 49
f 32 49 50
f 32 50 51
f 32 51 52
f 32 52 33
f 34 35 53
f 34 53 54
f 34 54 55
f 35 56 53
f 36 57 58
f 36 58 59
f 36 59 37
f 36 40 57
f 37 59 38
f 38 59 61
f 38 61 60
f 39 41 40
f 40 41 62
f 40 62 63
f 40 63 57
f 43 46 64
f 43 64 48
f 44 65 66
f 44 66 64
f 44 64 46
f 44 46 45
f 48 64 49
f 49 64 67
f 49 67 68
f 49 68 69
f 49 69 50
f 50 70 51
f 50 69 71
f 50 71 72
f 50 72 70
f 53 56 73
f 53 73 71
f 53 71 74
f 53 74 54
f 54 63 55
f 54 74 57
f 54 57 63
f 55 63 75
f 57 74 76
f 57 76 58
f 58 76 77
f 58 77 59
f 59 77 61
f 60 61 77
f 60 77 78
f 60 78 79
f 60 79 65
f 62 75 63
f 64 66 67
f 65 67 66
f 65 79 67
f 67 79 78
f 67 78 68
f 68 78 76
f 68 76 74
f 68 74 71
f 68 71 69
f 71 80 72
f 71 73 80
f 76 78 77

