# USD → MuJoCo (world-space)
v 0.080045 0.000250 -0.004867
v 0.080106 -0.000250 0.001373
v 0.080045 -0.000250 -0.004867
v 0.080106 0.000250 0.001373
v 0.079863 0.000250 -0.010926
v 0.079863 -0.000250 -0.010926
v 0.079570 0.000250 -0.016639
v 0.079570 -0.000250 -0.016639
v 0.079168 -0.000250 -0.022104
v 0.079168 0.000250 -0.022104
v 0.078663 0.000250 -0.027330
v 0.078663 -0.000250 -0.027330
v 0.078060 0.000250 -0.032324
v 0.078060 -0.000250 -0.032324
v 0.077361 -0.000250 -0.037094
v 0.077361 0.000250 -0.037094
v 0.076573 -0.000250 -0.041649
v 0.076573 0.000250 -0.041649
v 0.075698 0.000250 -0.045997
v 0.075698 -0.000250 -0.045997
v 0.074740 -0.000250 -0.050145
v 0.074740 0.000250 -0.050145
v 0.073703 0.000250 -0.054099
v 0.073703 -0.000250 -0.054099
v 0.072589 0.000250 -0.057869
v 0.072589 -0.000250 -0.057869
v 0.071403 0.000250 -0.061460
v 0.071403 -0.000250 -0.061460
v 0.070146 -0.000250 -0.064879
v 0.070146 0.000250 -0.064879
v 0.068821 0.000250 -0.068133
v 0.068821 -0.000250 -0.068133
v 0.067430 -0.000250 -0.071228
v 0.067430 0.000250 -0.071228
v 0.065975 0.000250 -0.074171
v 0.065975 -0.000250 -0.074171
v 0.064458 -0.000250 -0.076967
v 0.064458 0.000250 -0.076967
v 0.062881 0.000250 -0.079622
v 0.062881 -0.000250 -0.079622
v 0.061243 0.000250 -0.082140
v 0.061243 -0.000250 -0.082140
v 0.059546 -0.000250 -0.084529
v 0.059546 0.000250 -0.084529
v 0.057956 0.000250 -0.086585
v 0.057956 -0.000250 -0.086585
v 0.056307 0.000250 -0.088553
v 0.056307 -0.000250 -0.088553
v 0.054595 0.000250 -0.090443
v 0.054595 -0.000250 -0.090443
v 0.052818 0.000250 -0.092265
v 0.052818 -0.000250 -0.092265
v 0.050975 0.000250 -0.094020
v 0.050975 -0.000250 -0.094020
v 0.049065 0.000250 -0.095707
v 0.049065 -0.000250 -0.095707
v 0.047090 0.000250 -0.097326
v 0.047090 -0.000250 -0.097326
v 0.045049 0.000250 -0.098878
v 0.045049 -0.000250 -0.098878
v 0.042941 0.000250 -0.100362
v 0.042941 -0.000250 -0.100362
v 0.040768 0.000250 -0.101778
v 0.040768 -0.000250 -0.101778
v 0.038529 0.000250 -0.103126
v 0.038529 -0.000250 -0.103126
v 0.036224 0.000250 -0.104407
v 0.036224 -0.000250 -0.104407
v 0.033853 0.000250 -0.105620
v 0.033853 -0.000250 -0.105620
v 0.031416 0.000250 -0.106766
v 0.031416 -0.000250 -0.106766
v 0.028913 0.000250 -0.107844
v 0.028913 -0.000250 -0.107844
v 0.026344 0.000250 -0.108854
v 0.026344 -0.000250 -0.108854
v 0.023709 0.000250 -0.109797
v 0.023709 -0.000250 -0.109797
v 0.021008 0.000250 -0.110672
v 0.021008 -0.000250 -0.110672
v 0.018241 -0.000250 -0.111479
v 0.018241 0.000250 -0.111479
v 0.015408 0.000250 -0.112219
v 0.015408 -0.000250 -0.112219
v 0.011528 0.000250 -0.113100
v 0.011528 -0.000250 -0.113100
v 0.007414 0.000250 -0.113880
v 0.007414 -0.000250 -0.113880
v 0.003124 0.000250 -0.114541
v 0.003124 -0.000250 -0.114541
v -0.001347 -0.000250 -0.115077
v -0.001347 0.000250 -0.115077
v -0.006008 0.000250 -0.115483
v -0.006008 -0.000250 -0.115483
v -0.010866 0.000250 -0.115755
v -0.010866 -0.000250 -0.115755
v -0.014436 0.000250 -0.115864
v -0.014436 -0.000250 -0.115864
v -0.018076 0.000250 -0.115900
v -0.018076 -0.000250 -0.115900
v -0.064440 -0.000250 -0.115900
v -0.064440 0.000250 -0.115900
v -0.064440 -0.000250 0.117282
v -0.064440 0.000250 0.117282
v -0.018076 -0.000250 0.117282
v -0.018076 0.000250 0.117282
v -0.013816 0.000250 0.117221
v -0.013816 -0.000250 0.117221
v -0.009641 0.000250 0.117039
v -0.009641 -0.000250 0.117039
v -0.005626 -0.000250 0.116742
v -0.005626 0.000250 0.116742
v -0.001726 -0.000250 0.116332
v -0.001726 0.000250 0.116332
v 0.002061 0.000250 0.115813
v 0.002061 -0.000250 0.115813
v 0.005741 0.000250 0.115186
v 0.005741 -0.000250 0.115186
v 0.009316 -0.000250 0.114454
v 0.009316 0.000250 0.114454
v 0.012792 0.000250 0.113619
v 0.012792 -0.000250 0.113619
v 0.016170 0.000250 0.112683
v 0.016170 -0.000250 0.112683
v 0.019454 0.000250 0.111647
v 0.019454 -0.000250 0.111647
v 0.022649 0.000250 0.110512
v 0.022649 -0.000250 0.110512
v 0.025757 0.000250 0.109280
v 0.025757 -0.000250 0.109280
v 0.028780 0.000250 0.107950
v 0.028780 -0.000250 0.107950
v 0.031723 0.000250 0.106524
v 0.031723 -0.000250 0.106524
v 0.034587 0.000250 0.105000
v 0.034587 -0.000250 0.105000
v 0.037375 0.000250 0.103380
v 0.037375 -0.000250 0.103380
v 0.040090 0.000250 0.101662
v 0.040090 -0.000250 0.101662
v 0.042733 0.000250 0.099845
v 0.042733 -0.000250 0.099845
v 0.045589 0.000250 0.097709
v 0.045589 -0.000250 0.097709
v 0.048361 0.000250 0.095448
v 0.048361 -0.000250 0.095448
v 0.051052 -0.000250 0.093060
v 0.051052 0.000250 0.093060
v 0.053664 0.000250 0.090541
v 0.053664 -0.000250 0.090541
v 0.055801 0.000250 0.088284
v 0.055801 -0.000250 0.088284
v 0.057856 0.000250 0.085895
v 0.057856 -0.000250 0.085895
v 0.059830 -0.000250 0.083367
v 0.059830 0.000250 0.083367
v 0.061725 0.000250 0.080698
v 0.061725 -0.000250 0.080698
v 0.063541 0.000250 0.077880
v 0.063541 -0.000250 0.077880
v 0.065276 0.000250 0.074909
v 0.065276 -0.000250 0.074909
v 0.066930 0.000250 0.071778
v 0.066930 -0.000250 0.071778
v 0.068501 0.000250 0.068480
v 0.068501 -0.000250 0.068480
v 0.069989 0.000250 0.065008
v 0.069989 -0.000250 0.065008
v 0.071390 -0.000250 0.061354
v 0.071390 0.000250 0.061354
v 0.072701 0.000250 0.057512
v 0.072701 -0.000250 0.057512
v 0.073921 0.000250 0.053472
v 0.073921 -0.000250 0.053472
v 0.075045 0.000250 0.049227
v 0.075045 -0.000250 0.049227
v 0.076069 0.000250 0.044768
v 0.076069 -0.000250 0.044768
v 0.076989 0.000250 0.040086
v 0.076989 -0.000250 0.040086
v 0.077802 0.000250 0.035172
v 0.077802 -0.000250 0.035172
v 0.078501 0.000250 0.030017
v 0.078501 -0.000250 0.030017
v 0.079081 0.000250 0.024610
v 0.079081 -0.000250 0.024610
v 0.079538 0.000250 0.018942
v 0.079538 -0.000250 0.018942
v 0.079864 0.000250 0.013002
v 0.079864 -0.000250 0.013002
v 0.080046 0.000250 0.007270
v 0.080046 -0.000250 0.007270
v 0.047318 0.000250 0.007407
v 0.047379 -0.000250 0.001373
v 0.047318 -0.000250 0.007407
v 0.047379 0.000250 0.001373
v 0.047136 0.000250 0.013214
v 0.047136 -0.000250 0.013214
v 0.046845 0.000250 0.018589
v 0.046845 -0.000250 0.018589
v 0.046451 0.000250 0.023657
v 0.046451 -0.000250 0.023657
v 0.045959 0.000250 0.028432
v 0.045959 -0.000250 0.028432
v 0.045375 -0.000250 0.032926
v 0.045375 0.000250 0.032926
v 0.044704 0.000250 0.037152
v 0.044704 -0.000250 0.037152
v 0.043953 -0.000250 0.041122
v 0.043953 0.000250 0.041122
v 0.043125 0.000250 0.044847
v 0.043125 -0.000250 0.044847
v 0.042225 0.000250 0.048339
v 0.042225 -0.000250 0.048339
v 0.041258 0.000250 0.051610
v 0.041258 -0.000250 0.051610
v 0.040229 0.000250 0.054669
v 0.040229 -0.000250 0.054669
v 0.039140 0.000250 0.057527
v 0.039140 -0.000250 0.057527
v 0.037994 0.000250 0.060195
v 0.037994 -0.000250 0.060195
v 0.036900 0.000250 0.062476
v 0.036900 -0.000250 0.062476
v 0.035745 0.000250 0.064644
v 0.035745 -0.000250 0.064644
v 0.034529 0.000250 0.066699
v 0.034529 -0.000250 0.066699
v 0.033254 0.000250 0.068641
v 0.033254 -0.000250 0.068641
v 0.032054 0.000250 0.070292
v 0.032054 -0.000250 0.070292
v 0.030933 0.000250 0.071699
v 0.030933 -0.000250 0.071699
v 0.029772 0.000250 0.073048
v 0.029772 -0.000250 0.073048
v 0.028571 0.000250 0.074348
v 0.028571 -0.000250 0.074348
v 0.027330 -0.000250 0.075601
v 0.027330 0.000250 0.075601
v 0.026051 0.000250 0.076805
v 0.026051 -0.000250 0.076805
v 0.024731 -0.000250 0.077962
v 0.024731 0.000250 0.077962
v 0.023372 0.000250 0.079071
v 0.023372 -0.000250 0.079071
v 0.021973 -0.000250 0.080132
v 0.021973 0.000250 0.080132
v 0.020535 0.000250 0.081145
v 0.020535 -0.000250 0.081145
v 0.019057 0.000250 0.082111
v 0.019057 -0.000250 0.082111
v 0.017539 0.000250 0.083028
v 0.017539 -0.000250 0.083028
v 0.015982 0.000250 0.083898
v 0.015982 -0.000250 0.083898
v 0.014386 0.000250 0.084720
v 0.014386 -0.000250 0.084720
v 0.012749 0.000250 0.085494
v 0.012749 -0.000250 0.085494
v 0.011073 0.000250 0.086220
v 0.011073 -0.000250 0.086220
v 0.009358 0.000250 0.086899
v 0.009358 -0.000250 0.086899
v 0.007603 0.000250 0.087529
v 0.007603 -0.000250 0.087529
v 0.005808 0.000250 0.088112
v 0.005808 -0.000250 0.088112
v 0.003974 0.000250 0.088646
v 0.003974 -0.000250 0.088646
v 0.002100 0.000250 0.089133
v 0.002100 -0.000250 0.089133
v 0.000186 0.000250 0.089572
v 0.000186 -0.000250 0.089572
v -0.002427 0.000250 0.090083
v -0.002427 -0.000250 0.090083
v -0.005451 -0.000250 0.090556
v -0.005451 0.000250 0.090556
v -0.008956 0.000250 0.090960
v -0.008956 -0.000250 0.090960
v -0.012623 0.000250 0.091230
v -0.012623 -0.000250 0.091230
v -0.015320 0.000250 0.091337
v -0.015320 -0.000250 0.091337
v -0.018076 -0.000250 0.091373
v -0.018076 0.000250 0.091373
v -0.033076 -0.000250 0.091373
v -0.033076 0.000250 0.091373
v -0.033076 -0.000250 -0.089991
v -0.033076 0.000250 -0.089991
v -0.018076 -0.000250 -0.089991
v -0.018076 0.000250 -0.089991
v -0.014557 0.000250 -0.089930
v -0.014557 -0.000250 -0.089930
v -0.011136 0.000250 -0.089748
v -0.011136 -0.000250 -0.089748
v -0.007898 0.000250 -0.089454
v -0.007898 -0.000250 -0.089454
v -0.004791 0.000250 -0.089050
v -0.004791 -0.000250 -0.089050
v -0.001809 0.000250 -0.088541
v -0.001809 -0.000250 -0.088541
v 0.001053 -0.000250 -0.087930
v 0.001053 0.000250 -0.087930
v 0.003556 0.000250 -0.087288
v 0.003556 -0.000250 -0.087288
v 0.005989 0.000250 -0.086559
v 0.005989 -0.000250 -0.086559
v 0.008353 0.000250 -0.085743
v 0.008353 -0.000250 -0.085743
v 0.010647 -0.000250 -0.084841
v 0.010647 0.000250 -0.084841
v 0.012872 0.000250 -0.083852
v 0.012872 -0.000250 -0.083852
v 0.015027 0.000250 -0.082775
v 0.015027 -0.000250 -0.082775
v 0.017113 -0.000250 -0.081612
v 0.017113 0.000250 -0.081612
v 0.019129 0.000250 -0.080362
v 0.019129 -0.000250 -0.080362
v 0.021076 -0.000250 -0.079025
v 0.021076 0.000250 -0.079025
v 0.022953 0.000250 -0.077602
v 0.022953 -0.000250 -0.077602
v 0.024761 0.000250 -0.076091
v 0.024761 -0.000250 -0.076091
v 0.026499 -0.000250 -0.074494
v 0.026499 0.000250 -0.074494
v 0.028168 -0.000250 -0.072809
v 0.028168 0.000250 -0.072809
v 0.029768 0.000250 -0.071038
v 0.029768 -0.000250 -0.071038
v 0.031297 -0.000250 -0.069179
v 0.031297 0.000250 -0.069179
v 0.032615 0.000250 -0.067410
v 0.032615 -0.000250 -0.067410
v 0.033752 0.000250 -0.065729
v 0.033752 -0.000250 -0.065729
v 0.034844 0.000250 -0.063964
v 0.034844 -0.000250 -0.063964
v 0.035891 -0.000250 -0.062116
v 0.035891 0.000250 -0.062116
v 0.036891 0.000250 -0.060184
v 0.036891 -0.000250 -0.060184
v 0.037847 -0.000250 -0.058168
v 0.037847 0.000250 -0.058168
v 0.038756 0.000250 -0.056069
v 0.038756 -0.000250 -0.056069
v 0.039620 0.000250 -0.053887
v 0.039620 -0.000250 -0.053887
v 0.040438 0.000250 -0.051620
v 0.040438 -0.000250 -0.051620
v 0.041211 0.000250 -0.049271
v 0.041211 -0.000250 -0.049271
v 0.042171 0.000250 -0.046007
v 0.042171 -0.000250 -0.046007
v 0.043157 -0.000250 -0.042143
v 0.043157 0.000250 -0.042143
v 0.044056 0.000250 -0.038007
v 0.044056 -0.000250 -0.038007
v 0.044863 0.000250 -0.033583
v 0.044863 -0.000250 -0.033583
v 0.045570 0.000250 -0.028857
v 0.045570 -0.000250 -0.028857
v 0.046172 0.000250 -0.023814
v 0.046172 -0.000250 -0.023814
v 0.046661 0.000250 -0.018438
v 0.046661 -0.000250 -0.018438
v 0.047030 0.000250 -0.012713
v 0.047030 -0.000250 -0.012713
v 0.047271 0.000250 -0.006621
v 0.047271 -0.000250 -0.006621
v 0.047352 0.000250 -0.002673
v 0.047352 -0.000250 -0.002673
f 1 2 3
f 1 4 2
f 5 3 6
f 5 1 3
f 7 6 8
f 7 5 6
f 9 7 8
f 10 7 9
f 11 9 12
f 11 10 9
f 13 12 14
f 13 11 12
f 15 13 14
f 16 13 15
f 17 16 15
f 18 16 17
f 19 17 20
f 19 18 17
f 21 19 20
f 22 19 21
f 23 21 24
f 23 22 21
f 25 24 26
f 25 23 24
f 27 26 28
f 27 25 26
f 29 27 28
f 30 27 29
f 31 29 32
f 31 30 29
f 33 31 32
f 34 31 33
f 35 33 36
f 35 34 33
f 37 35 36
f 38 35 37
f 39 37 40
f 39 38 37
f 41 40 42
f 41 39 40
f 43 41 42
f 44 41 43
f 45 43 46
f 45 44 43
f 47 46 48
f 47 45 46
f 49 48 50
f 49 47 48
f 51 49 50
f 51 50 52
f 53 51 52
f 53 52 54
f 55 53 54
f 55 54 56
f 57 55 56
f 57 56 58
f 59 57 58
f 59 58 60
f 61 59 60
f 61 60 62
f 63 61 62
f 63 62 64
f 65 63 64
f 65 64 66
f 67 66 68
f 67 65 66
f 69 68 70
f 69 67 68
f 71 70 72
f 71 69 70
f 73 72 74
f 73 71 72
f 75 74 76
f 75 73 74
f 77 76 78
f 77 75 76
f 79 78 80
f 79 77 78
f 81 79 80
f 82 79 81
f 83 81 84
f 83 82 81
f 85 84 86
f 85 83 84
f 87 86 88
f 87 85 86
f 89 88 90
f 89 87 88
f 91 89 90
f 92 89 91
f 93 91 94
f 93 92 91
f 95 94 96
f 95 93 94
f 97 96 98
f 97 95 96
f 99 98 100
f 99 97 98
f 99 100 101
f 99 101 102
f 103 104 102
f 103 102 101
f 105 106 104
f 105 104 103
f 107 105 108
f 107 106 105
f 109 108 110
f 109 107 108
f 111 109 110
f 112 109 111
f 113 112 111
f 114 112 113
f 115 113 116
f 115 114 113
f 117 116 118
f 117 115 116
f 119 117 118
f 120 117 119
f 121 119 122
f 121 120 119
f 123 122 124
f 123 121 122
f 125 124 126
f 125 123 124
f 127 126 128
f 127 125 126
f 129 128 130
f 129 127 128
f 131 130 132
f 131 129 130
f 133 132 134
f 133 131 132
f 135 134 136
f 135 133 134
f 137 136 138
f 137 135 136
f 139 138 140
f 139 137 138
f 141 140 142
f 141 139 140
f 143 142 144
f 143 141 142
f 145 144 146
f 145 143 144
f 147 145 146
f 148 145 147
f 149 147 150
f 149 148 147
f 151 150 152
f 151 149 150
f 153 152 154
f 153 151 152
f 155 153 154
f 156 153 155
f 157 155 158
f 157 156 155
f 159 158 160
f 159 157 158
f 161 159 160
f 161 160 162
f 163 161 162
f 163 162 164
f 165 163 164
f 165 164 166
f 167 165 166
f 167 166 168
f 169 167 168
f 170 167 169
f 171 170 169
f 171 169 172
f 173 171 172
f 173 172 174
f 175 173 174
f 175 174 176
f 177 175 176
f 177 176 178
f 179 178 180
f 179 177 178
f 181 180 182
f 181 179 180
f 183 182 184
f 183 181 182
f 185 184 186
f 185 183 184
f 187 186 188
f 187 185 186
f 189 188 190
f 189 187 188
f 191 190 192
f 191 189 190
f 2 191 192
f 4 191 2
f 193 194 195
f 193 196 194
f 197 193 195
f 197 195 198
f 199 198 200
f 199 197 198
f 201 200 202
f 201 199 200
f 203 202 204
f 203 201 202
f 205 203 204
f 206 203 205
f 207 205 208
f 207 206 205
f 209 207 208
f 210 207 209
f 211 209 212
f 211 210 209
f 213 212 214
f 213 211 212
f 215 214 216
f 215 213 214
f 217 216 218
f 217 215 216
f 219 218 220
f 219 217 218
f 221 220 222
f 221 219 220
f 223 222 224
f 223 221 222
f 225 224 226
f 225 223 224
f 227 226 228
f 227 225 226
f 229 228 230
f 229 227 228
f 231 230 232
f 231 229 230
f 233 232 234
f 233 231 232
f 235 234 236
f 235 233 234
f 237 236 238
f 237 235 236
f 239 237 238
f 240 237 239
f 241 239 242
f 241 240 239
f 243 241 242
f 244 241 243
f 245 244 243
f 245 243 246
f 247 245 246
f 248 245 247
f 249 248 247
f 249 247 250
f 251 249 250
f 251 250 252
f 253 251 252
f 253 252 254
f 255 253 254
f 255 254 256
f 257 255 256
f 257 256 258
f 259 257 258
f 259 258 260
f 261 259 260
f 261 260 262
f 263 261 262
f 263 262 264
f 265 264 266
f 265 263 264
f 267 266 268
f 267 265 266
f 269 268 270
f 269 267 268
f 271 270 272
f 271 269 270
f 273 272 274
f 273 271 272
f 275 274 276
f 275 273 274
f 277 275 276
f 278 275 277
f 279 277 280
f 279 278 277
f 281 280 282
f 281 279 280
f 283 282 284
f 283 281 282
f 285 283 284
f 286 283 285
f 286 285 287
f 286 287 288
f 288 287 289
f 288 289 290
f 291 292 290
f 291 290 289
f 293 291 294
f 293 292 291
f 295 294 296
f 295 293 294
f 297 296 298
f 297 295 296
f 299 297 298
f 299 298 300
f 301 299 300
f 301 300 302
f 303 301 302
f 304 301 303
f 305 303 306
f 305 304 303
f 307 306 308
f 307 305 306
f 309 308 310
f 309 307 308
f 311 309 310
f 312 309 311
f 313 311 314
f 313 312 311
f 315 314 316
f 315 313 314
f 317 315 316
f 318 315 317
f 319 317 320
f 319 318 317
f 321 319 320
f 322 319 321
f 323 321 324
f 323 322 321
f 325 324 326
f 325 323 324
f 327 325 326
f 328 325 327
f 329 328 327
f 330 328 329
f 331 329 332
f 331 330 329
f 333 331 332
f 334 331 333
f 335 333 336
f 335 334 333
f 337 336 338
f 337 335 336
f 339 338 340
f 339 337 338
f 341 339 340
f 342 339 341
f 343 341 344
f 343 342 341
f 345 343 344
f 346 343 345
f 347 346 345
f 347 345 348
f 349 348 350
f 349 347 348
f 351 349 350
f 351 350 352
f 353 351 352
f 353 352 354
f 355 353 354
f 355 354 356
f 357 355 356
f 358 355 357
f 359 358 357
f 359 357 360
f 361 359 360
f 361 360 362
f 363 361 362
f 363 362 364
f 365 363 364
f 365 364 366
f 367 365 366
f 367 366 368
f 369 368 370
f 369 367 368
f 371 370 372
f 371 369 370
f 373 372 374
f 373 371 372
f 196 374 194
f 196 373 374
f 239 146 144
f 238 146 239
f 242 144 142
f 242 239 144
f 236 147 146
f 236 146 238
f 243 142 140
f 243 242 142
f 234 150 147
f 234 147 236
f 246 140 138
f 246 243 140
f 232 152 150
f 232 150 234
f 247 246 138
f 230 154 152
f 230 152 232
f 250 138 136
f 250 247 138
f 228 155 154
f 228 154 230
f 252 136 134
f 252 250 136
f 254 134 132
f 254 252 134
f 226 158 155
f 226 160 158
f 226 155 228
f 256 132 130
f 256 254 132
f 224 162 160
f 224 160 226
f 258 256 130
f 260 258 130
f 260 130 128
f 222 164 162
f 222 162 224
f 262 128 126
f 262 260 128
f 220 166 164
f 220 164 222
f 264 126 124
f 264 262 126
f 266 124 122
f 266 264 124
f 218 166 220
f 218 168 166
f 268 266 122
f 216 168 218
f 216 169 168
f 270 122 119
f 270 268 122
f 272 119 118
f 272 270 119
f 214 169 216
f 214 172 169
f 214 174 172
f 274 118 116
f 274 272 118
f 212 174 214
f 212 176 174
f 276 116 113
f 276 274 116
f 277 113 111
f 277 276 113
f 209 176 212
f 209 178 176
f 280 111 110
f 280 277 111
f 208 178 209
f 208 180 178
f 282 110 108
f 282 280 110
f 205 180 208
f 205 182 180
f 284 108 105
f 284 282 108
f 204 184 182
f 204 182 205
f 285 284 105
f 202 186 184
f 202 184 204
f 200 186 202
f 200 188 186
f 198 190 188
f 198 188 200
f 287 285 105
f 195 192 190
f 195 190 198
f 103 287 105
f 194 2 192
f 194 192 195
f 374 3 2
f 374 2 194
f 372 6 3
f 372 3 374
f 370 8 6
f 370 6 372
f 368 9 8
f 368 8 370
f 366 12 9
f 366 14 12
f 366 9 368
f 364 15 14
f 364 14 366
f 362 17 15
f 362 15 364
f 360 17 362
f 360 20 17
f 357 20 360
f 357 21 20
f 357 24 21
f 356 24 357
f 356 26 24
f 354 26 356
f 354 28 26
f 352 28 354
f 352 29 28
f 350 29 352
f 350 32 29
f 348 32 350
f 348 33 32
f 345 33 348
f 345 36 33
f 344 36 345
f 344 37 36
f 341 37 344
f 341 40 37
f 340 40 341
f 340 42 40
f 338 42 340
f 338 43 42
f 336 43 338
f 336 46 43
f 336 48 46
f 333 48 336
f 333 50 48
f 332 52 50
f 332 50 333
f 54 52 332
f 329 54 332
f 56 54 329
f 327 56 329
f 58 56 327
f 60 327 326
f 60 58 327
f 62 60 326
f 64 326 324
f 64 62 326
f 66 324 321
f 66 64 324
f 68 321 320
f 68 66 321
f 70 68 320
f 72 70 320
f 72 320 317
f 74 317 316
f 74 72 317
f 76 316 314
f 76 74 316
f 78 76 314
f 80 314 311
f 80 78 314
f 81 311 310
f 81 80 311
f 84 310 308
f 84 81 310
f 86 308 306
f 86 84 308
f 88 306 303
f 88 86 306
f 90 303 302
f 90 88 303
f 91 302 300
f 91 90 302
f 91 300 298
f 94 91 298
f 94 298 296
f 289 287 103
f 96 94 296
f 96 296 294
f 98 96 294
f 98 294 291
f 100 291 289
f 100 98 291
f 101 100 289
f 101 289 103
f 288 104 106
f 286 288 106
f 283 286 106
f 283 106 107
f 281 283 107
f 281 107 109
f 279 281 109
f 279 109 112
f 278 112 114
f 278 279 112
f 275 278 114
f 275 114 115
f 273 275 115
f 273 115 117
f 271 273 117
f 271 117 120
f 269 271 120
f 269 120 121
f 267 269 121
f 265 267 121
f 265 121 123
f 263 265 123
f 263 123 125
f 261 263 125
f 261 125 127
f 259 261 127
f 259 127 129
f 257 259 129
f 255 257 129
f 255 129 131
f 253 255 131
f 253 131 133
f 251 253 133
f 251 133 135
f 249 251 135
f 249 135 137
f 248 249 137
f 245 137 139
f 245 248 137
f 244 139 141
f 244 245 139
f 241 141 143
f 241 244 141
f 240 241 143
f 145 240 143
f 237 240 145
f 235 237 145
f 148 235 145
f 233 235 148
f 149 231 233
f 149 233 148
f 151 229 231
f 151 231 149
f 153 227 229
f 153 229 151
f 156 227 153
f 156 225 227
f 157 225 156
f 159 225 157
f 159 223 225
f 161 221 223
f 161 223 159
f 163 219 221
f 163 221 161
f 165 217 219
f 165 219 163
f 167 215 217
f 167 217 165
f 170 213 215
f 170 215 167
f 171 213 170
f 173 211 213
f 173 213 171
f 175 210 211
f 175 211 173
f 177 207 210
f 177 210 175
f 179 206 207
f 179 207 177
f 181 203 206
f 181 206 179
f 183 201 203
f 183 203 181
f 185 201 183
f 185 199 201
f 290 102 104
f 290 104 288
f 187 199 185
f 187 197 199
f 189 197 187
f 189 193 197
f 191 193 189
f 191 196 193
f 4 373 196
f 4 196 191
f 1 373 4
f 1 371 373
f 5 371 1
f 5 369 371
f 7 369 5
f 7 367 369
f 99 290 292
f 99 102 290
f 10 367 7
f 10 365 367
f 97 99 292
f 97 292 293
f 95 293 295
f 95 97 293
f 11 365 10
f 93 295 297
f 93 95 295
f 13 363 365
f 13 365 11
f 92 297 299
f 92 299 301
f 92 93 297
f 16 361 363
f 16 363 13
f 89 92 301
f 89 301 304
f 18 361 16
f 18 359 361
f 87 304 305
f 87 89 304
f 19 358 359
f 19 359 18
f 85 87 305
f 85 305 307
f 22 358 19
f 83 307 309
f 83 85 307
f 23 358 22
f 23 355 358
f 82 309 312
f 82 83 309
f 25 355 23
f 25 353 355
f 79 312 313
f 79 82 312
f 27 353 25
f 27 351 353
f 77 79 313
f 30 351 27
f 30 349 351
f 75 313 315
f 75 77 313
f 73 315 318
f 73 75 315
f 31 349 30
f 31 347 349
f 71 318 319
f 71 73 318
f 34 347 31
f 34 346 347
f 69 71 319
f 35 346 34
f 35 343 346
f 67 69 319
f 67 319 322
f 38 343 35
f 38 342 343
f 65 67 322
f 65 322 323
f 39 342 38
f 39 339 342
f 63 65 323
f 63 323 325
f 61 63 325
f 41 339 39
f 41 337 339
f 59 61 325
f 59 325 328
f 44 337 41
f 44 335 337
f 57 59 328
f 45 335 44
f 55 57 328
f 55 328 330
f 47 335 45
f 47 334 335
f 53 55 330
f 53 330 331
f 49 334 47
f 49 331 334
f 51 331 49
f 51 53 331
