# USD → MuJoCo (world-space)
v 0.370000 0.690523 -0.340000
v 0.370000 0.000523 -0.340000
v 0.370000 0.000523 -0.370000
v 0.370000 0.750523 -0.370000
v 0.370000 0.750523 -0.340000
v 0.315000 0.000523 -0.370000
v 0.315000 0.000523 -0.340000
v -0.370000 0.690523 -0.340000
v -0.370000 0.750523 -0.340000
v -0.370000 0.750523 -0.370000
v -0.370000 0.000523 -0.370000
v -0.370000 0.000523 -0.340000
v -0.315000 0.000523 -0.370000
v -0.315000 0.000523 -0.340000
v 0.370000 0.690523 0.340000
v 0.370000 0.000523 0.370000
v 0.370000 0.000523 0.340000
v 0.370000 0.750523 0.370000
v 0.370000 0.750523 0.340000
v 0.315000 0.000523 0.340000
v 0.315000 0.000523 0.370000
v -0.370000 0.690523 0.340000
v -0.370000 0.750523 0.370000
v -0.370000 0.750523 0.340000
v -0.370000 0.000523 0.370000
v -0.370000 0.000523 0.340000
v -0.315000 0.690523 0.370000
v -0.315000 0.750523 0.370000
v -0.315000 0.000523 0.370000
v -0.315000 0.000523 0.340000
v -0.315000 0.690523 0.340000
v 0.315000 0.690523 0.370000
v 0.315000 0.690523 0.340000
v 0.315000 0.750523 0.370000
v -0.315000 0.690523 -0.370000
v -0.315000 0.750523 -0.370000
v -0.315000 0.690523 -0.340000
v 0.315000 0.690523 -0.370000
v 0.315000 0.750523 -0.370000
v 0.315000 0.690523 -0.340000
f 1 2 3
f 4 1 3
f 5 1 4
f 6 3 2
f 6 2 7
f 8 9 10
f 11 8 10
f 12 8 11
f 11 13 14
f 11 14 12
f 15 16 17
f 18 15 19
f 18 16 15
f 20 17 16
f 20 16 21
f 22 23 24
f 25 22 26
f 25 23 22
f 27 28 23
f 25 27 23
f 29 27 25
f 26 30 29
f 26 29 25
f 31 30 26
f 31 26 22
f 31 29 30
f 27 29 31
f 22 9 8
f 22 24 9
f 20 32 33
f 21 32 20
f 15 17 20
f 15 20 33
f 32 18 34
f 16 32 21
f 16 18 32
f 34 28 27
f 32 34 27
f 35 13 11
f 10 35 11
f 36 35 10
f 35 14 13
f 37 14 35
f 14 8 12
f 14 37 8
f 38 35 36
f 39 38 36
f 6 40 38
f 7 40 6
f 38 3 6
f 4 38 39
f 4 3 38
f 2 40 7
f 2 1 40
f 19 15 1
f 19 1 5
f 31 33 32
f 31 32 27
f 40 1 15
f 40 15 33
f 37 40 33
f 37 33 31
f 35 38 40
f 35 40 37
f 8 31 22
f 8 37 31
f 28 24 23
f 19 34 18
f 36 10 9
f 36 9 24
f 36 24 28
f 39 28 34
f 39 36 28
f 5 34 19
f 5 39 34
f 4 39 5
