# USD → MuJoCo (world-space)
v 0.013636 0.000250 -0.116520
v 0.081818 -0.000250 0.119390
v 0.013636 -0.000250 -0.116520
v 0.081818 0.000250 0.119390
v -0.013636 -0.000250 -0.116520
v -0.013636 0.000250 -0.116520
v -0.081818 0.000250 0.119390
v -0.081818 -0.000250 0.119390
v -0.049091 -0.000250 0.119390
v -0.049091 0.000250 0.119390
v -0.030000 0.000250 0.047117
v -0.030000 -0.000250 0.047117
v 0.030000 0.000250 0.047117
v 0.030000 -0.000250 0.047117
v 0.049091 0.000250 0.119390
v 0.049091 -0.000250 0.119390
v 0.023182 0.000250 0.021208
v 0.023182 -0.000250 0.021208
v -0.023182 -0.000250 0.021208
v -0.023182 0.000250 0.021208
v -0.001364 0.000250 -0.061974
v -0.001364 -0.000250 -0.061974
v 0.001364 -0.000250 -0.061974
v 0.001364 0.000250 -0.061974
f 1 2 3
f 1 4 2
f 1 3 5
f 1 5 6
f 7 5 8
f 7 6 5
f 9 10 7
f 9 7 8
f 11 9 12
f 11 10 9
f 13 11 12
f 14 13 12
f 15 14 16
f 15 13 14
f 2 4 15
f 2 15 16
f 17 18 19
f 17 19 20
f 21 19 22
f 21 20 19
f 23 24 21
f 23 21 22
f 17 23 18
f 17 24 23
f 14 2 16
f 18 2 14
f 12 9 8
f 19 14 12
f 19 18 14
f 19 12 8
f 3 18 23
f 3 2 18
f 5 23 22
f 5 22 19
f 5 3 23
f 5 19 8
f 11 7 10
f 20 7 11
f 13 15 4
f 17 11 13
f 17 20 11
f 17 13 4
f 6 20 21
f 6 21 24
f 6 7 20
f 1 24 17
f 1 17 4
f 1 6 24
