# USD → MuJoCo (world-space)
v 0.080455 0.000250 0.043380
v 0.080515 -0.000250 0.046327
v 0.080455 -0.000250 0.043380
v 0.080515 0.000250 0.046327
v 0.080272 0.000250 0.040517
v 0.080272 -0.000250 0.040517
v 0.079969 -0.000250 0.037737
v 0.079969 0.000250 0.037737
v 0.079543 0.000250 0.035039
v 0.079543 -0.000250 0.035039
v 0.079057 -0.000250 0.032683
v 0.079057 0.000250 0.032683
v 0.078535 0.000250 0.030620
v 0.078535 -0.000250 0.030620
v 0.077933 0.000250 0.028611
v 0.077933 -0.000250 0.028611
v 0.077251 0.000250 0.026657
v 0.077251 -0.000250 0.026657
v 0.076490 0.000250 0.024757
v 0.076490 -0.000250 0.024757
v 0.075649 0.000250 0.022912
v 0.075649 -0.000250 0.022912
v 0.074728 0.000250 0.021122
v 0.074728 -0.000250 0.021122
v 0.073728 0.000250 0.019386
v 0.073728 -0.000250 0.019386
v 0.072648 -0.000250 0.017704
v 0.072648 0.000250 0.017704
v 0.071488 0.000250 0.016077
v 0.071488 -0.000250 0.016077
v 0.070249 0.000250 0.014505
v 0.070249 -0.000250 0.014505
v 0.068929 0.000250 0.012987
v 0.068929 -0.000250 0.012987
v 0.067530 0.000250 0.011524
v 0.067530 -0.000250 0.011524
v 0.065595 0.000250 0.009658
v 0.065595 -0.000250 0.009658
v 0.063373 -0.000250 0.007674
v 0.063373 0.000250 0.007674
v 0.061104 0.000250 0.005813
v 0.061104 -0.000250 0.005813
v 0.058788 0.000250 0.004075
v 0.058788 -0.000250 0.004075
v 0.056424 0.000250 0.002460
v 0.056424 -0.000250 0.002460
v 0.054013 0.000250 0.000967
v 0.054013 -0.000250 0.000967
v 0.051555 0.000250 -0.000403
v 0.051555 -0.000250 -0.000403
v 0.049050 0.000250 -0.001650
v 0.049050 -0.000250 -0.001650
v 0.046498 0.000250 -0.002774
v 0.046498 -0.000250 -0.002774
v 0.043898 0.000250 -0.003776
v 0.043898 -0.000250 -0.003776
v 0.041252 0.000250 -0.004655
v 0.041252 -0.000250 -0.004655
v 0.039754 0.000250 -0.005092
v 0.039754 -0.000250 -0.005092
v 0.038243 0.000250 -0.005491
v 0.038243 -0.000250 -0.005491
v 0.040249 0.000250 -0.006212
v 0.040249 -0.000250 -0.006212
v 0.042246 0.000250 -0.007033
v 0.042246 -0.000250 -0.007033
v 0.044234 -0.000250 -0.007955
v 0.044234 0.000250 -0.007955
v 0.046213 0.000250 -0.008978
v 0.046213 -0.000250 -0.008978
v 0.048183 -0.000250 -0.010101
v 0.048183 0.000250 -0.010101
v 0.050144 0.000250 -0.011325
v 0.050144 -0.000250 -0.011325
v 0.052095 0.000250 -0.012650
v 0.052095 -0.000250 -0.012650
v 0.054038 0.000250 -0.014076
v 0.054038 -0.000250 -0.014076
v 0.055971 -0.000250 -0.015602
v 0.055971 0.000250 -0.015602
v 0.057895 0.000250 -0.017229
v 0.057895 -0.000250 -0.017229
v 0.059810 0.000250 -0.018956
v 0.059810 -0.000250 -0.018956
v 0.061716 0.000250 -0.020785
v 0.061716 -0.000250 -0.020785
v 0.062659 0.000250 -0.021740
v 0.062659 -0.000250 -0.021740
v 0.063649 0.000250 -0.022832
v 0.063649 -0.000250 -0.022832
v 0.064619 -0.000250 -0.024010
v 0.064619 0.000250 -0.024010
v 0.065540 0.000250 -0.025243
v 0.065540 -0.000250 -0.025243
v 0.066411 0.000250 -0.026532
v 0.066411 -0.000250 -0.026532
v 0.067234 0.000250 -0.027875
v 0.067234 -0.000250 -0.027875
v 0.068007 0.000250 -0.029273
v 0.068007 -0.000250 -0.029273
v 0.068731 0.000250 -0.030726
v 0.068731 -0.000250 -0.030726
v 0.069406 0.000250 -0.032235
v 0.069406 -0.000250 -0.032235
v 0.070031 0.000250 -0.033798
v 0.070031 -0.000250 -0.033798
v 0.070607 0.000250 -0.035416
v 0.070607 -0.000250 -0.035416
v 0.071134 0.000250 -0.037090
v 0.071134 -0.000250 -0.037090
v 0.071612 0.000250 -0.038818
v 0.071612 -0.000250 -0.038818
v 0.072040 0.000250 -0.040602
v 0.072040 -0.000250 -0.040602
v 0.072420 0.000250 -0.042440
v 0.072420 -0.000250 -0.042440
v 0.072750 0.000250 -0.044334
v 0.072750 -0.000250 -0.044334
v 0.073031 0.000250 -0.046282
v 0.073031 -0.000250 -0.046282
v 0.073328 0.000250 -0.048966
v 0.073328 -0.000250 -0.048966
v 0.073559 0.000250 -0.052102
v 0.073559 -0.000250 -0.052102
v 0.073686 0.000250 -0.055796
v 0.073686 -0.000250 -0.055796
v 0.073678 0.000250 -0.058948
v 0.073678 -0.000250 -0.058948
v 0.073550 0.000250 -0.061815
v 0.073550 -0.000250 -0.061815
v 0.073331 0.000250 -0.064353
v 0.073331 -0.000250 -0.064353
v 0.073016 0.000250 -0.066852
v 0.073016 -0.000250 -0.066852
v 0.072602 0.000250 -0.069313
v 0.072602 -0.000250 -0.069313
v 0.072091 -0.000250 -0.071734
v 0.072091 0.000250 -0.071734
v 0.071483 0.000250 -0.074116
v 0.071483 -0.000250 -0.074116
v 0.070777 0.000250 -0.076459
v 0.070777 -0.000250 -0.076459
v 0.069974 -0.000250 -0.078764
v 0.069974 0.000250 -0.078764
v 0.069073 0.000250 -0.081029
v 0.069073 -0.000250 -0.081029
v 0.068074 0.000250 -0.083255
v 0.068074 -0.000250 -0.083255
v 0.066978 0.000250 -0.085443
v 0.066978 -0.000250 -0.085443
v 0.065785 -0.000250 -0.087591
v 0.065785 0.000250 -0.087591
v 0.064494 0.000250 -0.089700
v 0.064494 -0.000250 -0.089700
v 0.063105 0.000250 -0.091770
v 0.063105 -0.000250 -0.091770
v 0.061619 0.000250 -0.093802
v 0.061619 -0.000250 -0.093802
v 0.060035 -0.000250 -0.095794
v 0.060035 0.000250 -0.095794
v 0.058354 0.000250 -0.097747
v 0.058354 -0.000250 -0.097747
v 0.056575 0.000250 -0.099661
v 0.056575 -0.000250 -0.099661
v 0.054891 0.000250 -0.101323
v 0.054891 -0.000250 -0.101323
v 0.053308 0.000250 -0.102748
v 0.053308 -0.000250 -0.102748
v 0.051661 -0.000250 -0.104107
v 0.051661 0.000250 -0.104107
v 0.049949 0.000250 -0.105399
v 0.049949 -0.000250 -0.105399
v 0.048174 -0.000250 -0.106625
v 0.048174 0.000250 -0.106625
v 0.046335 0.000250 -0.107784
v 0.046335 -0.000250 -0.107784
v 0.044432 0.000250 -0.108877
v 0.044432 -0.000250 -0.108877
v 0.042464 0.000250 -0.109903
v 0.042464 -0.000250 -0.109903
v 0.040433 0.000250 -0.110863
v 0.040433 -0.000250 -0.110863
v 0.038338 0.000250 -0.111756
v 0.038338 -0.000250 -0.111756
v 0.036179 -0.000250 -0.112582
v 0.036179 0.000250 -0.112582
v 0.033955 0.000250 -0.113342
v 0.033955 -0.000250 -0.113342
v 0.031668 -0.000250 -0.114035
v 0.031668 0.000250 -0.114035
v 0.029317 0.000250 -0.114662
v 0.029317 -0.000250 -0.114662
v 0.026902 0.000250 -0.115222
v 0.026902 -0.000250 -0.115222
v 0.024423 -0.000250 -0.115716
v 0.024423 0.000250 -0.115716
v 0.021880 0.000250 -0.116143
v 0.021880 -0.000250 -0.116143
v 0.019273 -0.000250 -0.116504
v 0.019273 0.000250 -0.116504
v 0.015697 -0.000250 -0.116881
v 0.015697 0.000250 -0.116881
v 0.011694 -0.000250 -0.117157
v 0.011694 0.000250 -0.117157
v 0.008642 0.000250 -0.117271
v 0.008642 -0.000250 -0.117271
v 0.005515 0.000250 -0.117309
v 0.005515 -0.000250 -0.117309
v -0.065394 -0.000250 -0.117309
v -0.065394 0.000250 -0.117309
v -0.065394 -0.000250 0.115873
v -0.065394 0.000250 0.115873
v 0.002788 -0.000250 0.115873
v 0.002788 0.000250 0.115873
v 0.007077 0.000250 0.115812
v 0.007077 -0.000250 0.115812
v 0.011267 0.000250 0.115630
v 0.011267 -0.000250 0.115630
v 0.015268 0.000250 0.115334
v 0.015268 -0.000250 0.115334
v 0.019132 0.000250 0.114927
v 0.019132 -0.000250 0.114927
v 0.022864 0.000250 0.114413
v 0.022864 -0.000250 0.114413
v 0.026470 0.000250 0.113794
v 0.026470 -0.000250 0.113794
v 0.029954 0.000250 0.113073
v 0.029954 -0.000250 0.113073
v 0.033320 -0.000250 0.112253
v 0.033320 0.000250 0.112253
v 0.036573 0.000250 0.111336
v 0.036573 -0.000250 0.111336
v 0.039716 0.000250 0.110324
v 0.039716 -0.000250 0.110324
v 0.042754 0.000250 0.109219
v 0.042754 -0.000250 0.109219
v 0.045691 0.000250 0.108022
v 0.045691 -0.000250 0.108022
v 0.048531 0.000250 0.106733
v 0.048531 -0.000250 0.106733
v 0.051276 -0.000250 0.105355
v 0.051276 0.000250 0.105355
v 0.053931 0.000250 0.103886
v 0.053931 -0.000250 0.103886
v 0.056497 -0.000250 0.102327
v 0.056497 0.000250 0.102327
v 0.058978 0.000250 0.100678
v 0.058978 -0.000250 0.100678
v 0.060547 0.000250 0.099527
v 0.060547 -0.000250 0.099527
v 0.062099 0.000250 0.098273
v 0.062099 -0.000250 0.098273
v 0.063588 -0.000250 0.096948
v 0.063588 0.000250 0.096948
v 0.065014 0.000250 0.095553
v 0.065014 -0.000250 0.095553
v 0.066378 0.000250 0.094088
v 0.066378 -0.000250 0.094088
v 0.067679 0.000250 0.092551
v 0.067679 -0.000250 0.092551
v 0.068917 0.000250 0.090945
v 0.068917 -0.000250 0.090945
v 0.070092 0.000250 0.089267
v 0.070092 -0.000250 0.089267
v 0.071205 0.000250 0.087519
v 0.071205 -0.000250 0.087519
v 0.072254 0.000250 0.085700
v 0.072254 -0.000250 0.085700
v 0.073241 0.000250 0.083811
v 0.073241 -0.000250 0.083811
v 0.074165 0.000250 0.081851
v 0.074165 -0.000250 0.081851
v 0.075027 0.000250 0.079821
v 0.075027 -0.000250 0.079821
v 0.075826 0.000250 0.077719
v 0.075826 -0.000250 0.077719
v 0.076561 0.000250 0.075548
v 0.076561 -0.000250 0.075548
v 0.077235 0.000250 0.073305
v 0.077235 -0.000250 0.073305
v 0.077845 0.000250 0.070992
v 0.077845 -0.000250 0.070992
v 0.078393 0.000250 0.068609
v 0.078393 -0.000250 0.068609
v 0.078877 0.000250 0.066154
v 0.078877 -0.000250 0.066154
v 0.079299 0.000250 0.063629
v 0.079299 -0.000250 0.063629
v 0.079765 0.000250 0.060153
v 0.079765 -0.000250 0.060153
v 0.080146 -0.000250 0.056205
v 0.080146 0.000250 0.056205
v 0.080396 0.000250 0.052035
v 0.080396 -0.000250 0.052035
v 0.080486 0.000250 0.049214
v 0.080486 -0.000250 0.049214
v 0.047727 0.000250 0.049618
v 0.047788 -0.000250 0.046327
v 0.047727 -0.000250 0.049618
v 0.047788 0.000250 0.046327
v 0.047545 0.000250 0.052769
v 0.047545 -0.000250 0.052769
v 0.047256 0.000250 0.055658
v 0.047256 -0.000250 0.055658
v 0.046901 0.000250 0.058147
v 0.046901 -0.000250 0.058147
v 0.046455 0.000250 0.060531
v 0.046455 -0.000250 0.060531
v 0.045919 -0.000250 0.062811
v 0.045919 0.000250 0.062811
v 0.045359 0.000250 0.064773
v 0.045359 -0.000250 0.064773
v 0.044792 0.000250 0.066466
v 0.044792 -0.000250 0.066466
v 0.044166 -0.000250 0.068091
v 0.044166 0.000250 0.068091
v 0.043480 0.000250 0.069647
v 0.043480 -0.000250 0.069647
v 0.042813 -0.000250 0.070989
v 0.042813 0.000250 0.070989
v 0.042171 0.000250 0.072149
v 0.042171 -0.000250 0.072149
v 0.041490 0.000250 0.073263
v 0.041490 -0.000250 0.073263
v 0.040770 0.000250 0.074333
v 0.040770 -0.000250 0.074333
v 0.040012 -0.000250 0.075358
v 0.040012 0.000250 0.075358
v 0.039214 0.000250 0.076337
v 0.039214 -0.000250 0.076337
v 0.038377 -0.000250 0.077271
v 0.038377 0.000250 0.077271
v 0.037502 0.000250 0.078161
v 0.037502 -0.000250 0.078161
v 0.036587 0.000250 0.079005
v 0.036587 -0.000250 0.079005
v 0.035634 0.000250 0.079804
v 0.035634 -0.000250 0.079804
v 0.034641 -0.000250 0.080558
v 0.034641 0.000250 0.080558
v 0.033613 0.000250 0.081279
v 0.033613 -0.000250 0.081279
v 0.032550 -0.000250 0.081970
v 0.032550 0.000250 0.081970
v 0.031451 0.000250 0.082633
v 0.031451 -0.000250 0.082633
v 0.030318 0.000250 0.083268
v 0.030318 -0.000250 0.083268
v 0.029151 0.000250 0.083873
v 0.029151 -0.000250 0.083873
v 0.027948 0.000250 0.084450
v 0.027948 -0.000250 0.084450
v 0.026710 0.000250 0.084998
v 0.026710 -0.000250 0.084998
v 0.025438 0.000250 0.085517
v 0.025438 -0.000250 0.085517
v 0.024131 0.000250 0.086008
v 0.024131 -0.000250 0.086008
v 0.022334 0.000250 0.086618
v 0.022334 -0.000250 0.086618
v 0.020238 -0.000250 0.087243
v 0.020238 0.000250 0.087243
v 0.018064 0.000250 0.087803
v 0.018064 -0.000250 0.087803
v 0.015811 0.000250 0.088299
v 0.015811 -0.000250 0.088299
v 0.013480 0.000250 0.088730
v 0.013480 -0.000250 0.088730
v 0.011071 -0.000250 0.089097
v 0.011071 0.000250 0.089097
v 0.008583 0.000250 0.089399
v 0.008583 -0.000250 0.089399
v 0.006017 -0.000250 0.089637
v 0.006017 0.000250 0.089637
v 0.002473 0.000250 0.089853
v 0.002473 -0.000250 0.089853
v -0.000063 0.000250 0.089936
v -0.000063 -0.000250 0.089936
v -0.002667 0.000250 0.089963
v -0.002667 -0.000250 0.089963
v -0.034030 -0.000250 0.089963
v -0.034030 0.000250 0.089963
v -0.034030 -0.000250 0.006782
v -0.034030 0.000250 0.006782
v 0.001424 0.000250 0.006782
v 0.001424 -0.000250 0.006782
v 0.004336 -0.000250 0.006842
v 0.004336 0.000250 0.006842
v 0.007201 -0.000250 0.007025
v 0.007201 0.000250 0.007025
v 0.010020 -0.000250 0.007328
v 0.010020 0.000250 0.007328
v 0.012791 -0.000250 0.007754
v 0.012791 0.000250 0.007754
v 0.015516 -0.000250 0.008300
v 0.015516 0.000250 0.008300
v 0.018194 -0.000250 0.008969
v 0.018194 0.000250 0.008969
v 0.020826 -0.000250 0.009758
v 0.020826 0.000250 0.009758
v 0.023411 -0.000250 0.010670
v 0.023411 0.000250 0.010670
v 0.025949 -0.000250 0.011702
v 0.025949 0.000250 0.011702
v 0.028440 -0.000250 0.012857
v 0.028440 0.000250 0.012857
v 0.030884 -0.000250 0.014132
v 0.030884 0.000250 0.014132
v 0.033282 0.000250 0.015530
v 0.033282 -0.000250 0.015530
v 0.034450 0.000250 0.016279
v 0.034450 -0.000250 0.016279
v 0.035553 0.000250 0.017059
v 0.035553 -0.000250 0.017059
v 0.036637 0.000250 0.017907
v 0.036637 -0.000250 0.017907
v 0.037570 -0.000250 0.018709
v 0.037570 0.000250 0.018709
v 0.038462 0.000250 0.019548
v 0.038462 -0.000250 0.019548
v 0.039313 0.000250 0.020423
v 0.039313 -0.000250 0.020423
v 0.040124 0.000250 0.021336
v 0.040124 -0.000250 0.021336
v 0.040894 0.000250 0.022285
v 0.040894 -0.000250 0.022285
v 0.041623 0.000250 0.023272
v 0.041623 -0.000250 0.023272
v 0.042311 0.000250 0.024295
v 0.042311 -0.000250 0.024295
v 0.042959 -0.000250 0.025355
v 0.042959 0.000250 0.025355
v 0.043566 0.000250 0.026452
v 0.043566 -0.000250 0.026452
v 0.044132 0.000250 0.027585
v 0.044132 -0.000250 0.027585
v 0.044658 0.000250 0.028756
v 0.044658 -0.000250 0.028756
v 0.045142 0.000250 0.029963
v 0.045142 -0.000250 0.029963
v 0.045586 0.000250 0.031208
v 0.045586 -0.000250 0.031208
v 0.045989 0.000250 0.032489
v 0.045989 -0.000250 0.032489
v 0.046352 -0.000250 0.033807
v 0.046352 0.000250 0.033807
v 0.046674 -0.000250 0.035162
v 0.046674 0.000250 0.035162
v 0.046955 0.000250 0.036554
v 0.046955 -0.000250 0.036554
v 0.047195 -0.000250 0.037982
v 0.047195 0.000250 0.037982
v 0.047394 -0.000250 0.039448
v 0.047394 0.000250 0.039448
v 0.047553 0.000250 0.040950
v 0.047553 -0.000250 0.040950
v 0.047671 0.000250 0.042489
v 0.047671 -0.000250 0.042489
v 0.047759 0.000250 0.044382
v 0.047759 -0.000250 0.044382
v 0.042273 0.000250 -0.054321
v 0.042333 -0.000250 -0.057309
v 0.042273 -0.000250 -0.054321
v 0.042333 0.000250 -0.057309
v 0.042090 0.000250 -0.051462
v 0.042090 -0.000250 -0.051462
v 0.041787 0.000250 -0.048732
v 0.041787 -0.000250 -0.048732
v 0.041409 0.000250 -0.046385
v 0.041409 -0.000250 -0.046385
v 0.040986 -0.000250 -0.044363
v 0.040986 0.000250 -0.044363
v 0.040482 0.000250 -0.042425
v 0.040482 -0.000250 -0.042425
v 0.039961 -0.000250 -0.040753
v 0.039961 0.000250 -0.040753
v 0.039437 0.000250 -0.039307
v 0.039437 -0.000250 -0.039307
v 0.038860 0.000250 -0.037917
v 0.038860 -0.000250 -0.037917
v 0.038231 0.000250 -0.036582
v 0.038231 -0.000250 -0.036582
v 0.037550 0.000250 -0.035303
v 0.037550 -0.000250 -0.035303
v 0.036892 -0.000250 -0.034199
v 0.036892 0.000250 -0.034199
v 0.036264 0.000250 -0.033244
v 0.036264 -0.000250 -0.033244
v 0.035602 -0.000250 -0.032326
v 0.035602 0.000250 -0.032326
v 0.034905 0.000250 -0.031444
v 0.034905 -0.000250 -0.031444
v 0.034174 0.000250 -0.030598
v 0.034174 -0.000250 -0.030598
v 0.033408 0.000250 -0.029789
v 0.033408 -0.000250 -0.029789
v 0.032608 -0.000250 -0.029017
v 0.032608 0.000250 -0.029017
v 0.031774 0.000250 -0.028281
v 0.031774 -0.000250 -0.028281
v 0.030909 0.000250 -0.027579
v 0.030909 -0.000250 -0.027579
v 0.029734 0.000250 -0.026689
v 0.029734 -0.000250 -0.026689
v 0.028385 -0.000250 -0.025746
v 0.028385 0.000250 -0.025746
v 0.027006 0.000250 -0.024866
v 0.027006 -0.000250 -0.024866
v 0.025599 0.000250 -0.024049
v 0.025599 -0.000250 -0.024049
v 0.024162 -0.000250 -0.023295
v 0.024162 0.000250 -0.023295
v 0.022697 -0.000250 -0.022603
v 0.022697 0.000250 -0.022603
v 0.021202 0.000250 -0.021974
v 0.021202 -0.000250 -0.021974
v 0.019679 0.000250 -0.021408
v 0.019679 -0.000250 -0.021408
v 0.018127 -0.000250 -0.020904
v 0.018127 0.000250 -0.020904
v 0.016546 0.000250 -0.020463
v 0.016546 -0.000250 -0.020463
v 0.014936 -0.000250 -0.020085
v 0.014936 0.000250 -0.020085
v 0.013297 0.000250 -0.019770
v 0.013297 -0.000250 -0.019770
v 0.011628 -0.000250 -0.019518
v 0.011628 0.000250 -0.019518
v 0.009931 -0.000250 -0.019328
v 0.009931 0.000250 -0.019328
v 0.008206 -0.000250 -0.019201
v 0.008206 0.000250 -0.019201
v 0.006869 0.000250 -0.019146
v 0.006869 -0.000250 -0.019146
v 0.005515 0.000250 -0.019127
v 0.005515 -0.000250 -0.019127
v -0.034030 -0.000250 -0.019127
v -0.034030 0.000250 -0.019127
v -0.034030 -0.000250 -0.091400
v -0.034030 0.000250 -0.091400
v 0.006879 -0.000250 -0.091400
v 0.006879 0.000250 -0.091400
v 0.009429 0.000250 -0.091339
v 0.009429 -0.000250 -0.091339
v 0.011663 0.000250 -0.091181
v 0.011663 -0.000250 -0.091181
v 0.013624 0.000250 -0.090954
v 0.013624 -0.000250 -0.090954
v 0.015539 0.000250 -0.090647
v 0.015539 -0.000250 -0.090647
v 0.017408 0.000250 -0.090261
v 0.017408 -0.000250 -0.090261
v 0.019230 0.000250 -0.089795
v 0.019230 -0.000250 -0.089795
v 0.021005 0.000250 -0.089250
v 0.021005 -0.000250 -0.089250
v 0.022734 0.000250 -0.088624
v 0.022734 -0.000250 -0.088624
v 0.024251 0.000250 -0.087993
v 0.024251 -0.000250 -0.087993
v 0.025583 0.000250 -0.087370
v 0.025583 -0.000250 -0.087370
v 0.026885 0.000250 -0.086694
v 0.026885 -0.000250 -0.086694
v 0.028157 0.000250 -0.085967
v 0.028157 -0.000250 -0.085967
v 0.029398 0.000250 -0.085187
v 0.029398 -0.000250 -0.085187
v 0.030609 0.000250 -0.084354
v 0.030609 -0.000250 -0.084354
v 0.031789 0.000250 -0.083470
v 0.031789 -0.000250 -0.083470
v 0.032717 0.000250 -0.082713
v 0.032717 -0.000250 -0.082713
v 0.033540 0.000250 -0.081978
v 0.033540 -0.000250 -0.081978
v 0.034325 0.000250 -0.081208
v 0.034325 -0.000250 -0.081208
v 0.035074 0.000250 -0.080404
v 0.035074 -0.000250 -0.080404
v 0.035787 0.000250 -0.079565
v 0.035787 -0.000250 -0.079565
v 0.036462 0.000250 -0.078693
v 0.036462 -0.000250 -0.078693
v 0.037101 0.000250 -0.077785
v 0.037101 -0.000250 -0.077785
v 0.037703 0.000250 -0.076844
v 0.037703 -0.000250 -0.076844
v 0.038268 0.000250 -0.075868
v 0.038268 -0.000250 -0.075868
v 0.038797 0.000250 -0.074858
v 0.038797 -0.000250 -0.074858
v 0.039288 0.000250 -0.073813
v 0.039288 -0.000250 -0.073813
v 0.039743 0.000250 -0.072735
v 0.039743 -0.000250 -0.072735
v 0.040161 0.000250 -0.071622
v 0.040161 -0.000250 -0.071622
v 0.040543 0.000250 -0.070474
v 0.040543 -0.000250 -0.070474
v 0.040887 0.000250 -0.069292
v 0.040887 -0.000250 -0.069292
v 0.041195 0.000250 -0.068076
v 0.041195 -0.000250 -0.068076
v 0.041466 0.000250 -0.066826
v 0.041466 -0.000250 -0.066826
v 0.041700 0.000250 -0.065541
v 0.041700 -0.000250 -0.065541
v 0.041898 0.000250 -0.064222
v 0.041898 -0.000250 -0.064222
v 0.042058 0.000250 -0.062869
v 0.042058 -0.000250 -0.062869
v 0.042182 -0.000250 -0.061481
v 0.042182 0.000250 -0.061481
v 0.042290 0.000250 -0.059578
v 0.042290 -0.000250 -0.059578
v 0.042323 0.000250 -0.058454
v 0.042323 -0.000250 -0.058454
f 1 2 3
f 1 4 2
f 5 3 6
f 5 1 3
f 7 5 6
f 8 5 7
f 9 7 10
f 9 8 7
f 11 9 10
f 12 9 11
f 13 11 14
f 13 12 11
f 15 14 16
f 15 13 14
f 17 16 18
f 17 15 16
f 19 18 20
f 19 17 18
f 21 19 20
f 21 20 22
f 23 21 22
f 23 22 24
f 25 24 26
f 25 23 24
f 27 25 26
f 28 25 27
f 29 27 30
f 29 28 27
f 31 30 32
f 31 29 30
f 33 32 34
f 33 31 32
f 35 34 36
f 35 33 34
f 37 36 38
f 37 35 36
f 39 37 38
f 40 37 39
f 41 39 42
f 41 40 39
f 43 42 44
f 43 41 42
f 45 44 46
f 45 43 44
f 47 46 48
f 47 45 46
f 49 48 50
f 49 47 48
f 51 50 52
f 51 49 50
f 53 52 54
f 53 51 52
f 55 54 56
f 55 53 54
f 57 56 58
f 57 55 56
f 59 58 60
f 59 57 58
f 61 60 62
f 61 59 60
f 63 62 64
f 63 61 62
f 65 64 66
f 65 63 64
f 67 65 66
f 68 65 67
f 69 67 70
f 69 68 67
f 71 69 70
f 72 69 71
f 73 71 74
f 73 72 71
f 75 74 76
f 75 73 74
f 77 76 78
f 77 75 76
f 79 77 78
f 80 77 79
f 81 79 82
f 81 80 79
f 83 82 84
f 83 81 82
f 85 84 86
f 85 83 84
f 87 86 88
f 87 85 86
f 89 87 88
f 89 88 90
f 91 89 90
f 92 89 91
f 93 92 91
f 93 91 94
f 95 94 96
f 95 93 94
f 97 96 98
f 97 95 96
f 99 98 100
f 99 97 98
f 101 100 102
f 101 99 100
f 103 102 104
f 103 101 102
f 105 104 106
f 105 103 104
f 107 106 108
f 107 105 106
f 109 108 110
f 109 107 108
f 111 110 112
f 111 109 110
f 113 112 114
f 113 111 112
f 115 114 116
f 115 113 114
f 117 116 118
f 117 115 116
f 119 118 120
f 119 117 118
f 121 120 122
f 121 119 120
f 123 122 124
f 123 121 122
f 125 124 126
f 125 123 124
f 127 126 128
f 127 125 126
f 129 128 130
f 129 127 128
f 131 130 132
f 131 129 130
f 133 132 134
f 133 131 132
f 135 134 136
f 135 133 134
f 137 135 136
f 138 135 137
f 139 138 137
f 139 137 140
f 141 139 140
f 141 140 142
f 143 141 142
f 144 141 143
f 145 144 143
f 145 143 146
f 147 145 146
f 147 146 148
f 149 147 148
f 149 148 150
f 151 149 150
f 152 149 151
f 153 152 151
f 153 151 154
f 155 153 154
f 155 154 156
f 157 155 156
f 157 156 158
f 159 157 158
f 160 157 159
f 161 160 159
f 161 159 162
f 163 162 164
f 163 161 162
f 165 164 166
f 165 163 164
f 167 166 168
f 167 165 166
f 169 167 168
f 170 167 169
f 171 169 172
f 171 170 169
f 173 171 172
f 174 171 173
f 175 173 176
f 175 174 173
f 177 176 178
f 177 175 176
f 179 178 180
f 179 177 178
f 181 180 182
f 181 179 180
f 183 182 184
f 183 181 182
f 185 183 184
f 186 183 185
f 187 186 185
f 187 185 188
f 189 187 188
f 190 187 189
f 191 190 189
f 191 189 192
f 193 191 192
f 193 192 194
f 195 193 194
f 196 193 195
f 197 196 195
f 197 195 198
f 199 197 198
f 200 197 199
f 201 200 199
f 202 200 201
f 203 202 201
f 204 202 203
f 205 204 203
f 205 203 206
f 207 205 206
f 207 206 208
f 207 208 209
f 207 209 210
f 211 212 210
f 211 210 209
f 213 214 212
f 213 212 211
f 215 213 216
f 215 214 213
f 217 216 218
f 217 215 216
f 219 218 220
f 219 217 218
f 221 219 220
f 221 220 222
f 223 221 222
f 223 222 224
f 225 224 226
f 225 223 224
f 227 226 228
f 227 225 226
f 229 227 228
f 230 227 229
f 231 229 232
f 231 230 229
f 233 232 234
f 233 231 232
f 235 234 236
f 235 233 234
f 237 236 238
f 237 235 236
f 239 238 240
f 239 237 238
f 241 239 240
f 242 239 241
f 243 241 244
f 243 242 241
f 245 243 244
f 246 243 245
f 247 245 248
f 247 246 245
f 249 248 250
f 249 247 248
f 251 250 252
f 251 249 250
f 253 251 252
f 254 251 253
f 255 253 256
f 255 254 253
f 257 256 258
f 257 255 256
f 259 258 260
f 259 257 258
f 261 260 262
f 261 259 260
f 263 262 264
f 263 261 262
f 265 264 266
f 265 263 264
f 267 266 268
f 267 265 266
f 269 268 270
f 269 267 268
f 271 269 270
f 271 270 272
f 273 271 272
f 273 272 274
f 275 273 274
f 275 274 276
f 277 275 276
f 277 276 278
f 279 277 278
f 279 278 280
f 281 279 280
f 281 280 282
f 283 281 282
f 283 282 284
f 285 283 284
f 285 284 286
f 287 285 286
f 287 286 288
f 289 288 290
f 289 287 288
f 291 289 290
f 292 289 291
f 293 291 294
f 293 292 291
f 295 294 296
f 295 293 294
f 4 296 2
f 4 295 296
f 297 298 299
f 297 300 298
f 301 299 302
f 301 297 299
f 303 302 304
f 303 301 302
f 305 303 304
f 305 304 306
f 307 306 308
f 307 305 306
f 309 307 308
f 310 307 309
f 311 309 312
f 311 310 309
f 313 312 314
f 313 311 312
f 315 313 314
f 316 313 315
f 317 315 318
f 317 316 315
f 319 317 318
f 320 317 319
f 321 319 322
f 321 320 319
f 323 322 324
f 323 321 322
f 325 324 326
f 325 323 324
f 327 325 326
f 328 325 327
f 329 327 330
f 329 328 327
f 331 329 330
f 332 329 331
f 333 331 334
f 333 332 331
f 335 334 336
f 335 333 334
f 337 336 338
f 337 335 336
f 339 337 338
f 340 337 339
f 341 339 342
f 341 340 339
f 343 341 342
f 344 341 343
f 345 343 346
f 345 344 343
f 347 346 348
f 347 345 346
f 349 348 350
f 349 347 348
f 351 350 352
f 351 349 350
f 353 352 354
f 353 351 352
f 355 353 354
f 355 354 356
f 357 355 356
f 357 356 358
f 359 357 358
f 359 358 360
f 361 359 360
f 362 359 361
f 363 362 361
f 363 361 364
f 365 363 364
f 365 364 366
f 367 365 366
f 367 366 368
f 369 367 368
f 370 367 369
f 371 370 369
f 371 369 372
f 373 371 372
f 374 371 373
f 375 373 376
f 375 374 373
f 377 376 378
f 377 375 376
f 379 378 380
f 379 377 378
f 379 380 381
f 379 381 382
f 381 383 384
f 382 381 384
f 385 384 383
f 386 385 383
f 387 385 386
f 388 385 387
f 389 388 387
f 390 388 389
f 391 390 389
f 392 390 391
f 393 392 391
f 394 392 393
f 395 394 393
f 396 394 395
f 397 396 395
f 398 396 397
f 399 398 397
f 400 398 399
f 401 400 399
f 402 400 401
f 403 402 401
f 404 402 403
f 405 404 403
f 406 404 405
f 407 406 405
f 408 406 407
f 409 407 410
f 409 408 407
f 411 410 412
f 411 409 410
f 413 412 414
f 413 411 412
f 415 414 416
f 415 413 414
f 417 415 416
f 418 415 417
f 419 417 420
f 419 418 417
f 421 420 422
f 421 419 420
f 423 422 424
f 423 421 422
f 425 424 426
f 425 423 424
f 427 426 428
f 427 425 426
f 429 428 430
f 429 427 428
f 431 429 430
f 432 429 431
f 433 431 434
f 433 432 431
f 435 434 436
f 435 433 434
f 437 436 438
f 437 435 436
f 439 438 440
f 439 437 438
f 441 440 442
f 441 439 440
f 443 442 444
f 443 441 442
f 445 443 444
f 446 443 445
f 447 446 445
f 448 446 447
f 449 448 447
f 449 447 450
f 451 449 450
f 452 449 451
f 453 452 451
f 454 452 453
f 455 454 453
f 455 453 456
f 457 455 456
f 457 456 458
f 459 457 458
f 459 458 460
f 300 459 460
f 300 460 298
f 461 462 463
f 461 464 462
f 465 463 466
f 465 461 463
f 467 466 468
f 467 465 466
f 469 468 470
f 469 467 468
f 471 469 470
f 472 469 471
f 473 472 471
f 473 471 474
f 475 473 474
f 476 473 475
f 477 475 478
f 477 476 475
f 479 478 480
f 479 477 478
f 481 480 482
f 481 479 480
f 483 482 484
f 483 481 482
f 485 483 484
f 486 483 485
f 487 485 488
f 487 486 485
f 489 487 488
f 490 487 489
f 491 489 492
f 491 490 489
f 493 492 494
f 493 491 492
f 495 494 496
f 495 493 494
f 497 495 496
f 498 495 497
f 499 497 500
f 499 498 497
f 501 500 502
f 501 499 500
f 503 502 504
f 503 501 502
f 505 503 504
f 506 503 505
f 507 505 508
f 507 506 505
f 509 508 510
f 509 507 508
f 511 509 510
f 512 509 511
f 513 512 511
f 514 512 513
f 515 513 516
f 515 514 513
f 517 516 518
f 517 515 516
f 519 517 518
f 520 517 519
f 521 519 522
f 521 520 519
f 523 521 522
f 524 521 523
f 525 524 523
f 525 523 526
f 527 525 526
f 528 525 527
f 529 528 527
f 530 528 529
f 531 530 529
f 532 530 531
f 533 532 531
f 533 531 534
f 535 533 534
f 535 534 536
f 535 536 537
f 535 537 538
f 538 537 539
f 538 539 540
f 541 542 540
f 541 540 539
f 543 541 544
f 543 542 541
f 545 544 546
f 545 543 544
f 547 546 548
f 547 545 546
f 549 548 550
f 549 547 548
f 551 549 550
f 551 550 552
f 553 552 554
f 553 551 552
f 555 554 556
f 555 553 554
f 557 556 558
f 557 555 556
f 559 558 560
f 559 557 558
f 561 560 562
f 561 559 560
f 563 562 564
f 563 561 562
f 565 564 566
f 565 563 564
f 567 566 568
f 567 565 566
f 569 568 570
f 569 567 568
f 571 570 572
f 571 569 570
f 573 572 574
f 573 571 572
f 575 574 576
f 575 573 574
f 577 576 578
f 577 575 576
f 579 578 580
f 579 577 578
f 581 580 582
f 581 579 580
f 583 582 584
f 583 581 582
f 585 584 586
f 585 583 584
f 587 586 588
f 587 585 586
f 589 588 590
f 589 587 588
f 591 590 592
f 591 589 590
f 593 592 594
f 593 591 592
f 595 594 596
f 595 593 594
f 597 596 598
f 597 595 596
f 599 598 600
f 599 597 598
f 601 599 600
f 601 600 602
f 603 601 602
f 603 602 604
f 605 603 604
f 605 604 606
f 607 605 606
f 607 606 608
f 609 607 608
f 609 608 610
f 611 609 610
f 611 610 612
f 613 611 612
f 614 611 613
f 615 614 613
f 615 613 616
f 617 615 616
f 617 616 618
f 464 617 618
f 464 618 462
f 331 248 245
f 331 250 248
f 331 245 334
f 336 245 244
f 336 334 245
f 330 252 250
f 330 250 331
f 338 244 241
f 338 336 244
f 327 252 330
f 327 253 252
f 327 256 253
f 339 241 240
f 339 338 241
f 326 256 327
f 326 258 256
f 342 339 240
f 324 260 258
f 324 262 260
f 324 258 326
f 343 240 238
f 343 342 240
f 322 262 324
f 322 264 262
f 322 266 264
f 346 238 236
f 346 343 238
f 319 268 266
f 319 266 322
f 348 346 236
f 318 268 319
f 318 270 268
f 318 272 270
f 350 236 234
f 350 348 236
f 352 234 232
f 352 350 234
f 315 274 272
f 315 272 318
f 354 352 232
f 314 274 315
f 314 276 274
f 314 278 276
f 356 232 229
f 356 354 232
f 358 356 229
f 358 229 228
f 312 280 278
f 312 278 314
f 360 228 226
f 360 358 228
f 309 280 312
f 309 282 280
f 309 284 282
f 361 360 226
f 308 286 284
f 308 284 309
f 364 226 224
f 364 361 226
f 306 288 286
f 306 290 288
f 306 286 308
f 366 224 222
f 366 364 224
f 304 290 306
f 304 291 290
f 368 222 220
f 368 366 222
f 302 291 304
f 302 294 291
f 369 220 218
f 369 368 220
f 372 218 216
f 372 369 218
f 299 294 302
f 299 296 294
f 373 372 216
f 298 3 2
f 298 2 296
f 298 296 299
f 376 216 213
f 376 373 216
f 460 6 3
f 460 3 298
f 458 7 6
f 458 6 460
f 378 376 213
f 456 7 458
f 456 10 7
f 380 378 213
f 453 10 456
f 453 11 10
f 451 11 453
f 451 14 11
f 450 14 451
f 450 16 14
f 450 18 16
f 447 20 18
f 447 18 450
f 445 20 447
f 445 22 20
f 445 24 22
f 444 24 445
f 444 26 24
f 442 27 26
f 442 30 27
f 442 26 444
f 440 32 30
f 440 30 442
f 438 32 440
f 438 34 32
f 438 36 34
f 436 36 438
f 436 38 36
f 434 38 436
f 431 39 38
f 431 38 434
f 430 39 431
f 430 42 39
f 428 42 430
f 44 42 428
f 44 428 426
f 424 44 426
f 46 44 424
f 46 424 422
f 381 380 213
f 48 46 422
f 48 422 420
f 50 420 417
f 50 48 420
f 211 381 213
f 52 50 417
f 52 416 414
f 52 417 416
f 54 414 412
f 54 52 414
f 56 412 410
f 56 54 412
f 58 56 410
f 58 410 407
f 60 58 407
f 62 403 401
f 62 405 403
f 62 407 405
f 62 60 407
f 399 62 401
f 397 62 399
f 496 74 71
f 497 496 71
f 497 71 70
f 494 76 74
f 494 74 496
f 500 70 67
f 500 497 70
f 492 78 76
f 492 76 494
f 502 67 66
f 502 500 67
f 489 78 492
f 504 66 64
f 504 502 66
f 488 79 78
f 488 78 489
f 485 79 488
f 485 82 79
f 505 504 64
f 505 64 62
f 484 82 485
f 484 84 82
f 508 505 62
f 482 84 484
f 482 86 84
f 510 508 62
f 480 86 482
f 480 88 86
f 480 90 88
f 480 91 90
f 511 510 62
f 478 94 91
f 478 96 94
f 478 91 480
f 513 511 62
f 516 513 62
f 475 96 478
f 475 98 96
f 475 100 98
f 475 102 100
f 518 516 62
f 474 102 475
f 474 104 102
f 474 106 104
f 519 518 62
f 519 62 397
f 471 106 474
f 471 108 106
f 471 110 108
f 471 112 110
f 522 519 397
f 522 397 395
f 470 112 471
f 470 114 112
f 470 116 114
f 523 522 395
f 523 395 393
f 526 523 393
f 468 116 470
f 468 118 116
f 468 120 118
f 527 393 391
f 527 526 393
f 466 120 468
f 466 122 120
f 466 124 122
f 529 527 391
f 531 391 389
f 531 529 391
f 463 124 466
f 463 126 124
f 534 531 389
f 534 389 387
f 536 534 387
f 536 387 386
f 462 126 463
f 462 128 126
f 618 128 462
f 616 130 128
f 616 128 618
f 613 130 616
f 613 132 130
f 612 134 132
f 612 132 613
f 610 136 134
f 610 134 612
f 608 137 136
f 608 136 610
f 606 140 137
f 606 137 608
f 604 142 140
f 604 140 606
f 383 381 211
f 602 142 604
f 602 143 142
f 600 143 602
f 600 146 143
f 598 146 600
f 598 148 146
f 596 150 148
f 596 148 598
f 594 150 596
f 594 151 150
f 592 151 594
f 592 154 151
f 590 154 592
f 590 156 154
f 588 156 590
f 588 158 156
f 586 158 588
f 586 159 158
f 584 159 586
f 584 162 159
f 582 162 584
f 582 164 162
f 580 164 582
f 166 164 580
f 578 166 580
f 168 166 578
f 168 578 576
f 169 168 576
f 169 576 574
f 537 536 386
f 537 386 383
f 172 574 572
f 172 169 574
f 173 172 572
f 176 572 570
f 176 173 572
f 178 570 568
f 178 176 570
f 180 568 566
f 180 178 568
f 182 566 564
f 182 180 566
f 184 564 562
f 184 182 564
f 185 562 560
f 185 184 562
f 188 185 560
f 189 560 558
f 189 188 560
f 192 558 556
f 192 189 558
f 194 192 556
f 194 556 554
f 195 194 554
f 195 554 552
f 198 195 552
f 198 552 550
f 199 198 550
f 199 550 548
f 201 199 548
f 201 548 546
f 203 201 546
f 203 546 544
f 206 203 544
f 206 544 541
f 208 206 541
f 539 208 541
f 209 383 211
f 209 539 537
f 209 537 383
f 209 208 539
f 214 382 212
f 379 382 214
f 377 379 214
f 375 214 215
f 375 377 214
f 374 375 215
f 371 215 217
f 371 374 215
f 370 217 219
f 370 371 217
f 367 219 221
f 367 370 219
f 365 221 223
f 365 367 221
f 363 223 225
f 363 365 223
f 362 363 225
f 359 225 227
f 359 362 225
f 357 227 230
f 357 359 227
f 355 230 231
f 355 357 230
f 353 355 231
f 351 231 233
f 351 353 231
f 349 233 235
f 349 351 233
f 347 349 235
f 345 235 237
f 345 347 235
f 344 237 239
f 344 345 237
f 341 344 239
f 340 239 242
f 340 341 239
f 337 340 242
f 337 242 243
f 335 243 246
f 335 337 243
f 384 212 382
f 333 335 246
f 332 246 247
f 332 247 249
f 332 333 246
f 329 332 249
f 251 329 249
f 328 329 251
f 254 328 251
f 255 328 254
f 255 325 328
f 257 325 255
f 257 323 325
f 259 323 257
f 261 323 259
f 261 321 323
f 263 321 261
f 265 321 263
f 265 320 321
f 267 320 265
f 267 317 320
f 269 317 267
f 271 317 269
f 271 316 317
f 385 538 384
f 273 313 316
f 273 316 271
f 275 313 273
f 277 311 313
f 277 313 275
f 279 310 311
f 279 311 277
f 281 310 279
f 283 307 310
f 283 310 281
f 285 305 307
f 285 307 283
f 287 305 285
f 289 303 305
f 289 305 287
f 292 301 303
f 292 303 289
f 535 538 385
f 535 385 388
f 533 388 390
f 533 535 388
f 532 533 390
f 532 390 392
f 293 297 301
f 293 301 292
f 530 532 392
f 528 530 392
f 528 392 394
f 295 300 297
f 295 297 293
f 525 528 394
f 4 300 295
f 524 525 394
f 524 394 396
f 521 524 396
f 521 396 398
f 1 459 300
f 1 300 4
f 520 521 398
f 5 457 459
f 5 459 1
f 8 455 457
f 8 457 5
f 61 404 406
f 61 406 408
f 61 520 398
f 61 515 517
f 61 517 520
f 61 398 400
f 61 400 402
f 61 402 404
f 9 455 8
f 9 454 455
f 59 61 408
f 514 515 61
f 57 408 409
f 57 59 408
f 12 452 454
f 12 454 9
f 512 514 61
f 55 409 411
f 55 57 409
f 13 452 12
f 13 449 452
f 53 411 413
f 53 55 411
f 15 449 13
f 509 512 61
f 17 448 449
f 17 449 15
f 51 53 413
f 51 413 415
f 51 415 418
f 19 448 17
f 19 446 448
f 507 509 61
f 210 384 538
f 210 212 384
f 49 418 419
f 49 51 418
f 21 446 19
f 47 419 421
f 47 49 419
f 23 443 446
f 23 446 21
f 45 421 423
f 45 47 421
f 506 507 61
f 506 61 63
f 25 443 23
f 25 441 443
f 43 423 425
f 43 425 427
f 43 45 423
f 28 441 25
f 41 43 427
f 41 427 429
f 29 439 441
f 29 441 28
f 40 429 432
f 40 41 429
f 31 437 439
f 31 439 29
f 37 432 433
f 37 433 435
f 37 40 432
f 33 437 31
f 35 435 437
f 35 37 435
f 35 437 33
f 503 506 63
f 503 63 65
f 540 210 538
f 501 503 65
f 501 65 68
f 499 68 69
f 499 501 68
f 498 69 72
f 498 499 69
f 495 72 73
f 495 498 72
f 493 73 75
f 493 495 73
f 491 493 75
f 77 490 491
f 77 491 75
f 487 490 77
f 80 486 487
f 80 487 77
f 81 483 486
f 81 486 80
f 83 483 81
f 83 481 483
f 85 481 83
f 85 479 481
f 87 479 85
f 89 479 87
f 92 479 89
f 92 477 479
f 93 477 92
f 95 476 477
f 95 477 93
f 97 476 95
f 99 476 97
f 101 473 476
f 101 476 99
f 103 473 101
f 105 472 473
f 105 473 103
f 107 472 105
f 109 472 107
f 111 469 472
f 111 472 109
f 113 469 111
f 115 467 469
f 115 469 113
f 117 467 115
f 119 465 467
f 119 467 117
f 121 465 119
f 207 210 540
f 207 540 542
f 123 461 465
f 123 465 121
f 205 207 542
f 205 542 543
f 204 205 543
f 204 543 545
f 125 461 123
f 125 464 461
f 202 545 547
f 202 204 545
f 127 615 617
f 127 617 464
f 127 464 125
f 129 614 615
f 129 615 127
f 200 202 547
f 200 547 549
f 131 611 614
f 131 614 129
f 197 549 551
f 197 200 549
f 133 609 611
f 133 611 131
f 196 197 551
f 196 551 553
f 135 607 609
f 135 609 133
f 193 196 553
f 193 553 555
f 138 605 607
f 138 607 135
f 191 193 555
f 191 555 557
f 139 605 138
f 139 603 605
f 190 557 559
f 190 191 557
f 141 603 139
f 141 601 603
f 187 190 559
f 144 601 141
f 144 599 601
f 186 187 559
f 186 559 561
f 183 561 563
f 183 186 561
f 145 599 144
f 145 597 599
f 181 563 565
f 181 183 563
f 147 597 145
f 147 595 597
f 179 181 565
f 179 565 567
f 149 595 147
f 149 593 595
f 177 567 569
f 177 179 567
f 152 591 593
f 152 593 149
f 175 569 571
f 175 177 569
f 153 589 591
f 153 591 152
f 174 175 571
f 155 589 153
f 155 587 589
f 171 571 573
f 171 174 571
f 157 587 155
f 157 585 587
f 170 171 573
f 170 573 575
f 160 585 157
f 160 583 585
f 167 170 575
f 167 575 577
f 161 583 160
f 161 581 583
f 165 167 577
f 165 577 579
f 163 581 161
f 163 165 579
f 163 579 581
