# USD → MuJoCo (world-space)
v 0.046710 0.000250 0.118777
v 0.042620 -0.000250 0.099686
v 0.046710 -0.000250 0.118777
v 0.042620 0.000250 0.099686
v 0.069892 -0.000250 0.118777
v 0.069892 0.000250 0.118777
v 0.069892 -0.000250 -0.001223
v 0.069892 0.000250 -0.001223
v 0.000347 -0.000250 -0.001223
v 0.000347 0.000250 -0.001223
v 0.000347 -0.000250 0.024686
v 0.000347 0.000250 0.024686
v 0.042620 -0.000250 0.024686
v 0.042620 0.000250 0.024686
v 0.042620 -0.000250 0.039686
v 0.042620 0.000250 0.039686
v 0.042559 0.000250 0.043805
v 0.042559 -0.000250 0.043805
v 0.042377 0.000250 0.047754
v 0.042377 -0.000250 0.047754
v 0.042087 0.000250 0.051383
v 0.042087 -0.000250 0.051383
v 0.041696 0.000250 0.054788
v 0.041696 -0.000250 0.054788
v 0.041207 0.000250 0.057979
v 0.041207 -0.000250 0.057979
v 0.040628 -0.000250 0.060968
v 0.040628 0.000250 0.060968
v 0.039964 0.000250 0.063765
v 0.039964 -0.000250 0.063765
v 0.039284 0.000250 0.066167
v 0.039284 -0.000250 0.066167
v 0.038527 -0.000250 0.068462
v 0.038527 0.000250 0.068462
v 0.037692 0.000250 0.070648
v 0.037692 -0.000250 0.070648
v 0.036875 0.000250 0.072523
v 0.036875 -0.000250 0.072523
v 0.036086 0.000250 0.074135
v 0.036086 -0.000250 0.074135
v 0.035247 -0.000250 0.075677
v 0.035247 0.000250 0.075677
v 0.034356 0.000250 0.077147
v 0.034356 -0.000250 0.077147
v 0.033415 0.000250 0.078546
v 0.033415 -0.000250 0.078546
v 0.032525 0.000250 0.079745
v 0.032525 -0.000250 0.079745
v 0.031691 0.000250 0.080776
v 0.031691 -0.000250 0.080776
v 0.030833 0.000250 0.081765
v 0.030833 -0.000250 0.081765
v 0.029951 0.000250 0.082711
v 0.029951 -0.000250 0.082711
v 0.029044 0.000250 0.083616
v 0.029044 -0.000250 0.083616
v 0.028113 0.000250 0.084478
v 0.028113 -0.000250 0.084478
v 0.027157 -0.000250 0.085298
v 0.027157 0.000250 0.085298
v 0.026177 0.000250 0.086076
v 0.026177 -0.000250 0.086076
v 0.025173 0.000250 0.086812
v 0.025173 -0.000250 0.086812
v 0.024144 0.000250 0.087506
v 0.024144 -0.000250 0.087506
v 0.023091 0.000250 0.088157
v 0.023091 -0.000250 0.088157
v 0.022013 0.000250 0.088767
v 0.022013 -0.000250 0.088767
v 0.020911 -0.000250 0.089334
v 0.020911 0.000250 0.089334
v 0.019784 0.000250 0.089859
v 0.019784 -0.000250 0.089859
v 0.018633 0.000250 0.090341
v 0.018633 -0.000250 0.090341
v 0.017458 0.000250 0.090782
v 0.017458 -0.000250 0.090782
v 0.016258 -0.000250 0.091180
v 0.016258 0.000250 0.091180
v 0.015034 0.000250 0.091537
v 0.015034 -0.000250 0.091537
v 0.013785 -0.000250 0.091851
v 0.013785 0.000250 0.091851
v 0.012512 0.000250 0.092123
v 0.012512 -0.000250 0.092123
v 0.011215 0.000250 0.092352
v 0.011215 -0.000250 0.092352
v 0.009893 -0.000250 0.092540
v 0.009893 0.000250 0.092540
v 0.008547 0.000250 0.092685
v 0.008547 -0.000250 0.092685
v 0.007176 0.000250 0.092788
v 0.007176 -0.000250 0.092788
v 0.005781 -0.000250 0.092849
v 0.005781 0.000250 0.092849
v 0.004361 -0.000250 0.092868
v 0.004361 0.000250 0.092868
v 0.002938 0.000250 0.092834
v 0.002938 -0.000250 0.092834
v 0.001528 -0.000250 0.092737
v 0.001528 0.000250 0.092737
v 0.000132 0.000250 0.092578
v 0.000132 -0.000250 0.092578
v -0.001251 0.000250 0.092358
v -0.001251 -0.000250 0.092358
v -0.002621 0.000250 0.092075
v -0.002621 -0.000250 0.092075
v -0.003977 0.000250 0.091729
v -0.003977 -0.000250 0.091729
v -0.005321 0.000250 0.091322
v -0.005321 -0.000250 0.091322
v -0.006651 0.000250 0.090853
v -0.006651 -0.000250 0.090853
v -0.007967 0.000250 0.090321
v -0.007967 -0.000250 0.090321
v -0.009270 0.000250 0.089727
v -0.009270 -0.000250 0.089727
v -0.010560 0.000250 0.089071
v -0.010560 -0.000250 0.089071
v -0.011837 0.000250 0.088353
v -0.011837 -0.000250 0.088353
v -0.013100 0.000250 0.087573
v -0.013100 -0.000250 0.087573
v -0.014350 0.000250 0.086731
v -0.014350 -0.000250 0.086731
v -0.015587 0.000250 0.085826
v -0.015587 -0.000250 0.085826
v -0.016810 0.000250 0.084859
v -0.016810 -0.000250 0.084859
v -0.018020 0.000250 0.083830
v -0.018020 -0.000250 0.083830
v -0.019217 0.000250 0.082739
v -0.019217 -0.000250 0.082739
v -0.020400 0.000250 0.081586
v -0.020400 -0.000250 0.081586
v -0.021570 -0.000250 0.080371
v -0.021570 0.000250 0.080371
v -0.022727 0.000250 0.079094
v -0.022727 -0.000250 0.079094
v -0.023870 0.000250 0.077754
v -0.023870 -0.000250 0.077754
v -0.025374 0.000250 0.075871
v -0.025374 -0.000250 0.075871
v -0.027037 0.000250 0.073621
v -0.027037 -0.000250 0.073621
v -0.028094 0.000250 0.072045
v -0.028094 -0.000250 0.072045
v -0.029137 0.000250 0.070321
v -0.029137 -0.000250 0.070321
v -0.030036 0.000250 0.068679
v -0.030036 -0.000250 0.068679
v -0.030899 0.000250 0.066953
v -0.030899 -0.000250 0.066953
v -0.031724 -0.000250 0.065142
v -0.031724 0.000250 0.065142
v -0.032513 0.000250 0.063246
v -0.032513 -0.000250 0.063246
v -0.033265 0.000250 0.061266
v -0.033265 -0.000250 0.061266
v -0.033980 0.000250 0.059201
v -0.033980 -0.000250 0.059201
v -0.034876 -0.000250 0.056315
v -0.034876 0.000250 0.056315
v -0.035861 0.000250 0.052670
v -0.035861 -0.000250 0.052670
v -0.036772 0.000250 0.048713
v -0.036772 -0.000250 0.048713
v -0.037605 0.000250 0.044423
v -0.037605 -0.000250 0.044423
v -0.038351 0.000250 0.039782
v -0.038351 -0.000250 0.039782
v -0.039003 0.000250 0.034769
v -0.039003 -0.000250 0.034769
v -0.039553 0.000250 0.029361
v -0.039553 -0.000250 0.029361
v -0.039993 0.000250 0.023538
v -0.039993 -0.000250 0.023538
v -0.040314 0.000250 0.017277
v -0.040314 -0.000250 0.017277
v -0.040507 0.000250 0.010554
v -0.040507 -0.000250 0.010554
v -0.040561 0.000250 0.003303
v -0.040561 -0.000250 0.003303
v -0.040487 0.000250 -0.004404
v -0.040487 -0.000250 -0.004404
v -0.040297 0.000250 -0.011615
v -0.040297 -0.000250 -0.011615
v -0.039999 -0.000250 -0.018352
v -0.039999 0.000250 -0.018352
v -0.039601 0.000250 -0.024637
v -0.039601 -0.000250 -0.024637
v -0.039110 0.000250 -0.030491
v -0.039110 -0.000250 -0.030491
v -0.038533 0.000250 -0.035936
v -0.038533 -0.000250 -0.035936
v -0.037876 0.000250 -0.040992
v -0.037876 -0.000250 -0.040992
v -0.037146 0.000250 -0.045679
v -0.037146 -0.000250 -0.045679
v -0.036350 0.000250 -0.050016
v -0.036350 -0.000250 -0.050016
v -0.035492 0.000250 -0.054022
v -0.035492 -0.000250 -0.054022
v -0.034578 -0.000250 -0.057715
v -0.034578 0.000250 -0.057715
v -0.033614 0.000250 -0.061113
v -0.033614 -0.000250 -0.061113
v -0.032604 -0.000250 -0.064233
v -0.032604 0.000250 -0.064233
v -0.031552 0.000250 -0.067090
v -0.031552 -0.000250 -0.067090
v -0.030464 0.000250 -0.069702
v -0.030464 -0.000250 -0.069702
v -0.029431 0.000250 -0.071904
v -0.029431 -0.000250 -0.071904
v -0.028348 0.000250 -0.073990
v -0.028348 -0.000250 -0.073990
v -0.027214 -0.000250 -0.075973
v -0.027214 0.000250 -0.075973
v -0.026031 -0.000250 -0.077852
v -0.026031 0.000250 -0.077852
v -0.024797 0.000250 -0.079628
v -0.024797 -0.000250 -0.079628
v -0.023512 0.000250 -0.081299
v -0.023512 -0.000250 -0.081299
v -0.022313 -0.000250 -0.082715
v -0.022313 0.000250 -0.082715
v -0.021200 0.000250 -0.083918
v -0.021200 -0.000250 -0.083918
v -0.020053 -0.000250 -0.085052
v -0.020053 0.000250 -0.085052
v -0.018873 0.000250 -0.086119
v -0.018873 -0.000250 -0.086119
v -0.017660 0.000250 -0.087117
v -0.017660 -0.000250 -0.087117
v -0.016414 0.000250 -0.088047
v -0.016414 -0.000250 -0.088047
v -0.015136 -0.000250 -0.088909
v -0.015136 0.000250 -0.088909
v -0.013824 -0.000250 -0.089704
v -0.013824 0.000250 -0.089704
v -0.012479 0.000250 -0.090430
v -0.012479 -0.000250 -0.090430
v -0.011102 0.000250 -0.091088
v -0.011102 -0.000250 -0.091088
v -0.009691 -0.000250 -0.091678
v -0.009691 0.000250 -0.091678
v -0.008247 0.000250 -0.092200
v -0.008247 -0.000250 -0.092200
v -0.006770 0.000250 -0.092654
v -0.006770 -0.000250 -0.092654
v -0.005261 0.000250 -0.093040
v -0.005261 -0.000250 -0.093040
v -0.003718 -0.000250 -0.093358
v -0.003718 0.000250 -0.093358
v -0.002142 0.000250 -0.093608
v -0.002142 -0.000250 -0.093608
v -0.000534 0.000250 -0.093789
v -0.000534 -0.000250 -0.093789
v 0.001108 0.000250 -0.093903
v 0.001108 -0.000250 -0.093903
v 0.002783 0.000250 -0.093949
v 0.002783 -0.000250 -0.093949
v 0.004207 0.000250 -0.093935
v 0.004207 -0.000250 -0.093935
v 0.005553 0.000250 -0.093878
v 0.005553 -0.000250 -0.093878
v 0.006874 -0.000250 -0.093777
v 0.006874 0.000250 -0.093777
v 0.008170 -0.000250 -0.093633
v 0.008170 0.000250 -0.093633
v 0.009442 -0.000250 -0.093445
v 0.009442 0.000250 -0.093445
v 0.010689 0.000250 -0.093215
v 0.010689 -0.000250 -0.093215
v 0.011911 0.000250 -0.092941
v 0.011911 -0.000250 -0.092941
v 0.013108 0.000250 -0.092623
v 0.013108 -0.000250 -0.092623
v 0.014281 0.000250 -0.092263
v 0.014281 -0.000250 -0.092263
v 0.015428 -0.000250 -0.091859
v 0.015428 0.000250 -0.091859
v 0.016552 0.000250 -0.091412
v 0.016552 -0.000250 -0.091412
v 0.017650 -0.000250 -0.090921
v 0.017650 0.000250 -0.090921
v 0.018724 0.000250 -0.090387
v 0.018724 -0.000250 -0.090387
v 0.019772 -0.000250 -0.089810
v 0.019772 0.000250 -0.089810
v 0.020797 0.000250 -0.089190
v 0.020797 -0.000250 -0.089190
v 0.021796 -0.000250 -0.088526
v 0.021796 0.000250 -0.088526
v 0.022771 -0.000250 -0.087819
v 0.022771 0.000250 -0.087819
v 0.023721 0.000250 -0.087069
v 0.023721 -0.000250 -0.087069
v 0.024646 0.000250 -0.086275
v 0.024646 -0.000250 -0.086275
v 0.025546 -0.000250 -0.085439
v 0.025546 0.000250 -0.085439
v 0.026422 0.000250 -0.084558
v 0.026422 -0.000250 -0.084558
v 0.027273 0.000250 -0.083635
v 0.027273 -0.000250 -0.083635
v 0.028099 0.000250 -0.082668
v 0.028099 -0.000250 -0.082668
v 0.028900 0.000250 -0.081658
v 0.028900 -0.000250 -0.081658
v 0.029677 0.000250 -0.080605
v 0.029677 -0.000250 -0.080605
v 0.030429 -0.000250 -0.079508
v 0.030429 0.000250 -0.079508
v 0.031154 0.000250 -0.078368
v 0.031154 -0.000250 -0.078368
v 0.031850 0.000250 -0.077185
v 0.031850 -0.000250 -0.077185
v 0.032517 0.000250 -0.075958
v 0.032517 -0.000250 -0.075958
v 0.033155 0.000250 -0.074688
v 0.033155 -0.000250 -0.074688
v 0.033764 -0.000250 -0.073375
v 0.033764 0.000250 -0.073375
v 0.034344 0.000250 -0.072018
v 0.034344 -0.000250 -0.072018
v 0.034896 -0.000250 -0.070619
v 0.034896 0.000250 -0.070619
v 0.035586 0.000250 -0.068685
v 0.035586 -0.000250 -0.068685
v 0.036302 0.000250 -0.066417
v 0.036302 -0.000250 -0.066417
v 0.036952 0.000250 -0.064053
v 0.036952 -0.000250 -0.064053
v 0.037538 0.000250 -0.061590
v 0.037538 -0.000250 -0.061590
v 0.038058 0.000250 -0.059031
v 0.038058 -0.000250 -0.059031
v 0.038514 0.000250 -0.056373
v 0.038514 -0.000250 -0.056373
v 0.038905 0.000250 -0.053619
v 0.038905 -0.000250 -0.053619
v 0.039324 -0.000250 -0.049794
v 0.039324 0.000250 -0.049794
v 0.039646 0.000250 -0.045509
v 0.039646 -0.000250 -0.045509
v 0.039831 0.000250 -0.041186
v 0.039831 -0.000250 -0.041186
v 0.039892 0.000250 -0.036677
v 0.039892 -0.000250 -0.036677
v 0.069892 -0.000250 -0.036677
v 0.069892 0.000250 -0.036677
v 0.069832 0.000250 -0.040941
v 0.069832 -0.000250 -0.040941
v 0.069649 0.000250 -0.045112
v 0.069649 -0.000250 -0.045112
v 0.069353 -0.000250 -0.049104
v 0.069353 0.000250 -0.049104
v 0.068945 0.000250 -0.052968
v 0.068945 -0.000250 -0.052968
v 0.068429 0.000250 -0.056708
v 0.068429 -0.000250 -0.056708
v 0.067807 -0.000250 -0.060328
v 0.067807 0.000250 -0.060328
v 0.067082 0.000250 -0.063834
v 0.067082 -0.000250 -0.063834
v 0.066257 0.000250 -0.067228
v 0.066257 -0.000250 -0.067228
v 0.065332 0.000250 -0.070516
v 0.065332 -0.000250 -0.070516
v 0.064312 0.000250 -0.073700
v 0.064312 -0.000250 -0.073700
v 0.063195 0.000250 -0.076785
v 0.063195 -0.000250 -0.076785
v 0.061985 -0.000250 -0.079775
v 0.061985 0.000250 -0.079775
v 0.060681 0.000250 -0.082671
v 0.060681 -0.000250 -0.082671
v 0.059285 -0.000250 -0.085479
v 0.059285 0.000250 -0.085479
v 0.057795 0.000250 -0.088201
v 0.057795 -0.000250 -0.088201
v 0.056213 0.000250 -0.090839
v 0.056213 -0.000250 -0.090839
v 0.054538 -0.000250 -0.093397
v 0.054538 0.000250 -0.093397
v 0.052769 0.000250 -0.095877
v 0.052769 -0.000250 -0.095877
v 0.050909 0.000250 -0.098269
v 0.050909 -0.000250 -0.098269
v 0.049089 0.000250 -0.100410
v 0.049089 -0.000250 -0.100410
v 0.047395 0.000250 -0.102241
v 0.047395 -0.000250 -0.102241
v 0.045647 0.000250 -0.103981
v 0.045647 -0.000250 -0.103981
v 0.043846 0.000250 -0.105631
v 0.043846 -0.000250 -0.105631
v 0.041992 0.000250 -0.107191
v 0.041992 -0.000250 -0.107191
v 0.040085 -0.000250 -0.108660
v 0.040085 0.000250 -0.108660
v 0.038125 0.000250 -0.110039
v 0.038125 -0.000250 -0.110039
v 0.036111 0.000250 -0.111327
v 0.036111 -0.000250 -0.111327
v 0.034044 0.000250 -0.112524
v 0.034044 -0.000250 -0.112524
v 0.031924 0.000250 -0.113631
v 0.031924 -0.000250 -0.113631
v 0.029750 -0.000250 -0.114648
v 0.029750 0.000250 -0.114648
v 0.027524 0.000250 -0.115574
v 0.027524 -0.000250 -0.115574
v 0.025244 0.000250 -0.116409
v 0.025244 -0.000250 -0.116409
v 0.022910 0.000250 -0.117154
v 0.022910 -0.000250 -0.117154
v 0.020524 0.000250 -0.117808
v 0.020524 -0.000250 -0.117808
v 0.018084 0.000250 -0.118372
v 0.018084 -0.000250 -0.118372
v 0.015592 0.000250 -0.118846
v 0.015592 -0.000250 -0.118846
v 0.013045 0.000250 -0.119229
v 0.013045 -0.000250 -0.119229
v 0.010446 0.000250 -0.119521
v 0.010446 -0.000250 -0.119521
v 0.007793 0.000250 -0.119723
v 0.007793 -0.000250 -0.119723
v 0.005088 0.000250 -0.119835
v 0.005088 -0.000250 -0.119835
v 0.002236 0.000250 -0.119855
v 0.002236 -0.000250 -0.119855
v -0.000852 0.000250 -0.119761
v -0.000852 -0.000250 -0.119761
v -0.003836 0.000250 -0.119548
v -0.003836 -0.000250 -0.119548
v -0.006473 0.000250 -0.119256
v -0.006473 -0.000250 -0.119256
v -0.009064 0.000250 -0.118867
v -0.009064 -0.000250 -0.118867
v -0.011609 0.000250 -0.118382
v -0.011609 -0.000250 -0.118382
v -0.014108 0.000250 -0.117800
v -0.014108 -0.000250 -0.117800
v -0.016561 0.000250 -0.117123
v -0.016561 -0.000250 -0.117123
v -0.018968 0.000250 -0.116349
v -0.018968 -0.000250 -0.116349
v -0.021329 0.000250 -0.115479
v -0.021329 -0.000250 -0.115479
v -0.023644 0.000250 -0.114513
v -0.023644 -0.000250 -0.114513
v -0.025913 0.000250 -0.113451
v -0.025913 -0.000250 -0.113451
v -0.028136 0.000250 -0.112292
v -0.028136 -0.000250 -0.112292
v -0.030313 0.000250 -0.111038
v -0.030313 -0.000250 -0.111038
v -0.032444 0.000250 -0.109687
v -0.032444 -0.000250 -0.109687
v -0.034529 0.000250 -0.108240
v -0.034529 -0.000250 -0.108240
v -0.036568 0.000250 -0.106696
v -0.036568 -0.000250 -0.106696
v -0.038560 0.000250 -0.105057
v -0.038560 -0.000250 -0.105057
v -0.040507 0.000250 -0.103321
v -0.040507 -0.000250 -0.103321
v -0.042408 0.000250 -0.101489
v -0.042408 -0.000250 -0.101489
v -0.044263 0.000250 -0.099561
v -0.044263 -0.000250 -0.099561
v -0.046072 0.000250 -0.097537
v -0.046072 -0.000250 -0.097537
v -0.047835 0.000250 -0.095416
v -0.047835 -0.000250 -0.095416
v -0.049551 -0.000250 -0.093199
v -0.049551 0.000250 -0.093199
v -0.051222 0.000250 -0.090886
v -0.051222 -0.000250 -0.090886
v -0.052847 0.000250 -0.088477
v -0.052847 -0.000250 -0.088477
v -0.054417 0.000250 -0.085970
v -0.054417 -0.000250 -0.085970
v -0.055925 0.000250 -0.083362
v -0.055925 -0.000250 -0.083362
v -0.057656 0.000250 -0.080091
v -0.057656 -0.000250 -0.080091
v -0.059314 0.000250 -0.076633
v -0.059314 -0.000250 -0.076633
v -0.060899 -0.000250 -0.072982
v -0.060899 0.000250 -0.072982
v -0.062406 0.000250 -0.069128
v -0.062406 -0.000250 -0.069128
v -0.063834 0.000250 -0.065063
v -0.063834 -0.000250 -0.065063
v -0.065180 0.000250 -0.060777
v -0.065180 -0.000250 -0.060777
v -0.066439 0.000250 -0.056263
v -0.066439 -0.000250 -0.056263
v -0.067607 0.000250 -0.051509
v -0.067607 -0.000250 -0.051509
v -0.068682 0.000250 -0.046506
v -0.068682 -0.000250 -0.046506
v -0.069657 0.000250 -0.041244
v -0.069657 -0.000250 -0.041244
v -0.070529 -0.000250 -0.035713
v -0.070529 0.000250 -0.035713
v -0.071292 -0.000250 -0.029901
v -0.071292 0.000250 -0.029901
v -0.071941 0.000250 -0.023799
v -0.071941 -0.000250 -0.023799
v -0.072470 0.000250 -0.017394
v -0.072470 -0.000250 -0.017394
v -0.072873 0.000250 -0.010675
v -0.072873 -0.000250 -0.010675
v -0.073144 -0.000250 -0.003631
v -0.073144 0.000250 -0.003631
v -0.073277 0.000250 0.003751
v -0.073277 -0.000250 0.003751
v -0.073271 0.000250 0.010328
v -0.073271 -0.000250 0.010328
v -0.073144 0.000250 0.016192
v -0.073144 -0.000250 0.016192
v -0.072902 -0.000250 0.021807
v -0.072902 0.000250 0.021807
v -0.072549 -0.000250 0.027180
v -0.072549 0.000250 0.027180
v -0.072091 0.000250 0.032320
v -0.072091 -0.000250 0.032320
v -0.071532 0.000250 0.037235
v -0.071532 -0.000250 0.037235
v -0.070876 0.000250 0.041932
v -0.070876 -0.000250 0.041932
v -0.070127 0.000250 0.046419
v -0.070127 -0.000250 0.046419
v -0.069290 0.000250 0.050705
v -0.069290 -0.000250 0.050705
v -0.068368 0.000250 0.054796
v -0.068368 -0.000250 0.054796
v -0.067365 -0.000250 0.058699
v -0.067365 0.000250 0.058699
v -0.066283 0.000250 0.062421
v -0.066283 -0.000250 0.062421
v -0.065126 0.000250 0.065970
v -0.065126 -0.000250 0.065970
v -0.063897 0.000250 0.069352
v -0.063897 -0.000250 0.069352
v -0.062597 -0.000250 0.072573
v -0.062597 0.000250 0.072573
v -0.061230 -0.000250 0.075640
v -0.061230 0.000250 0.075640
v -0.059796 0.000250 0.078558
v -0.059796 -0.000250 0.078558
v -0.058298 0.000250 0.081333
v -0.058298 -0.000250 0.081333
v -0.056737 -0.000250 0.083970
v -0.056737 0.000250 0.083970
v -0.055114 -0.000250 0.086475
v -0.055114 0.000250 0.086475
v -0.053588 -0.000250 0.088637
v -0.053588 0.000250 0.088637
v -0.052000 0.000250 0.090712
v -0.052000 -0.000250 0.090712
v -0.050353 0.000250 0.092699
v -0.050353 -0.000250 0.092699
v -0.048114 0.000250 0.095231
v -0.048114 -0.000250 0.095231
v -0.045720 0.000250 0.097761
v -0.045720 -0.000250 0.097761
v -0.043321 0.000250 0.100121
v -0.043321 -0.000250 0.100121
v -0.040916 -0.000250 0.102316
v -0.040916 0.000250 0.102316
v -0.038507 0.000250 0.104353
v -0.038507 -0.000250 0.104353
v -0.036090 -0.000250 0.106237
v -0.036090 0.000250 0.106237
v -0.033666 0.000250 0.107974
v -0.033666 -0.000250 0.107974
v -0.031459 -0.000250 0.109426
v -0.031459 0.000250 0.109426
v -0.029227 0.000250 0.110774
v -0.029227 -0.000250 0.110774
v -0.026972 0.000250 0.112017
v -0.026972 -0.000250 0.112017
v -0.024692 -0.000250 0.113155
v -0.024692 0.000250 0.113155
v -0.022388 -0.000250 0.114188
v -0.022388 0.000250 0.114188
v -0.020060 0.000250 0.115116
v -0.020060 -0.000250 0.115116
v -0.017707 0.000250 0.115940
v -0.017707 -0.000250 0.115940
v -0.015331 0.000250 0.116659
v -0.015331 -0.000250 0.116659
v -0.012930 -0.000250 0.117273
v -0.012930 0.000250 0.117273
v -0.010505 0.000250 0.117782
v -0.010505 -0.000250 0.117782
v -0.008056 0.000250 0.118186
v -0.008056 -0.000250 0.118186
v -0.005583 0.000250 0.118486
v -0.005583 -0.000250 0.118486
v -0.003085 0.000250 0.118681
v -0.003085 -0.000250 0.118681
v -0.000563 -0.000250 0.118771
v -0.000563 0.000250 0.118771
v 0.003913 0.000250 0.118682
v 0.001523 0.000250 0.118767
v 0.001523 -0.000250 0.118767
v 0.003913 -0.000250 0.118682
v 0.006562 0.000250 0.118484
v 0.006562 -0.000250 0.118484
v 0.009171 0.000250 0.118177
v 0.009171 -0.000250 0.118177
v 0.011739 -0.000250 0.117761
v 0.011739 0.000250 0.117761
v 0.014266 0.000250 0.117236
v 0.014266 -0.000250 0.117236
v 0.016753 0.000250 0.116602
v 0.016753 -0.000250 0.116602
v 0.019198 0.000250 0.115860
v 0.019198 -0.000250 0.115860
v 0.021603 0.000250 0.115009
v 0.021603 -0.000250 0.115009
v 0.023967 0.000250 0.114049
v 0.023967 -0.000250 0.114049
v 0.026286 0.000250 0.112982
v 0.026286 -0.000250 0.112982
v 0.028503 0.000250 0.111848
v 0.028503 -0.000250 0.111848
v 0.030596 -0.000250 0.110660
v 0.030596 0.000250 0.110660
v 0.032568 0.000250 0.109418
v 0.032568 -0.000250 0.109418
v 0.034237 0.000250 0.108253
v 0.034237 -0.000250 0.108253
v 0.035655 -0.000250 0.107167
v 0.035655 0.000250 0.107167
v 0.036993 0.000250 0.106045
v 0.036993 -0.000250 0.106045
v 0.038250 0.000250 0.104888
v 0.038250 -0.000250 0.104888
v 0.039426 0.000250 0.103695
v 0.039426 -0.000250 0.103695
v 0.040417 0.000250 0.102591
v 0.040417 -0.000250 0.102591
v 0.041253 0.000250 0.101572
v 0.041253 -0.000250 0.101572
v 0.041957 0.000250 0.100639
v 0.041957 -0.000250 0.100639
v 0.000719 0.000000 0.118776
v 0.000282 -0.000125 0.118777
v 0.000282 0.000125 0.118777
f 1 2 3
f 1 4 2
f 5 6 1
f 5 1 3
f 6 5 7
f 6 7 8
f 7 9 10
f 8 7 10
f 11 12 10
f 11 10 9
f 13 14 12
f 13 12 11
f 15 16 14
f 15 14 13
f 17 15 18
f 17 16 15
f 19 18 20
f 19 17 18
f 21 20 22
f 21 19 20
f 23 22 24
f 23 21 22
f 25 24 26
f 25 23 24
f 27 25 26
f 28 25 27
f 29 27 30
f 29 28 27
f 31 30 32
f 31 29 30
f 33 31 32
f 34 31 33
f 35 33 36
f 35 34 33
f 37 36 38
f 37 35 36
f 39 38 40
f 39 37 38
f 41 39 40
f 42 39 41
f 43 41 44
f 43 42 41
f 45 44 46
f 45 43 44
f 47 46 48
f 47 45 46
f 49 47 48
f 49 48 50
f 51 49 50
f 51 50 52
f 53 51 52
f 53 52 54
f 55 53 54
f 55 54 56
f 57 56 58
f 57 55 56
f 59 57 58
f 60 57 59
f 61 59 62
f 61 60 59
f 63 62 64
f 63 61 62
f 65 64 66
f 65 63 64
f 67 66 68
f 67 65 66
f 69 68 70
f 69 67 68
f 71 69 70
f 72 69 71
f 73 71 74
f 73 72 71
f 75 74 76
f 75 73 74
f 77 76 78
f 77 75 76
f 79 77 78
f 80 77 79
f 81 79 82
f 81 80 79
f 83 81 82
f 84 81 83
f 85 83 86
f 85 84 83
f 87 86 88
f 87 85 86
f 89 87 88
f 90 87 89
f 91 89 92
f 91 90 89
f 93 92 94
f 93 91 92
f 95 93 94
f 96 93 95
f 97 96 95
f 98 96 97
f 99 98 97
f 99 97 100
f 101 99 100
f 102 99 101
f 103 102 101
f 103 101 104
f 105 103 104
f 105 104 106
f 107 105 106
f 107 106 108
f 109 107 108
f 109 108 110
f 111 109 110
f 111 110 112
f 113 111 112
f 113 112 114
f 115 113 114
f 115 114 116
f 117 115 116
f 117 116 118
f 119 117 118
f 119 118 120
f 121 119 120
f 121 120 122
f 123 121 122
f 123 122 124
f 125 124 126
f 125 123 124
f 127 126 128
f 127 125 126
f 129 128 130
f 129 127 128
f 131 130 132
f 131 129 130
f 133 132 134
f 133 131 132
f 135 134 136
f 135 133 134
f 137 135 136
f 138 135 137
f 139 137 140
f 139 138 137
f 141 140 142
f 141 139 140
f 143 142 144
f 143 141 142
f 145 144 146
f 145 143 144
f 147 146 148
f 147 145 146
f 149 147 148
f 149 148 150
f 151 149 150
f 151 150 152
f 153 151 152
f 153 152 154
f 155 153 154
f 156 153 155
f 157 156 155
f 157 155 158
f 159 157 158
f 159 158 160
f 161 159 160
f 161 160 162
f 163 161 162
f 164 161 163
f 165 164 163
f 165 163 166
f 167 165 166
f 167 166 168
f 169 167 168
f 169 168 170
f 171 169 170
f 171 170 172
f 173 171 172
f 173 172 174
f 175 173 174
f 175 174 176
f 177 175 176
f 177 176 178
f 179 177 178
f 179 178 180
f 181 179 180
f 181 180 182
f 183 181 182
f 183 182 184
f 185 183 184
f 185 184 186
f 187 185 186
f 187 186 188
f 189 187 188
f 190 187 189
f 191 189 192
f 191 190 189
f 193 192 194
f 193 191 192
f 195 194 196
f 195 193 194
f 197 196 198
f 197 195 196
f 199 197 198
f 199 198 200
f 201 199 200
f 201 200 202
f 203 201 202
f 203 202 204
f 205 203 204
f 206 203 205
f 207 206 205
f 207 205 208
f 209 207 208
f 210 207 209
f 211 210 209
f 211 209 212
f 213 211 212
f 213 212 214
f 215 213 214
f 215 214 216
f 217 216 218
f 217 215 216
f 219 217 218
f 220 217 219
f 221 220 219
f 222 220 221
f 223 221 224
f 223 222 221
f 225 224 226
f 225 223 224
f 227 225 226
f 228 225 227
f 229 227 230
f 229 228 227
f 231 229 230
f 232 229 231
f 233 231 234
f 233 232 231
f 235 234 236
f 235 233 234
f 237 236 238
f 237 235 236
f 239 237 238
f 240 237 239
f 241 240 239
f 242 240 241
f 243 241 244
f 243 242 241
f 245 244 246
f 245 243 244
f 247 245 246
f 248 245 247
f 249 247 250
f 249 248 247
f 251 249 250
f 251 250 252
f 253 251 252
f 253 252 254
f 255 253 254
f 256 253 255
f 257 256 255
f 257 255 258
f 259 258 260
f 259 257 258
f 261 260 262
f 261 259 260
f 263 262 264
f 263 261 262
f 265 264 266
f 265 263 264
f 267 266 268
f 267 265 266
f 269 267 268
f 270 267 269
f 271 270 269
f 272 270 271
f 273 272 271
f 274 272 273
f 275 273 276
f 275 274 273
f 277 276 278
f 277 275 276
f 279 278 280
f 279 277 278
f 281 280 282
f 281 279 280
f 283 281 282
f 284 281 283
f 285 283 286
f 285 284 283
f 287 285 286
f 288 285 287
f 289 287 290
f 289 288 287
f 291 289 290
f 292 289 291
f 293 291 294
f 293 292 291
f 295 293 294
f 296 293 295
f 297 296 295
f 298 296 297
f 299 298 297
f 299 297 300
f 301 299 300
f 301 300 302
f 303 301 302
f 304 301 303
f 305 304 303
f 305 303 306
f 307 305 306
f 307 306 308
f 309 307 308
f 309 308 310
f 311 309 310
f 311 310 312
f 313 311 312
f 313 312 314
f 315 313 314
f 316 313 315
f 317 316 315
f 317 315 318
f 319 317 318
f 319 318 320
f 321 319 320
f 321 320 322
f 323 321 322
f 323 322 324
f 325 323 324
f 326 323 325
f 327 325 328
f 327 326 325
f 329 327 328
f 330 327 329
f 331 329 332
f 331 330 329
f 333 332 334
f 333 331 332
f 335 334 336
f 335 333 334
f 337 336 338
f 337 335 336
f 339 338 340
f 339 337 338
f 341 340 342
f 341 339 340
f 343 342 344
f 343 341 342
f 345 343 344
f 346 343 345
f 347 345 348
f 347 346 345
f 349 347 348
f 349 348 350
f 351 350 352
f 351 349 350
f 353 354 351
f 353 351 352
f 355 353 356
f 355 354 353
f 357 356 358
f 357 355 356
f 359 357 358
f 360 357 359
f 361 359 362
f 361 360 359
f 363 362 364
f 363 361 362
f 365 363 364
f 366 363 365
f 367 365 368
f 367 366 365
f 369 368 370
f 369 367 368
f 371 370 372
f 371 369 370
f 373 372 374
f 373 371 372
f 375 374 376
f 375 373 374
f 377 375 376
f 378 375 377
f 379 377 380
f 379 378 377
f 381 379 380
f 382 379 381
f 383 381 384
f 383 382 381
f 385 384 386
f 385 383 384
f 387 385 386
f 388 385 387
f 389 387 390
f 389 388 387
f 391 390 392
f 391 389 390
f 393 392 394
f 393 391 392
f 395 394 396
f 395 393 394
f 397 396 398
f 397 395 396
f 399 398 400
f 399 397 398
f 401 399 400
f 401 400 402
f 403 401 402
f 404 401 403
f 405 404 403
f 405 403 406
f 407 405 406
f 407 406 408
f 409 407 408
f 409 408 410
f 411 409 410
f 411 410 412
f 413 411 412
f 414 411 413
f 415 414 413
f 415 413 416
f 417 416 418
f 417 415 416
f 419 418 420
f 419 417 418
f 421 420 422
f 421 419 420
f 423 422 424
f 423 421 422
f 425 424 426
f 425 423 424
f 427 426 428
f 427 425 426
f 429 428 430
f 429 427 428
f 431 430 432
f 431 429 430
f 433 432 434
f 433 431 432
f 435 434 436
f 435 433 434
f 437 436 438
f 437 435 436
f 439 438 440
f 439 437 438
f 441 440 442
f 441 439 440
f 443 442 444
f 443 441 442
f 445 444 446
f 445 443 444
f 447 446 448
f 447 445 446
f 449 448 450
f 449 447 448
f 451 449 450
f 451 450 452
f 453 452 454
f 453 451 452
f 455 453 454
f 455 454 456
f 457 455 456
f 457 456 458
f 459 457 458
f 459 458 460
f 461 459 460
f 461 460 462
f 463 461 462
f 463 462 464
f 465 463 464
f 465 464 466
f 467 465 466
f 467 466 468
f 469 467 468
f 469 468 470
f 471 469 470
f 471 470 472
f 473 471 472
f 473 472 474
f 475 473 474
f 475 474 476
f 477 475 476
f 477 476 478
f 479 477 478
f 479 478 480
f 481 479 480
f 482 479 481
f 483 482 481
f 483 481 484
f 485 484 486
f 485 483 484
f 487 486 488
f 487 485 486
f 489 488 490
f 489 487 488
f 491 490 492
f 491 489 490
f 493 492 494
f 493 491 492
f 495 493 494
f 496 493 495
f 497 495 498
f 497 496 495
f 499 498 500
f 499 497 498
f 501 500 502
f 501 499 500
f 503 501 502
f 503 502 504
f 505 503 504
f 505 504 506
f 507 505 506
f 507 506 508
f 509 507 508
f 509 508 510
f 511 509 510
f 512 509 511
f 513 512 511
f 514 512 513
f 515 514 513
f 515 513 516
f 517 515 516
f 517 516 518
f 519 517 518
f 519 518 520
f 521 519 520
f 522 519 521
f 523 522 521
f 523 521 524
f 525 523 524
f 525 524 526
f 527 525 526
f 527 526 528
f 529 527 528
f 530 527 529
f 531 530 529
f 532 530 531
f 533 532 531
f 533 531 534
f 535 533 534
f 535 534 536
f 537 535 536
f 537 536 538
f 539 537 538
f 539 538 540
f 541 539 540
f 541 540 542
f 543 541 542
f 543 542 544
f 545 543 544
f 546 543 545
f 547 546 545
f 547 545 548
f 549 547 548
f 549 548 550
f 551 550 552
f 551 549 550
f 553 551 552
f 554 551 553
f 555 554 553
f 556 554 555
f 557 555 558
f 557 556 555
f 559 558 560
f 559 557 558
f 561 559 560
f 562 559 561
f 563 562 561
f 564 562 563
f 565 564 563
f 566 564 565
f 567 565 568
f 567 566 565
f 569 568 570
f 569 567 568
f 571 570 572
f 571 569 570
f 573 572 574
f 573 571 572
f 575 574 576
f 575 573 574
f 577 575 576
f 578 575 577
f 579 577 580
f 579 578 577
f 581 579 580
f 582 579 581
f 583 581 584
f 583 582 581
f 585 583 584
f 586 583 585
f 587 585 588
f 587 586 585
f 589 588 590
f 589 587 588
f 591 589 590
f 592 589 591
f 593 592 591
f 594 592 593
f 595 593 596
f 595 594 593
f 597 596 598
f 597 595 596
f 599 598 600
f 599 597 598
f 601 599 600
f 602 599 601
f 603 601 604
f 603 602 601
f 605 603 604
f 605 604 606
f 607 605 606
f 607 606 608
f 609 607 608
f 609 608 610
f 611 609 610
f 612 609 611
f 613 614 615
f 613 615 616
f 617 613 616
f 617 616 618
f 619 618 620
f 619 617 618
f 621 619 620
f 622 619 621
f 623 621 624
f 623 622 621
f 625 624 626
f 625 623 624
f 627 626 628
f 627 625 626
f 629 628 630
f 629 627 628
f 631 630 632
f 631 629 630
f 633 632 634
f 633 631 632
f 635 634 636
f 635 633 634
f 637 635 636
f 638 635 637
f 639 637 640
f 639 638 637
f 641 640 642
f 641 639 640
f 643 641 642
f 644 641 643
f 645 643 646
f 645 644 643
f 647 646 648
f 647 645 646
f 649 648 650
f 649 647 648
f 651 650 652
f 651 649 650
f 653 651 652
f 653 652 654
f 655 654 656
f 655 653 654
f 4 655 656
f 4 656 2
f 657 615 614
f 658 615 657
f 658 611 615
f 659 657 614
f 659 612 611
f 659 658 657
f 659 611 658
f 659 614 612
f 2 5 3
f 56 54 2
f 52 2 54
f 58 56 2
f 50 2 52
f 59 2 656
f 59 58 2
f 48 2 50
f 62 59 656
f 62 654 652
f 62 656 654
f 64 652 650
f 64 62 652
f 46 2 48
f 66 648 646
f 66 650 648
f 66 64 650
f 44 2 46
f 68 646 643
f 68 66 646
f 41 2 44
f 70 68 643
f 70 642 640
f 70 643 642
f 71 640 637
f 71 70 640
f 40 2 41
f 74 71 637
f 38 2 40
f 76 74 637
f 76 637 636
f 36 2 38
f 78 636 634
f 78 76 636
f 79 78 634
f 79 634 632
f 33 2 36
f 82 632 630
f 82 79 632
f 83 630 628
f 83 82 630
f 32 2 33
f 32 5 2
f 86 628 626
f 86 83 628
f 30 5 32
f 88 86 626
f 88 626 624
f 89 88 624
f 27 5 30
f 92 624 621
f 92 89 624
f 94 92 621
f 94 621 620
f 26 5 27
f 95 620 618
f 95 94 620
f 97 95 618
f 97 618 616
f 24 5 26
f 100 616 615
f 100 97 616
f 101 615 611
f 101 100 615
f 22 5 24
f 104 611 610
f 104 101 611
f 106 104 610
f 106 610 608
f 108 608 606
f 108 106 608
f 110 606 604
f 110 108 606
f 112 604 601
f 112 110 604
f 114 601 600
f 114 112 601
f 116 600 598
f 116 114 600
f 118 596 593
f 118 598 596
f 118 116 598
f 120 593 591
f 120 118 593
f 122 591 590
f 122 120 591
f 124 590 588
f 124 122 590
f 126 588 585
f 126 124 588
f 128 585 584
f 128 126 585
f 7 18 15
f 7 20 18
f 7 22 20
f 7 5 22
f 130 584 581
f 130 128 584
f 13 7 15
f 132 130 581
f 134 581 580
f 134 132 581
f 136 580 577
f 136 134 580
f 137 136 577
f 576 137 577
f 140 137 576
f 574 142 140
f 574 140 576
f 572 144 142
f 572 142 574
f 570 146 144
f 570 144 572
f 568 148 146
f 568 146 570
f 565 150 148
f 565 148 568
f 563 150 565
f 561 152 150
f 561 150 563
f 560 154 152
f 560 152 561
f 558 155 154
f 558 154 560
f 555 158 155
f 555 160 158
f 555 155 558
f 553 162 160
f 553 160 555
f 552 162 553
f 552 163 162
f 352 356 353
f 550 163 552
f 9 13 11
f 350 358 356
f 350 356 352
f 548 163 550
f 548 166 163
f 348 359 358
f 348 358 350
f 545 166 548
f 545 168 166
f 345 362 359
f 345 364 362
f 345 359 348
f 544 168 545
f 544 170 168
f 344 365 364
f 344 364 345
f 342 368 365
f 342 365 344
f 542 170 544
f 340 370 368
f 340 368 342
f 540 172 170
f 540 170 542
f 338 372 370
f 338 370 340
f 336 374 372
f 336 372 338
f 538 174 172
f 538 172 540
f 334 376 374
f 334 374 336
f 332 377 376
f 332 376 334
f 536 176 174
f 536 174 538
f 329 380 377
f 329 377 332
f 328 381 380
f 328 380 329
f 325 381 328
f 534 176 536
f 324 384 381
f 324 381 325
f 322 386 384
f 322 384 324
f 320 387 386
f 320 386 322
f 531 178 176
f 531 176 534
f 318 387 320
f 315 387 318
f 315 390 387
f 314 390 315
f 314 392 390
f 529 180 178
f 529 178 531
f 312 392 314
f 312 394 392
f 310 394 312
f 396 394 310
f 308 396 310
f 528 180 529
f 528 182 180
f 306 396 308
f 398 396 306
f 303 398 306
f 400 398 303
f 400 303 302
f 526 182 528
f 526 184 182
f 402 400 302
f 402 302 300
f 403 402 300
f 403 300 297
f 524 184 526
f 406 403 297
f 406 297 295
f 408 406 295
f 408 295 294
f 521 186 184
f 521 184 524
f 410 408 294
f 410 294 291
f 412 291 290
f 412 410 291
f 520 188 186
f 520 186 521
f 413 290 287
f 413 412 290
f 416 287 286
f 416 413 287
f 518 189 188
f 518 188 520
f 418 416 286
f 418 286 283
f 420 418 283
f 420 283 282
f 516 189 518
f 516 192 189
f 422 420 282
f 422 282 280
f 424 422 280
f 424 280 278
f 513 192 516
f 513 194 192
f 426 424 278
f 426 276 273
f 426 278 276
f 428 426 273
f 428 273 271
f 511 194 513
f 511 196 194
f 430 271 269
f 430 428 271
f 510 198 196
f 510 196 511
f 432 269 268
f 432 430 269
f 434 432 268
f 434 266 264
f 434 268 266
f 508 200 198
f 508 198 510
f 436 434 264
f 436 264 262
f 506 200 508
f 438 436 262
f 438 262 260
f 504 200 506
f 504 202 200
f 440 438 260
f 440 260 258
f 442 440 258
f 442 258 255
f 502 204 202
f 502 202 504
f 444 442 255
f 444 255 254
f 500 204 502
f 500 205 204
f 446 444 254
f 446 254 252
f 498 208 205
f 498 205 500
f 448 446 252
f 448 252 250
f 450 448 250
f 450 250 247
f 495 209 208
f 495 208 498
f 452 450 247
f 452 247 246
f 494 209 495
f 494 212 209
f 454 452 246
f 492 212 494
f 492 214 212
f 456 454 246
f 456 246 244
f 490 216 214
f 490 214 492
f 458 456 244
f 458 244 241
f 488 216 490
f 488 218 216
f 460 458 241
f 460 241 239
f 486 218 488
f 462 460 239
f 462 239 238
f 484 218 486
f 484 219 218
f 464 462 238
f 464 238 236
f 481 221 219
f 481 219 484
f 466 236 234
f 466 464 236
f 480 224 221
f 480 221 481
f 468 234 231
f 468 466 234
f 478 226 224
f 478 224 480
f 470 231 230
f 470 468 231
f 476 227 226
f 476 226 478
f 472 470 230
f 472 230 227
f 474 227 476
f 474 472 227
f 9 7 13
f 135 578 579
f 133 135 579
f 133 579 582
f 138 575 578
f 138 578 135
f 131 133 582
f 139 575 138
f 139 573 575
f 129 131 582
f 129 582 583
f 141 573 139
f 141 571 573
f 127 129 583
f 127 583 586
f 143 571 141
f 143 569 571
f 125 586 587
f 125 127 586
f 123 125 587
f 123 587 589
f 145 569 143
f 145 567 569
f 121 123 589
f 121 589 592
f 147 567 145
f 147 566 567
f 119 121 592
f 119 592 594
f 149 566 147
f 149 562 564
f 149 564 566
f 117 119 594
f 117 594 595
f 117 595 597
f 151 562 149
f 151 559 562
f 115 117 597
f 115 597 599
f 153 559 151
f 153 557 559
f 113 115 599
f 113 599 602
f 156 557 153
f 156 556 557
f 111 113 602
f 111 602 603
f 157 556 156
f 109 111 603
f 109 603 605
f 107 605 607
f 107 109 605
f 159 556 157
f 159 554 556
f 105 607 609
f 105 107 607
f 161 551 554
f 161 554 159
f 103 609 612
f 103 105 609
f 102 612 614
f 102 103 612
f 164 547 549
f 164 549 551
f 164 551 161
f 99 614 613
f 99 102 614
f 165 546 547
f 165 547 164
f 98 613 617
f 98 99 613
f 96 617 619
f 96 98 617
f 93 619 622
f 93 96 619
f 167 546 165
f 167 543 546
f 91 93 622
f 91 622 623
f 90 91 623
f 169 543 167
f 169 539 541
f 169 541 543
f 87 90 623
f 87 623 625
f 85 87 625
f 85 625 627
f 171 539 169
f 171 537 539
f 84 627 629
f 84 85 627
f 81 629 631
f 81 84 629
f 80 631 633
f 80 81 631
f 173 537 171
f 173 535 537
f 77 633 635
f 77 80 633
f 75 635 638
f 75 77 635
f 73 75 638
f 175 535 173
f 175 532 533
f 175 533 535
f 72 638 639
f 72 73 638
f 69 72 639
f 69 639 641
f 69 641 644
f 67 644 645
f 67 69 644
f 177 532 175
f 177 530 532
f 65 645 647
f 65 647 649
f 65 67 645
f 63 649 651
f 63 65 649
f 61 651 653
f 61 63 651
f 655 61 653
f 60 61 655
f 179 527 530
f 179 530 177
f 4 60 655
f 57 60 4
f 55 57 4
f 53 55 4
f 181 525 527
f 181 527 179
f 51 53 4
f 49 51 4
f 6 4 1
f 47 49 4
f 45 47 4
f 183 525 181
f 183 522 523
f 183 523 525
f 43 45 4
f 42 43 4
f 39 42 4
f 185 522 183
f 185 519 522
f 37 39 4
f 35 37 4
f 34 35 4
f 187 519 185
f 187 517 519
f 31 34 4
f 31 4 6
f 29 31 6
f 190 517 187
f 190 515 517
f 28 29 6
f 25 28 6
f 191 515 190
f 191 514 515
f 23 25 6
f 21 23 6
f 193 512 514
f 193 514 191
f 195 512 193
f 195 509 512
f 197 507 509
f 197 509 195
f 199 507 197
f 199 503 505
f 199 505 507
f 201 501 503
f 201 503 199
f 14 10 12
f 203 499 501
f 203 501 201
f 206 497 499
f 206 499 203
f 207 496 497
f 207 497 206
f 210 493 496
f 210 496 207
f 211 491 493
f 211 493 210
f 213 489 491
f 213 491 211
f 215 487 489
f 215 489 213
f 217 487 215
f 217 483 485
f 217 485 487
f 220 483 217
f 220 482 483
f 222 482 220
f 222 479 482
f 223 479 222
f 223 477 479
f 225 477 223
f 225 475 477
f 228 475 225
f 228 473 475
f 471 228 229
f 471 473 228
f 469 229 232
f 469 471 229
f 467 232 233
f 467 469 232
f 8 14 16
f 8 16 17
f 8 17 19
f 8 19 21
f 8 21 6
f 465 467 233
f 465 233 235
f 463 235 237
f 463 465 235
f 461 237 240
f 461 463 237
f 459 240 242
f 459 461 240
f 457 242 243
f 457 459 242
f 455 243 245
f 455 457 243
f 453 455 245
f 451 245 248
f 451 453 245
f 449 248 249
f 449 451 248
f 447 449 249
f 447 249 251
f 445 447 251
f 445 251 253
f 443 253 256
f 443 445 253
f 355 349 351
f 355 351 354
f 441 256 257
f 441 443 256
f 357 347 349
f 357 349 355
f 439 257 259
f 439 441 257
f 360 346 347
f 360 347 357
f 437 259 261
f 437 439 259
f 361 346 360
f 435 261 263
f 435 437 261
f 433 435 263
f 433 263 265
f 433 265 267
f 363 343 346
f 363 346 361
f 431 267 270
f 431 433 267
f 366 343 363
f 366 341 343
f 429 431 270
f 429 270 272
f 367 341 366
f 367 339 341
f 427 429 272
f 427 272 274
f 369 339 367
f 369 337 339
f 425 427 274
f 425 274 275
f 425 275 277
f 371 337 369
f 371 335 337
f 423 425 277
f 423 277 279
f 373 335 371
f 373 333 335
f 421 279 281
f 421 423 279
f 375 333 373
f 375 331 333
f 419 421 281
f 419 281 284
f 417 284 285
f 417 419 284
f 378 331 375
f 378 330 331
f 415 417 285
f 415 285 288
f 379 330 378
f 379 327 330
f 414 288 289
f 414 415 288
f 382 327 379
f 382 323 326
f 382 326 327
f 411 289 292
f 411 414 289
f 383 323 382
f 383 321 323
f 409 292 293
f 409 411 292
f 385 321 383
f 385 319 321
f 407 293 296
f 407 409 293
f 388 316 317
f 388 319 385
f 388 317 319
f 405 296 298
f 405 407 296
f 389 313 316
f 389 316 388
f 404 298 299
f 404 405 298
f 391 311 313
f 391 313 389
f 401 404 299
f 401 299 301
f 399 301 304
f 399 401 301
f 393 311 391
f 393 309 311
f 397 304 305
f 397 399 304
f 395 305 307
f 395 307 309
f 395 397 305
f 395 309 393
f 8 10 14
