# USD → MuJoCo (world-space)
v 0.062727 0.000250 0.115162
v 0.062727 -0.000250 0.115162
v 0.062727 -0.000250 0.089253
v 0.062727 0.000250 0.089253
v -0.045000 -0.000250 0.089253
v -0.045000 0.000250 0.089253
v -0.045000 -0.000250 0.006071
v -0.045000 0.000250 0.006071
v 0.047727 0.000250 0.006071
v 0.047727 -0.000250 0.006071
v 0.047727 -0.000250 -0.019838
v 0.047727 0.000250 -0.019838
v -0.045000 -0.000250 -0.019838
v -0.045000 0.000250 -0.019838
v -0.045000 -0.000250 -0.092111
v -0.045000 0.000250 -0.092111
v 0.055909 -0.000250 -0.092111
v 0.055909 0.000250 -0.092111
v 0.055909 -0.000250 -0.118020
v 0.055909 0.000250 -0.118020
v -0.076364 -0.000250 -0.118020
v -0.076364 0.000250 -0.118020
v -0.076364 -0.000250 0.115162
v -0.076364 0.000250 0.115162
f 1 2 3
f 1 3 4
f 4 3 5
f 4 5 6
f 5 7 8
f 6 5 8
f 9 8 7
f 10 9 7
f 9 10 11
f 9 11 12
f 12 11 13
f 12 13 14
f 14 13 15
f 14 15 16
f 17 18 16
f 17 16 15
f 17 19 20
f 18 17 20
f 20 19 21
f 20 21 22
f 23 24 22
f 23 22 21
f 1 24 23
f 2 1 23
f 5 3 2
f 23 5 2
f 7 11 10
f 7 5 23
f 13 11 7
f 15 19 17
f 21 15 13
f 21 19 15
f 21 7 23
f 21 13 7
f 1 6 24
f 8 24 6
f 4 6 1
f 22 24 8
f 22 8 14
f 16 22 14
f 12 8 9
f 12 14 8
f 20 16 18
f 20 22 16
