# USD → MuJoCo (world-space)
v 0.078818 -0.000250 -0.089169
v 0.078818 -0.000250 -0.115078
v 0.078818 0.000250 -0.115078
v 0.078818 0.000250 -0.089169
v -0.064364 -0.000250 -0.115078
v -0.064364 0.000250 -0.115078
v -0.064364 -0.000250 0.118103
v -0.064364 0.000250 0.118103
v -0.033000 -0.000250 0.118103
v -0.033000 0.000250 0.118103
v -0.033000 -0.000250 0.013103
v -0.033000 0.000250 0.013103
v 0.051545 -0.000250 0.013103
v 0.051545 0.000250 0.013103
v 0.051545 -0.000250 -0.012806
v 0.051545 0.000250 -0.012806
v -0.033000 -0.000250 -0.012806
v -0.033000 0.000250 -0.012806
v -0.033000 -0.000250 -0.089169
v -0.033000 0.000250 -0.089169
f 1 2 3
f 4 1 3
f 3 2 5
f 3 5 6
f 7 8 6
f 7 6 5
f 9 10 8
f 9 8 7
f 10 9 11
f 10 11 12
f 13 14 12
f 13 12 11
f 14 13 15
f 14 15 16
f 16 15 17
f 16 17 18
f 17 19 20
f 18 17 20
f 1 4 20
f 1 20 19
f 11 9 7
f 17 15 13
f 17 13 11
f 19 2 1
f 5 19 17
f 5 11 7
f 5 2 19
f 5 17 11
f 12 8 10
f 14 18 12
f 6 8 12
f 6 12 18
f 20 6 18
f 16 18 14
f 3 20 4
f 3 6 20
