# USD → MuJoCo (world-space)
v 0.080670 0.000250 0.022630
v 0.080670 -0.000250 0.022630
v 0.049306 -0.000250 0.022630
v 0.049306 0.000250 0.022630
v 0.049246 0.000250 0.028254
v 0.049246 -0.000250 0.028254
v 0.049063 0.000250 0.033616
v 0.049063 -0.000250 0.033616
v 0.048776 0.000250 0.038484
v 0.048776 -0.000250 0.038484
v 0.048390 0.000250 0.043006
v 0.048390 -0.000250 0.043006
v 0.047910 -0.000250 0.047201
v 0.047910 0.000250 0.047201
v 0.047346 0.000250 0.051085
v 0.047346 -0.000250 0.051085
v 0.046702 0.000250 0.054676
v 0.046702 -0.000250 0.054676
v 0.045987 0.000250 0.057990
v 0.045987 -0.000250 0.057990
v 0.045205 0.000250 0.061043
v 0.045205 -0.000250 0.061043
v 0.044362 0.000250 0.063850
v 0.044362 -0.000250 0.063850
v 0.043536 -0.000250 0.066230
v 0.043536 0.000250 0.066230
v 0.042646 0.000250 0.068472
v 0.042646 -0.000250 0.068472
v 0.041693 0.000250 0.070577
v 0.041693 -0.000250 0.070577
v 0.040780 0.000250 0.072352
v 0.040780 -0.000250 0.072352
v 0.039915 0.000250 0.073855
v 0.039915 -0.000250 0.073855
v 0.039100 -0.000250 0.075129
v 0.039100 0.000250 0.075129
v 0.038338 0.000250 0.076214
v 0.038338 -0.000250 0.076214
v 0.037548 0.000250 0.077239
v 0.037548 -0.000250 0.077239
v 0.036732 0.000250 0.078206
v 0.036732 -0.000250 0.078206
v 0.035629 0.000250 0.079439
v 0.035629 -0.000250 0.079439
v 0.034376 0.000250 0.080757
v 0.034376 -0.000250 0.080757
v 0.033108 0.000250 0.082004
v 0.033108 -0.000250 0.082004
v 0.031827 0.000250 0.083179
v 0.031827 -0.000250 0.083179
v 0.030533 0.000250 0.084281
v 0.030533 -0.000250 0.084281
v 0.029224 0.000250 0.085312
v 0.029224 -0.000250 0.085312
v 0.027902 -0.000250 0.086270
v 0.027902 0.000250 0.086270
v 0.026566 0.000250 0.087157
v 0.026566 -0.000250 0.087157
v 0.025216 0.000250 0.087971
v 0.025216 -0.000250 0.087971
v 0.023853 -0.000250 0.088713
v 0.023853 0.000250 0.088713
v 0.022476 0.000250 0.089383
v 0.022476 -0.000250 0.089383
v 0.021085 0.000250 0.089982
v 0.021085 -0.000250 0.089982
v 0.019680 -0.000250 0.090508
v 0.019680 0.000250 0.090508
v 0.018262 0.000250 0.090962
v 0.018262 -0.000250 0.090962
v 0.016830 -0.000250 0.091344
v 0.016830 0.000250 0.091344
v 0.015384 0.000250 0.091654
v 0.015384 -0.000250 0.091654
v 0.013925 -0.000250 0.091892
v 0.013925 0.000250 0.091892
v 0.012452 -0.000250 0.092058
v 0.012452 0.000250 0.092058
v 0.010965 0.000250 0.092152
v 0.010965 -0.000250 0.092152
v 0.009357 -0.000250 0.092173
v 0.009357 0.000250 0.092173
v 0.007332 0.000250 0.092104
v 0.007332 -0.000250 0.092104
v 0.005541 -0.000250 0.091956
v 0.005541 0.000250 0.091956
v 0.003955 0.000250 0.091755
v 0.003955 -0.000250 0.091755
v 0.002395 0.000250 0.091488
v 0.002395 -0.000250 0.091488
v 0.000858 0.000250 0.091156
v 0.000858 -0.000250 0.091156
v -0.000653 -0.000250 0.090758
v -0.000653 0.000250 0.090758
v -0.002139 -0.000250 0.090295
v -0.002139 0.000250 0.090295
v -0.003601 0.000250 0.089767
v -0.003601 -0.000250 0.089767
v -0.005038 0.000250 0.089174
v -0.005038 -0.000250 0.089174
v -0.006451 -0.000250 0.088515
v -0.006451 0.000250 0.088515
v -0.007838 0.000250 0.087792
v -0.007838 -0.000250 0.087792
v -0.009201 -0.000250 0.087002
v -0.009201 0.000250 0.087002
v -0.010539 0.000250 0.086148
v -0.010539 -0.000250 0.086148
v -0.011852 0.000250 0.085228
v -0.011852 -0.000250 0.085228
v -0.013141 -0.000250 0.084243
v -0.013141 0.000250 0.084243
v -0.014404 0.000250 0.083193
v -0.014404 -0.000250 0.083193
v -0.015643 0.000250 0.082077
v -0.015643 -0.000250 0.082077
v -0.016858 -0.000250 0.080897
v -0.016858 0.000250 0.080897
v -0.018047 0.000250 0.079651
v -0.018047 -0.000250 0.079651
v -0.019212 0.000250 0.078339
v -0.019212 -0.000250 0.078339
v -0.020352 0.000250 0.076963
v -0.020352 -0.000250 0.076963
v -0.021467 0.000250 0.075521
v -0.021467 -0.000250 0.075521
v -0.022557 0.000250 0.074013
v -0.022557 -0.000250 0.074013
v -0.023623 0.000250 0.072441
v -0.023623 -0.000250 0.072441
v -0.024655 0.000250 0.070788
v -0.024655 -0.000250 0.070788
v -0.025645 0.000250 0.069039
v -0.025645 -0.000250 0.069039
v -0.026591 0.000250 0.067192
v -0.026591 -0.000250 0.067192
v -0.027495 -0.000250 0.065249
v -0.027495 0.000250 0.065249
v -0.028357 0.000250 0.063209
v -0.028357 -0.000250 0.063209
v -0.029175 -0.000250 0.061072
v -0.029175 0.000250 0.061072
v -0.029951 0.000250 0.058839
v -0.029951 -0.000250 0.058839
v -0.030684 0.000250 0.056509
v -0.030684 -0.000250 0.056509
v -0.031594 0.000250 0.053251
v -0.031594 -0.000250 0.053251
v -0.032534 0.000250 0.049355
v -0.032534 -0.000250 0.049355
v -0.033395 0.000250 0.045136
v -0.033395 -0.000250 0.045136
v -0.034171 -0.000250 0.040576
v -0.034171 0.000250 0.040576
v -0.034854 0.000250 0.035653
v -0.034854 -0.000250 0.035653
v -0.035437 0.000250 0.030347
v -0.035437 -0.000250 0.030347
v -0.035912 0.000250 0.024638
v -0.035912 -0.000250 0.024638
v -0.036271 0.000250 0.018504
v -0.036271 -0.000250 0.018504
v -0.036503 0.000250 0.011922
v -0.036503 -0.000250 0.011922
v -0.036600 -0.000250 0.004868
v -0.036600 0.000250 0.004868
v -0.036553 0.000250 -0.002957
v -0.036553 -0.000250 -0.002957
v -0.036386 0.000250 -0.009714
v -0.036386 -0.000250 -0.009714
v -0.036108 0.000250 -0.016066
v -0.036108 -0.000250 -0.016066
v -0.035728 -0.000250 -0.022030
v -0.035728 0.000250 -0.022030
v -0.035250 0.000250 -0.027624
v -0.035250 -0.000250 -0.027624
v -0.034682 0.000250 -0.032864
v -0.034682 -0.000250 -0.032864
v -0.034030 0.000250 -0.037767
v -0.034030 -0.000250 -0.037767
v -0.033299 0.000250 -0.042348
v -0.033299 -0.000250 -0.042348
v -0.032496 0.000250 -0.046622
v -0.032496 -0.000250 -0.046622
v -0.031625 0.000250 -0.050605
v -0.031625 -0.000250 -0.050605
v -0.030691 0.000250 -0.054310
v -0.030691 -0.000250 -0.054310
v -0.029700 0.000250 -0.057754
v -0.029700 -0.000250 -0.057754
v -0.028655 0.000250 -0.060948
v -0.028655 -0.000250 -0.060948
v -0.027561 0.000250 -0.063906
v -0.027561 -0.000250 -0.063906
v -0.026422 0.000250 -0.066640
v -0.026422 -0.000250 -0.066640
v -0.025338 -0.000250 -0.068965
v -0.025338 0.000250 -0.068965
v -0.024200 -0.000250 -0.071160
v -0.024200 0.000250 -0.071160
v -0.023010 -0.000250 -0.073229
v -0.023010 0.000250 -0.073229
v -0.021780 0.000250 -0.075200
v -0.021780 -0.000250 -0.075200
v -0.020512 0.000250 -0.077076
v -0.020512 -0.000250 -0.077076
v -0.019207 0.000250 -0.078857
v -0.019207 -0.000250 -0.078857
v -0.017865 0.000250 -0.080542
v -0.017865 -0.000250 -0.080542
v -0.016485 -0.000250 -0.082133
v -0.016485 0.000250 -0.082133
v -0.015068 0.000250 -0.083628
v -0.015068 -0.000250 -0.083628
v -0.013613 -0.000250 -0.085028
v -0.013613 0.000250 -0.085028
v -0.012121 0.000250 -0.086333
v -0.012121 -0.000250 -0.086333
v -0.010746 0.000250 -0.087426
v -0.010746 -0.000250 -0.087426
v -0.009482 0.000250 -0.088344
v -0.009482 -0.000250 -0.088344
v -0.008194 0.000250 -0.089200
v -0.008194 -0.000250 -0.089200
v -0.006881 -0.000250 -0.089993
v -0.006881 0.000250 -0.089993
v -0.005544 0.000250 -0.090724
v -0.005544 -0.000250 -0.090724
v -0.004182 -0.000250 -0.091392
v -0.004182 0.000250 -0.091392
v -0.002795 -0.000250 -0.091998
v -0.002795 0.000250 -0.091998
v -0.001384 0.000250 -0.092541
v -0.001384 -0.000250 -0.092541
v 0.000051 0.000250 -0.093022
v 0.000051 -0.000250 -0.093022
v 0.001512 0.000250 -0.093441
v 0.001512 -0.000250 -0.093441
v 0.002996 0.000250 -0.093797
v 0.002996 -0.000250 -0.093797
v 0.004506 -0.000250 -0.094091
v 0.004506 0.000250 -0.094091
v 0.006040 -0.000250 -0.094322
v 0.006040 0.000250 -0.094322
v 0.007598 0.000250 -0.094491
v 0.007598 -0.000250 -0.094491
v 0.009182 0.000250 -0.094598
v 0.009182 -0.000250 -0.094598
v 0.010789 0.000250 -0.094642
v 0.010789 -0.000250 -0.094642
v 0.012245 0.000250 -0.094630
v 0.012245 -0.000250 -0.094630
v 0.013632 0.000250 -0.094576
v 0.013632 -0.000250 -0.094576
v 0.014994 0.000250 -0.094481
v 0.014994 -0.000250 -0.094481
v 0.016328 0.000250 -0.094344
v 0.016328 -0.000250 -0.094344
v 0.017637 -0.000250 -0.094165
v 0.017637 0.000250 -0.094165
v 0.018919 0.000250 -0.093945
v 0.018919 -0.000250 -0.093945
v 0.020174 -0.000250 -0.093683
v 0.020174 0.000250 -0.093683
v 0.021403 -0.000250 -0.093379
v 0.021403 0.000250 -0.093379
v 0.022605 0.000250 -0.093034
v 0.022605 -0.000250 -0.093034
v 0.023781 0.000250 -0.092648
v 0.023781 -0.000250 -0.092648
v 0.024931 -0.000250 -0.092219
v 0.024931 0.000250 -0.092219
v 0.026054 0.000250 -0.091749
v 0.026054 -0.000250 -0.091749
v 0.027150 0.000250 -0.091238
v 0.027150 -0.000250 -0.091238
v 0.028220 -0.000250 -0.090685
v 0.028220 0.000250 -0.090685
v 0.029264 -0.000250 -0.090090
v 0.029264 0.000250 -0.090090
v 0.030281 -0.000250 -0.089453
v 0.030281 0.000250 -0.089453
v 0.031271 0.000250 -0.088775
v 0.031271 -0.000250 -0.088775
v 0.032235 -0.000250 -0.088056
v 0.032235 0.000250 -0.088056
v 0.033173 0.000250 -0.087295
v 0.033173 -0.000250 -0.087295
v 0.034084 0.000250 -0.086492
v 0.034084 -0.000250 -0.086492
v 0.034969 0.000250 -0.085647
v 0.034969 -0.000250 -0.085647
v 0.035827 0.000250 -0.084761
v 0.035827 -0.000250 -0.084761
v 0.036659 -0.000250 -0.083834
v 0.036659 0.000250 -0.083834
v 0.037464 -0.000250 -0.082864
v 0.037464 0.000250 -0.082864
v 0.038242 0.000250 -0.081853
v 0.038242 -0.000250 -0.081853
v 0.038995 -0.000250 -0.080801
v 0.038995 0.000250 -0.080801
v 0.039720 -0.000250 -0.079707
v 0.039720 0.000250 -0.079707
v 0.040420 0.000250 -0.078571
v 0.040420 -0.000250 -0.078571
v 0.041093 -0.000250 -0.077394
v 0.041093 0.000250 -0.077394
v 0.041739 0.000250 -0.076175
v 0.041739 -0.000250 -0.076175
v 0.042359 -0.000250 -0.074914
v 0.042359 0.000250 -0.074914
v 0.042952 -0.000250 -0.073612
v 0.042952 0.000250 -0.073612
v 0.043519 0.000250 -0.072268
v 0.043519 -0.000250 -0.072268
v 0.044234 0.000250 -0.070412
v 0.044234 -0.000250 -0.070412
v 0.044981 0.000250 -0.068235
v 0.044981 -0.000250 -0.068235
v 0.045669 -0.000250 -0.065964
v 0.045669 0.000250 -0.065964
v 0.046298 0.000250 -0.063600
v 0.046298 -0.000250 -0.063600
v 0.046867 -0.000250 -0.061142
v 0.046867 0.000250 -0.061142
v 0.047376 0.000250 -0.058591
v 0.047376 -0.000250 -0.058591
v 0.047826 -0.000250 -0.055946
v 0.047826 0.000250 -0.055946
v 0.048333 0.000250 -0.052273
v 0.048333 -0.000250 -0.052273
v 0.048767 0.000250 -0.048062
v 0.048767 -0.000250 -0.048062
v 0.049079 0.000250 -0.043551
v 0.049079 -0.000250 -0.043551
v 0.049250 0.000250 -0.039186
v 0.049250 -0.000250 -0.039186
v 0.049306 0.000250 -0.034643
v 0.049306 -0.000250 -0.034643
v 0.079306 0.000250 -0.034643
v 0.079306 -0.000250 -0.034643
v 0.079392 0.000250 -0.039041
v 0.079392 -0.000250 -0.039041
v 0.079353 0.000250 -0.043330
v 0.079353 -0.000250 -0.043330
v 0.079194 0.000250 -0.047408
v 0.079194 -0.000250 -0.047408
v 0.078920 0.000250 -0.051334
v 0.078920 -0.000250 -0.051334
v 0.078535 0.000250 -0.055115
v 0.078535 -0.000250 -0.055115
v 0.078043 0.000250 -0.058756
v 0.078043 -0.000250 -0.058756
v 0.077447 0.000250 -0.062261
v 0.077447 -0.000250 -0.062261
v 0.076751 -0.000250 -0.065637
v 0.076751 0.000250 -0.065637
v 0.075957 0.000250 -0.068889
v 0.075957 -0.000250 -0.068889
v 0.075068 0.000250 -0.072020
v 0.075068 -0.000250 -0.072020
v 0.074086 0.000250 -0.075036
v 0.074086 -0.000250 -0.075036
v 0.073012 0.000250 -0.077940
v 0.073012 -0.000250 -0.077940
v 0.071849 -0.000250 -0.080738
v 0.071849 0.000250 -0.080738
v 0.070598 0.000250 -0.083434
v 0.070598 -0.000250 -0.083434
v 0.069390 -0.000250 -0.085788
v 0.069390 0.000250 -0.085788
v 0.068103 -0.000250 -0.088075
v 0.068103 0.000250 -0.088075
v 0.066740 0.000250 -0.090294
v 0.066740 -0.000250 -0.090294
v 0.065298 0.000250 -0.092445
v 0.065298 -0.000250 -0.092445
v 0.063779 0.000250 -0.094528
v 0.063779 -0.000250 -0.094528
v 0.062182 0.000250 -0.096544
v 0.062182 -0.000250 -0.096544
v 0.060508 0.000250 -0.098492
v 0.060508 -0.000250 -0.098492
v 0.058785 0.000250 -0.100361
v 0.058785 -0.000250 -0.100361
v 0.057024 0.000250 -0.102148
v 0.057024 -0.000250 -0.102148
v 0.055225 0.000250 -0.103852
v 0.055225 -0.000250 -0.103852
v 0.053389 0.000250 -0.105473
v 0.053389 -0.000250 -0.105473
v 0.051516 0.000250 -0.107011
v 0.051516 -0.000250 -0.107011
v 0.049604 0.000250 -0.108467
v 0.049604 -0.000250 -0.108467
v 0.047655 0.000250 -0.109840
v 0.047655 -0.000250 -0.109840
v 0.045669 0.000250 -0.111130
v 0.045669 -0.000250 -0.111130
v 0.043645 -0.000250 -0.112338
v 0.043645 0.000250 -0.112338
v 0.041583 0.000250 -0.113462
v 0.041583 -0.000250 -0.113462
v 0.039483 -0.000250 -0.114504
v 0.039483 0.000250 -0.114504
v 0.037346 0.000250 -0.115463
v 0.037346 -0.000250 -0.115463
v 0.035172 -0.000250 -0.116340
v 0.035172 0.000250 -0.116340
v 0.032959 0.000250 -0.117133
v 0.032959 -0.000250 -0.117133
v 0.030710 0.000250 -0.117844
v 0.030710 -0.000250 -0.117844
v 0.028422 0.000250 -0.118472
v 0.028422 -0.000250 -0.118472
v 0.026097 -0.000250 -0.119018
v 0.026097 0.000250 -0.119018
v 0.023734 0.000250 -0.119480
v 0.023734 -0.000250 -0.119480
v 0.021334 -0.000250 -0.119860
v 0.021334 0.000250 -0.119860
v 0.018896 -0.000250 -0.120157
v 0.018896 0.000250 -0.120157
v 0.016420 0.000250 -0.120371
v 0.016420 -0.000250 -0.120371
v 0.013907 0.000250 -0.120503
v 0.013907 -0.000250 -0.120503
v 0.011356 0.000250 -0.120552
v 0.011356 -0.000250 -0.120552
v 0.008378 -0.000250 -0.120504
v 0.008378 0.000250 -0.120504
v 0.005404 0.000250 -0.120342
v 0.005404 -0.000250 -0.120342
v 0.002478 0.000250 -0.120064
v 0.002478 -0.000250 -0.120064
v -0.000400 0.000250 -0.119670
v -0.000400 -0.000250 -0.119670
v -0.003231 0.000250 -0.119162
v -0.003231 -0.000250 -0.119162
v -0.006014 -0.000250 -0.118538
v -0.006014 0.000250 -0.118538
v -0.008749 0.000250 -0.117798
v -0.008749 -0.000250 -0.117798
v -0.011437 0.000250 -0.116944
v -0.011437 -0.000250 -0.116944
v -0.014077 0.000250 -0.115973
v -0.014077 -0.000250 -0.115973
v -0.016670 0.000250 -0.114888
v -0.016670 -0.000250 -0.114888
v -0.019215 0.000250 -0.113687
v -0.019215 -0.000250 -0.113687
v -0.021712 0.000250 -0.112371
v -0.021712 -0.000250 -0.112371
v -0.024161 0.000250 -0.110940
v -0.024161 -0.000250 -0.110940
v -0.026563 0.000250 -0.109393
v -0.026563 -0.000250 -0.109393
v -0.028917 -0.000250 -0.107730
v -0.028917 0.000250 -0.107730
v -0.031224 0.000250 -0.105953
v -0.031224 -0.000250 -0.105953
v -0.033483 0.000250 -0.104060
v -0.033483 -0.000250 -0.104060
v -0.035694 0.000250 -0.102052
v -0.035694 -0.000250 -0.102052
v -0.037858 0.000250 -0.099928
v -0.037858 -0.000250 -0.099928
v -0.040273 0.000250 -0.097359
v -0.040273 -0.000250 -0.097359
v -0.042648 -0.000250 -0.094613
v -0.042648 0.000250 -0.094613
v -0.044983 -0.000250 -0.091682
v -0.044983 0.000250 -0.091682
v -0.047051 0.000250 -0.088879
v -0.047051 -0.000250 -0.088879
v -0.049014 0.000250 -0.085986
v -0.049014 -0.000250 -0.085986
v -0.050901 -0.000250 -0.082935
v -0.050901 0.000250 -0.082935
v -0.052713 0.000250 -0.079721
v -0.052713 -0.000250 -0.079721
v -0.054447 0.000250 -0.076336
v -0.054447 -0.000250 -0.076336
v -0.056103 0.000250 -0.072775
v -0.056103 -0.000250 -0.072775
v -0.057678 0.000250 -0.069029
v -0.057678 -0.000250 -0.069029
v -0.059170 0.000250 -0.065092
v -0.059170 -0.000250 -0.065092
v -0.060576 0.000250 -0.060954
v -0.060576 -0.000250 -0.060954
v -0.061893 -0.000250 -0.056609
v -0.061893 0.000250 -0.056609
v -0.063119 0.000250 -0.052048
v -0.063119 -0.000250 -0.052048
v -0.064248 -0.000250 -0.047262
v -0.064248 0.000250 -0.047262
v -0.065277 0.000250 -0.042242
v -0.065277 -0.000250 -0.042242
v -0.066202 0.000250 -0.036979
v -0.066202 -0.000250 -0.036979
v -0.067018 0.000250 -0.031463
v -0.067018 -0.000250 -0.031463
v -0.067719 -0.000250 -0.025686
v -0.067719 0.000250 -0.025686
v -0.068302 0.000250 -0.019637
v -0.068302 -0.000250 -0.019637
v -0.068760 0.000250 -0.013305
v -0.068760 -0.000250 -0.013305
v -0.069088 0.000250 -0.006682
v -0.069088 -0.000250 -0.006682
v -0.069279 0.000250 0.000244
v -0.069279 -0.000250 0.000244
v -0.069328 0.000250 0.007375
v -0.069328 -0.000250 0.007375
v -0.069245 0.000250 0.013248
v -0.069245 -0.000250 0.013248
v -0.069045 0.000250 0.018875
v -0.069045 -0.000250 0.018875
v -0.068733 0.000250 0.024265
v -0.068733 -0.000250 0.024265
v -0.068313 0.000250 0.029426
v -0.068313 -0.000250 0.029426
v -0.067790 0.000250 0.034365
v -0.067790 -0.000250 0.034365
v -0.067168 0.000250 0.039089
v -0.067168 -0.000250 0.039089
v -0.066452 0.000250 0.043608
v -0.066452 -0.000250 0.043608
v -0.065645 -0.000250 0.047927
v -0.065645 0.000250 0.047927
v -0.064752 -0.000250 0.052054
v -0.064752 0.000250 0.052054
v -0.063774 -0.000250 0.055996
v -0.063774 0.000250 0.055996
v -0.062717 0.000250 0.059759
v -0.062717 -0.000250 0.059759
v -0.061583 0.000250 0.063352
v -0.061583 -0.000250 0.063352
v -0.060374 0.000250 0.066779
v -0.060374 -0.000250 0.066779
v -0.059092 -0.000250 0.070047
v -0.059092 0.000250 0.070047
v -0.057742 0.000250 0.073162
v -0.057742 -0.000250 0.073162
v -0.056323 0.000250 0.076130
v -0.056323 -0.000250 0.076130
v -0.054837 0.000250 0.078957
v -0.054837 -0.000250 0.078957
v -0.053287 0.000250 0.081647
v -0.053287 -0.000250 0.081647
v -0.051673 0.000250 0.084207
v -0.051673 -0.000250 0.084207
v -0.049995 0.000250 0.086640
v -0.049995 -0.000250 0.086640
v -0.048420 0.000250 0.088739
v -0.048420 -0.000250 0.088739
v -0.046783 0.000250 0.090754
v -0.046783 -0.000250 0.090754
v -0.045092 0.000250 0.092686
v -0.045092 -0.000250 0.092686
v -0.042794 0.000250 0.095150
v -0.042794 -0.000250 0.095150
v -0.040434 -0.000250 0.097505
v -0.040434 0.000250 0.097505
v -0.038050 -0.000250 0.099713
v -0.038050 0.000250 0.099713
v -0.035640 0.000250 0.101780
v -0.035640 -0.000250 0.101780
v -0.033204 0.000250 0.103710
v -0.033204 -0.000250 0.103710
v -0.030741 0.000250 0.105506
v -0.030741 -0.000250 0.105506
v -0.028250 0.000250 0.107174
v -0.028250 -0.000250 0.107174
v -0.025971 -0.000250 0.108573
v -0.025971 0.000250 0.108573
v -0.023658 0.000250 0.109876
v -0.023658 -0.000250 0.109876
v -0.021311 0.000250 0.111083
v -0.021311 -0.000250 0.111083
v -0.018929 0.000250 0.112195
v -0.018929 -0.000250 0.112195
v -0.016513 0.000250 0.113210
v -0.016513 -0.000250 0.113210
v -0.014062 0.000250 0.114129
v -0.014062 -0.000250 0.114129
v -0.011577 0.000250 0.114953
v -0.011577 -0.000250 0.114953
v -0.009057 0.000250 0.115680
v -0.009057 -0.000250 0.115680
v -0.006503 0.000250 0.116311
v -0.006503 -0.000250 0.116311
v -0.003914 0.000250 0.116847
v -0.003914 -0.000250 0.116847
v -0.001291 -0.000250 0.117286
v -0.001291 0.000250 0.117286
v 0.001366 0.000250 0.117630
v 0.001366 -0.000250 0.117630
v 0.004058 0.000250 0.117877
v 0.004058 -0.000250 0.117877
v 0.006785 0.000250 0.118028
v 0.006785 -0.000250 0.118028
v 0.009546 0.000250 0.118084
v 0.009546 -0.000250 0.118084
v 0.011993 0.000250 0.118051
v 0.011993 -0.000250 0.118051
v 0.014384 0.000250 0.117939
v 0.014384 -0.000250 0.117939
v 0.016746 -0.000250 0.117748
v 0.016746 0.000250 0.117748
v 0.019078 -0.000250 0.117478
v 0.019078 0.000250 0.117478
v 0.021381 -0.000250 0.117130
v 0.021381 0.000250 0.117130
v 0.023654 0.000250 0.116703
v 0.023654 -0.000250 0.116703
v 0.025897 0.000250 0.116197
v 0.025897 -0.000250 0.116197
v 0.028111 -0.000250 0.115612
v 0.028111 0.000250 0.115612
v 0.030296 -0.000250 0.114949
v 0.030296 0.000250 0.114949
v 0.032451 0.000250 0.114207
v 0.032451 -0.000250 0.114207
v 0.034576 -0.000250 0.113386
v 0.034576 0.000250 0.113386
v 0.036672 0.000250 0.112486
v 0.036672 -0.000250 0.112486
v 0.038738 0.000250 0.111508
v 0.038738 -0.000250 0.111508
v 0.040775 0.000250 0.110451
v 0.040775 -0.000250 0.110451
v 0.042782 0.000250 0.109315
v 0.042782 -0.000250 0.109315
v 0.044760 0.000250 0.108100
v 0.044760 -0.000250 0.108100
v 0.046708 -0.000250 0.106807
v 0.046708 0.000250 0.106807
v 0.048627 0.000250 0.105435
v 0.048627 -0.000250 0.105435
v 0.050516 0.000250 0.103984
v 0.050516 -0.000250 0.103984
v 0.052375 -0.000250 0.102454
v 0.052375 0.000250 0.102454
v 0.054205 0.000250 0.100845
v 0.054205 -0.000250 0.100845
v 0.056006 -0.000250 0.099158
v 0.056006 0.000250 0.099158
v 0.057777 0.000250 0.097392
v 0.057777 -0.000250 0.097392
v 0.059515 0.000250 0.095545
v 0.059515 -0.000250 0.095545
v 0.061192 -0.000250 0.093595
v 0.061192 0.000250 0.093595
v 0.062800 0.000250 0.091538
v 0.062800 -0.000250 0.091538
v 0.064339 0.000250 0.089371
v 0.064339 -0.000250 0.089371
v 0.065810 0.000250 0.087097
v 0.065810 -0.000250 0.087097
v 0.067211 -0.000250 0.084714
v 0.067211 0.000250 0.084714
v 0.068544 -0.000250 0.082223
v 0.068544 0.000250 0.082223
v 0.069807 0.000250 0.079623
v 0.069807 -0.000250 0.079623
v 0.071002 -0.000250 0.076916
v 0.071002 0.000250 0.076916
v 0.072128 -0.000250 0.074100
v 0.072128 0.000250 0.074100
v 0.073395 0.000250 0.070555
v 0.073395 -0.000250 0.070555
v 0.074579 -0.000250 0.066795
v 0.074579 0.000250 0.066795
v 0.075676 0.000250 0.062809
v 0.075676 -0.000250 0.062809
v 0.076681 0.000250 0.058585
v 0.076681 -0.000250 0.058585
v 0.077589 0.000250 0.054114
v 0.077589 -0.000250 0.054114
v 0.078396 0.000250 0.049383
v 0.078396 -0.000250 0.049383
v 0.079096 0.000250 0.044381
v 0.079096 -0.000250 0.044381
v 0.079683 0.000250 0.039096
v 0.079683 -0.000250 0.039096
v 0.080150 -0.000250 0.033515
v 0.080150 0.000250 0.033515
v 0.080466 0.000250 0.028160
v 0.080466 -0.000250 0.028160
f 1 2 3
f 1 3 4
f 5 3 6
f 5 4 3
f 7 6 8
f 7 5 6
f 9 8 10
f 9 7 8
f 11 10 12
f 11 9 10
f 13 11 12
f 14 11 13
f 15 13 16
f 15 14 13
f 17 16 18
f 17 15 16
f 19 18 20
f 19 17 18
f 21 20 22
f 21 19 20
f 23 22 24
f 23 21 22
f 25 23 24
f 26 23 25
f 27 25 28
f 27 26 25
f 29 28 30
f 29 27 28
f 31 30 32
f 31 29 30
f 33 32 34
f 33 31 32
f 35 33 34
f 36 33 35
f 37 36 35
f 37 35 38
f 39 37 38
f 39 38 40
f 41 39 40
f 41 40 42
f 43 41 42
f 43 42 44
f 45 44 46
f 45 43 44
f 47 46 48
f 47 45 46
f 49 48 50
f 49 47 48
f 51 50 52
f 51 49 50
f 53 52 54
f 53 51 52
f 55 53 54
f 56 53 55
f 57 55 58
f 57 56 55
f 59 58 60
f 59 57 58
f 61 59 60
f 62 59 61
f 63 61 64
f 63 62 61
f 65 64 66
f 65 63 64
f 67 65 66
f 68 65 67
f 69 67 70
f 69 68 67
f 71 69 70
f 72 69 71
f 73 71 74
f 73 72 71
f 75 73 74
f 76 73 75
f 77 76 75
f 78 76 77
f 79 77 80
f 79 78 77
f 81 79 80
f 82 79 81
f 83 81 84
f 83 82 81
f 85 83 84
f 86 83 85
f 87 86 85
f 87 85 88
f 89 87 88
f 89 88 90
f 91 89 90
f 91 90 92
f 93 91 92
f 94 91 93
f 95 94 93
f 96 94 95
f 97 96 95
f 97 95 98
f 99 97 98
f 99 98 100
f 101 99 100
f 102 99 101
f 103 102 101
f 103 101 104
f 105 103 104
f 106 103 105
f 107 106 105
f 107 105 108
f 109 107 108
f 109 108 110
f 111 109 110
f 112 109 111
f 113 111 114
f 113 112 111
f 115 114 116
f 115 113 114
f 117 115 116
f 118 115 117
f 119 117 120
f 119 118 117
f 121 120 122
f 121 119 120
f 123 122 124
f 123 121 122
f 125 124 126
f 125 123 124
f 127 126 128
f 127 125 126
f 129 128 130
f 129 127 128
f 131 130 132
f 131 129 130
f 133 132 134
f 133 131 132
f 135 134 136
f 135 133 134
f 137 135 136
f 138 135 137
f 139 138 137
f 139 137 140
f 141 139 140
f 142 139 141
f 143 142 141
f 143 141 144
f 145 143 144
f 145 144 146
f 147 145 146
f 147 146 148
f 149 147 148
f 149 148 150
f 151 149 150
f 151 150 152
f 153 151 152
f 154 151 153
f 155 154 153
f 155 153 156
f 157 155 156
f 157 156 158
f 159 157 158
f 159 158 160
f 161 159 160
f 161 160 162
f 163 161 162
f 163 162 164
f 165 163 164
f 166 163 165
f 167 166 165
f 167 165 168
f 169 167 168
f 169 168 170
f 171 169 170
f 171 170 172
f 173 171 172
f 174 171 173
f 175 174 173
f 175 173 176
f 177 175 176
f 177 176 178
f 179 177 178
f 179 178 180
f 181 180 182
f 181 179 180
f 183 182 184
f 183 181 182
f 185 184 186
f 185 183 184
f 187 185 186
f 187 186 188
f 189 187 188
f 189 188 190
f 191 189 190
f 191 190 192
f 193 191 192
f 193 192 194
f 195 193 194
f 195 194 196
f 197 195 196
f 198 195 197
f 199 198 197
f 200 198 199
f 201 200 199
f 202 200 201
f 203 202 201
f 203 201 204
f 205 204 206
f 205 203 204
f 207 206 208
f 207 205 206
f 209 208 210
f 209 207 208
f 211 209 210
f 212 209 211
f 213 211 214
f 213 212 211
f 215 213 214
f 216 213 215
f 217 215 218
f 217 216 215
f 219 218 220
f 219 217 218
f 221 220 222
f 221 219 220
f 223 222 224
f 223 221 222
f 225 223 224
f 226 223 225
f 227 225 228
f 227 226 225
f 229 227 228
f 230 227 229
f 231 230 229
f 232 230 231
f 233 231 234
f 233 232 231
f 235 234 236
f 235 233 234
f 237 235 236
f 237 236 238
f 239 237 238
f 239 238 240
f 241 239 240
f 242 239 241
f 243 242 241
f 244 242 243
f 245 244 243
f 245 243 246
f 247 246 248
f 247 245 246
f 249 248 250
f 249 247 248
f 251 250 252
f 251 249 250
f 253 252 254
f 253 251 252
f 255 254 256
f 255 253 254
f 257 256 258
f 257 255 256
f 259 257 258
f 260 257 259
f 261 259 262
f 261 260 259
f 263 261 262
f 264 261 263
f 265 264 263
f 266 264 265
f 267 265 268
f 267 266 265
f 269 268 270
f 269 267 268
f 271 269 270
f 272 269 271
f 273 271 274
f 273 272 271
f 275 274 276
f 275 273 274
f 277 275 276
f 278 275 277
f 279 278 277
f 280 278 279
f 281 280 279
f 282 280 281
f 283 281 284
f 283 282 281
f 285 283 284
f 286 283 285
f 287 286 285
f 287 285 288
f 289 287 288
f 289 288 290
f 291 289 290
f 291 290 292
f 293 291 292
f 293 292 294
f 295 293 294
f 296 293 295
f 297 296 295
f 298 296 297
f 299 298 297
f 299 297 300
f 301 299 300
f 302 299 301
f 303 302 301
f 304 302 303
f 305 304 303
f 305 303 306
f 307 305 306
f 308 305 307
f 309 308 307
f 309 307 310
f 311 309 310
f 312 309 311
f 313 312 311
f 314 312 313
f 315 313 316
f 315 314 313
f 317 316 318
f 317 315 316
f 319 318 320
f 319 317 318
f 321 319 320
f 322 319 321
f 323 321 324
f 323 322 321
f 325 323 324
f 326 323 325
f 327 325 328
f 327 326 325
f 329 327 328
f 330 327 329
f 331 329 332
f 331 330 329
f 333 332 334
f 333 331 332
f 335 334 336
f 335 333 334
f 337 335 336
f 337 336 338
f 339 338 340
f 339 337 338
f 341 339 340
f 342 341 340
f 343 342 344
f 343 341 342
f 345 344 346
f 345 343 344
f 347 346 348
f 347 345 346
f 349 348 350
f 349 347 348
f 351 350 352
f 351 349 350
f 353 352 354
f 353 351 352
f 355 354 356
f 355 353 354
f 357 355 356
f 358 355 357
f 359 357 360
f 359 358 357
f 361 360 362
f 361 359 360
f 363 362 364
f 363 361 362
f 365 364 366
f 365 363 364
f 367 365 366
f 368 365 367
f 369 368 367
f 369 367 370
f 371 369 370
f 372 369 371
f 373 372 371
f 374 372 373
f 375 373 376
f 375 374 373
f 377 376 378
f 377 375 376
f 379 378 380
f 379 377 378
f 381 380 382
f 381 379 380
f 383 382 384
f 383 381 382
f 385 384 386
f 385 383 384
f 387 386 388
f 387 385 386
f 389 388 390
f 389 387 388
f 391 390 392
f 391 389 390
f 393 392 394
f 393 391 392
f 395 394 396
f 395 393 394
f 397 396 398
f 397 395 396
f 399 398 400
f 399 397 398
f 401 399 400
f 402 399 401
f 403 401 404
f 403 402 401
f 405 403 404
f 406 403 405
f 407 405 408
f 407 406 405
f 409 407 408
f 410 407 409
f 411 409 412
f 411 410 409
f 413 412 414
f 413 411 412
f 415 414 416
f 415 413 414
f 417 415 416
f 418 415 417
f 419 418 417
f 419 417 420
f 421 419 420
f 422 419 421
f 423 422 421
f 424 422 423
f 425 424 423
f 425 423 426
f 427 425 426
f 427 426 428
f 429 427 428
f 429 428 430
f 431 429 430
f 432 429 431
f 433 432 431
f 433 431 434
f 435 433 434
f 435 434 436
f 437 435 436
f 437 436 438
f 439 437 438
f 439 438 440
f 441 439 440
f 442 439 441
f 443 441 444
f 443 442 441
f 445 444 446
f 445 443 444
f 447 446 448
f 447 445 446
f 449 448 450
f 449 447 448
f 451 450 452
f 451 449 450
f 453 452 454
f 453 451 452
f 455 454 456
f 455 453 454
f 457 456 458
f 457 455 456
f 459 457 458
f 460 457 459
f 461 459 462
f 461 460 459
f 463 462 464
f 463 461 462
f 465 464 466
f 465 463 464
f 467 465 466
f 467 466 468
f 469 467 468
f 469 468 470
f 471 469 470
f 472 469 471
f 473 472 471
f 474 472 473
f 475 474 473
f 475 473 476
f 477 475 476
f 477 476 478
f 479 477 478
f 480 477 479
f 481 480 479
f 481 479 482
f 483 481 482
f 483 482 484
f 485 483 484
f 485 484 486
f 487 485 486
f 487 486 488
f 489 487 488
f 489 488 490
f 491 489 490
f 491 490 492
f 493 491 492
f 494 491 493
f 495 494 493
f 495 493 496
f 497 495 496
f 498 495 497
f 499 498 497
f 499 497 500
f 501 499 500
f 501 500 502
f 503 501 502
f 503 502 504
f 505 503 504
f 506 503 505
f 507 505 508
f 507 506 505
f 509 508 510
f 509 507 508
f 511 510 512
f 511 509 510
f 513 512 514
f 513 511 512
f 515 514 516
f 515 513 514
f 517 515 516
f 517 516 518
f 519 517 518
f 519 518 520
f 521 519 520
f 521 520 522
f 523 521 522
f 523 522 524
f 525 523 524
f 525 524 526
f 527 525 526
f 527 526 528
f 529 527 528
f 529 528 530
f 531 529 530
f 532 529 531
f 533 532 531
f 534 532 533
f 535 534 533
f 536 534 535
f 537 536 535
f 537 535 538
f 539 537 538
f 539 538 540
f 541 539 540
f 541 540 542
f 543 541 542
f 544 541 543
f 545 543 546
f 545 544 543
f 547 546 548
f 547 545 546
f 549 548 550
f 549 547 548
f 551 550 552
f 551 549 550
f 553 552 554
f 553 551 552
f 555 554 556
f 555 553 554
f 557 556 558
f 557 555 556
f 559 558 560
f 559 557 558
f 561 560 562
f 561 559 560
f 563 562 564
f 563 561 562
f 565 563 564
f 566 563 565
f 567 566 565
f 568 566 567
f 569 568 567
f 569 567 570
f 571 569 570
f 571 570 572
f 573 571 572
f 573 572 574
f 575 574 576
f 575 573 574
f 577 575 576
f 578 575 577
f 579 577 580
f 579 578 577
f 581 580 582
f 581 579 580
f 583 582 584
f 583 581 582
f 585 584 586
f 585 583 584
f 587 586 588
f 587 585 586
f 589 588 590
f 589 587 588
f 591 590 592
f 591 589 590
f 593 592 594
f 593 591 592
f 595 594 596
f 595 593 594
f 597 595 596
f 598 595 597
f 599 597 600
f 599 598 597
f 601 600 602
f 601 599 600
f 603 602 604
f 603 601 602
f 605 604 606
f 605 603 604
f 607 606 608
f 607 605 606
f 609 608 610
f 609 607 608
f 611 609 610
f 612 609 611
f 613 612 611
f 614 612 613
f 615 614 613
f 616 614 615
f 617 616 615
f 617 615 618
f 619 617 618
f 619 618 620
f 621 619 620
f 622 619 621
f 623 622 621
f 624 622 623
f 625 624 623
f 625 623 626
f 627 625 626
f 628 625 627
f 629 628 627
f 629 627 630
f 631 629 630
f 631 630 632
f 633 631 632
f 633 632 634
f 635 633 634
f 635 634 636
f 637 635 636
f 637 636 638
f 639 637 638
f 640 637 639
f 641 640 639
f 641 639 642
f 643 642 644
f 643 641 642
f 645 643 644
f 646 643 645
f 647 645 648
f 647 646 645
f 649 647 648
f 650 647 649
f 651 649 652
f 651 650 649
f 653 652 654
f 653 651 652
f 655 653 654
f 656 653 655
f 657 655 658
f 657 656 655
f 659 658 660
f 659 657 658
f 661 660 662
f 661 659 660
f 663 661 662
f 664 661 663
f 665 664 663
f 666 664 665
f 667 666 665
f 667 665 668
f 669 667 668
f 670 667 669
f 671 670 669
f 672 670 671
f 673 672 671
f 673 671 674
f 675 673 674
f 676 673 675
f 677 676 675
f 677 675 678
f 679 677 678
f 679 678 680
f 681 679 680
f 681 680 682
f 683 681 682
f 683 682 684
f 685 683 684
f 685 684 686
f 687 685 686
f 687 686 688
f 689 687 688
f 690 687 689
f 691 690 689
f 691 689 692
f 1 691 692
f 1 692 2
f 46 648 645
f 48 645 644
f 48 46 645
f 44 649 648
f 44 648 46
f 50 48 644
f 50 644 642
f 42 649 44
f 42 652 649
f 52 50 642
f 52 642 639
f 40 652 42
f 40 654 652
f 38 655 654
f 38 654 40
f 54 52 639
f 54 639 638
f 35 658 655
f 35 655 38
f 55 54 638
f 55 636 634
f 55 638 636
f 34 658 35
f 34 660 658
f 34 662 660
f 58 55 634
f 58 634 632
f 60 58 632
f 60 632 630
f 32 663 662
f 32 662 34
f 61 630 627
f 61 60 630
f 30 665 663
f 30 663 32
f 64 61 627
f 64 627 626
f 28 665 30
f 28 668 665
f 66 64 626
f 66 623 621
f 66 626 623
f 67 621 620
f 67 66 621
f 25 668 28
f 25 669 668
f 25 671 669
f 70 620 618
f 70 67 620
f 24 674 671
f 24 671 25
f 71 618 615
f 71 70 618
f 74 615 613
f 74 71 615
f 22 674 24
f 22 675 674
f 75 74 613
f 75 613 611
f 77 610 608
f 77 611 610
f 77 75 611
f 20 678 675
f 20 675 22
f 80 608 606
f 80 77 608
f 81 80 606
f 81 606 604
f 18 678 20
f 18 680 678
f 84 604 602
f 84 81 604
f 16 680 18
f 16 682 680
f 85 602 600
f 85 84 602
f 88 85 600
f 88 600 597
f 13 682 16
f 13 684 682
f 90 597 596
f 90 88 597
f 92 596 594
f 92 90 596
f 12 684 13
f 12 686 684
f 93 594 592
f 93 92 594
f 95 592 590
f 95 93 592
f 10 686 12
f 10 688 686
f 98 590 588
f 98 95 590
f 100 588 586
f 100 98 588
f 8 689 688
f 8 688 10
f 101 586 584
f 101 100 586
f 104 101 584
f 104 584 582
f 105 582 580
f 105 104 582
f 6 689 8
f 6 692 689
f 108 105 580
f 108 580 577
f 110 577 576
f 110 108 577
f 3 692 6
f 3 2 692
f 111 576 574
f 111 110 576
f 114 574 572
f 114 111 574
f 116 114 572
f 570 116 572
f 117 116 570
f 567 117 570
f 120 117 567
f 122 120 567
f 565 122 567
f 124 122 565
f 564 126 124
f 564 124 565
f 562 128 126
f 562 126 564
f 560 128 562
f 560 130 128
f 558 132 130
f 558 130 560
f 556 134 132
f 556 132 558
f 554 136 134
f 554 134 556
f 552 136 554
f 550 136 552
f 550 137 136
f 548 137 550
f 548 140 137
f 546 140 548
f 546 141 140
f 543 144 141
f 543 141 546
f 338 344 342
f 338 346 344
f 338 342 340
f 542 146 144
f 542 144 543
f 336 348 346
f 336 346 338
f 540 148 146
f 540 146 542
f 334 350 348
f 334 352 350
f 334 348 336
f 538 150 148
f 538 148 540
f 332 354 352
f 332 352 334
f 535 152 150
f 535 150 538
f 329 356 354
f 329 354 332
f 328 357 356
f 328 356 329
f 533 152 535
f 325 360 357
f 325 357 328
f 324 362 360
f 324 360 325
f 531 153 152
f 531 152 533
f 321 362 324
f 321 364 362
f 321 366 364
f 530 153 531
f 530 156 153
f 320 366 321
f 320 367 366
f 318 367 320
f 318 370 367
f 528 158 156
f 528 156 530
f 316 371 370
f 316 370 318
f 313 371 316
f 313 373 371
f 311 376 373
f 311 373 313
f 526 158 528
f 310 378 376
f 310 376 311
f 307 378 310
f 306 380 378
f 306 378 307
f 524 158 526
f 524 160 158
f 303 382 380
f 303 380 306
f 301 384 382
f 301 382 303
f 300 386 384
f 300 384 301
f 522 160 524
f 522 162 160
f 297 388 386
f 297 386 300
f 295 388 297
f 390 388 295
f 294 390 295
f 520 164 162
f 520 162 522
f 392 294 292
f 392 390 294
f 394 290 288
f 394 292 290
f 394 392 292
f 518 164 520
f 396 288 285
f 396 394 288
f 516 165 164
f 516 164 518
f 398 396 285
f 398 285 284
f 400 284 281
f 400 398 284
f 401 281 279
f 401 400 281
f 514 165 516
f 514 168 165
f 404 279 277
f 404 401 279
f 405 277 276
f 405 404 277
f 512 168 514
f 512 170 168
f 408 405 276
f 408 276 274
f 409 274 271
f 409 408 274
f 510 170 512
f 510 172 170
f 412 271 270
f 412 409 271
f 414 270 268
f 414 412 270
f 508 172 510
f 508 173 172
f 416 268 265
f 416 414 268
f 417 265 263
f 417 416 265
f 505 173 508
f 505 176 173
f 420 263 262
f 420 417 263
f 504 176 505
f 421 259 258
f 421 262 259
f 421 420 262
f 423 421 258
f 423 258 256
f 502 176 504
f 502 178 176
f 426 256 254
f 426 423 256
f 428 426 254
f 428 254 252
f 500 180 178
f 500 178 502
f 430 428 252
f 430 252 250
f 497 180 500
f 497 182 180
f 431 430 250
f 431 250 248
f 434 431 248
f 434 246 243
f 434 248 246
f 496 182 497
f 496 184 182
f 436 434 243
f 436 243 241
f 493 184 496
f 493 186 184
f 438 436 241
f 438 241 240
f 492 186 493
f 492 188 186
f 440 438 240
f 440 240 238
f 490 190 188
f 490 188 492
f 441 440 238
f 441 238 236
f 444 441 236
f 444 236 234
f 488 192 190
f 488 190 490
f 446 444 234
f 446 234 231
f 486 194 192
f 486 192 488
f 448 231 229
f 448 446 231
f 484 196 194
f 484 194 486
f 450 229 228
f 450 448 229
f 482 197 196
f 482 196 484
f 452 228 225
f 452 450 228
f 479 199 197
f 479 197 482
f 454 452 225
f 454 225 224
f 478 199 479
f 456 454 224
f 456 224 222
f 476 199 478
f 476 201 199
f 476 204 201
f 458 456 222
f 458 220 218
f 458 222 220
f 459 458 218
f 473 204 476
f 473 206 204
f 462 218 215
f 462 459 218
f 471 206 473
f 471 208 206
f 464 462 215
f 464 215 214
f 470 208 471
f 470 210 208
f 466 464 214
f 466 214 211
f 468 210 470
f 468 466 211
f 468 211 210
f 118 568 569
f 115 118 569
f 115 569 571
f 119 568 118
f 113 115 571
f 113 571 573
f 121 568 119
f 121 566 568
f 112 113 573
f 112 573 575
f 123 566 121
f 123 563 566
f 109 112 575
f 109 575 578
f 125 563 123
f 125 561 563
f 107 109 578
f 107 578 579
f 127 561 125
f 127 559 561
f 106 107 579
f 106 579 581
f 129 559 127
f 129 557 559
f 103 106 581
f 103 581 583
f 131 557 129
f 131 555 557
f 102 103 583
f 102 583 585
f 133 555 131
f 133 553 555
f 99 102 585
f 99 585 587
f 135 549 551
f 135 551 553
f 135 553 133
f 97 99 587
f 97 587 589
f 138 549 135
f 138 547 549
f 96 589 591
f 96 97 589
f 139 545 547
f 139 547 138
f 94 96 591
f 94 591 593
f 91 94 593
f 91 593 595
f 142 545 139
f 142 544 545
f 89 91 595
f 89 595 598
f 143 544 142
f 143 541 544
f 87 89 598
f 87 598 599
f 145 541 143
f 145 539 541
f 86 87 599
f 86 599 601
f 147 539 145
f 147 537 539
f 83 86 601
f 83 601 603
f 82 83 603
f 82 603 605
f 149 537 147
f 149 536 537
f 79 605 607
f 79 82 605
f 78 607 609
f 78 609 612
f 78 79 607
f 151 536 149
f 151 532 534
f 151 534 536
f 76 612 614
f 76 78 612
f 73 76 614
f 73 614 616
f 154 532 151
f 154 529 532
f 72 616 617
f 72 73 616
f 69 617 619
f 69 72 617
f 68 619 622
f 68 69 619
f 155 529 154
f 155 527 529
f 65 622 624
f 65 624 625
f 65 68 622
f 63 625 628
f 63 65 625
f 157 527 155
f 157 523 525
f 157 525 527
f 62 628 629
f 62 63 628
f 59 629 631
f 59 62 629
f 57 631 633
f 57 59 631
f 159 523 157
f 159 521 523
f 56 633 635
f 56 635 637
f 56 57 633
f 53 637 640
f 53 56 637
f 161 521 159
f 161 519 521
f 51 640 641
f 51 53 640
f 49 641 643
f 49 51 641
f 47 643 646
f 47 49 643
f 163 519 161
f 163 515 517
f 163 517 519
f 45 646 647
f 45 47 646
f 43 45 647
f 650 43 647
f 41 43 650
f 166 515 163
f 166 513 515
f 651 41 650
f 651 39 41
f 653 39 651
f 653 37 39
f 167 513 166
f 167 511 513
f 656 37 653
f 656 36 37
f 657 33 36
f 657 36 656
f 169 511 167
f 169 509 511
f 659 33 657
f 661 33 659
f 661 31 33
f 171 509 169
f 171 507 509
f 664 29 31
f 664 31 661
f 174 506 507
f 174 507 171
f 666 27 29
f 666 29 664
f 667 26 27
f 667 27 666
f 175 501 503
f 175 503 506
f 175 506 174
f 670 26 667
f 672 23 26
f 672 26 670
f 177 499 501
f 177 501 175
f 673 21 23
f 673 23 672
f 179 499 177
f 179 498 499
f 676 19 21
f 676 21 673
f 181 495 498
f 181 498 179
f 677 17 19
f 677 19 676
f 183 494 495
f 183 495 181
f 679 15 17
f 679 17 677
f 185 494 183
f 185 491 494
f 681 14 15
f 681 15 679
f 187 491 185
f 187 489 491
f 189 489 187
f 189 487 489
f 683 11 14
f 683 14 681
f 191 487 189
f 191 485 487
f 685 9 11
f 685 11 683
f 193 485 191
f 193 483 485
f 195 483 193
f 195 481 483
f 687 7 9
f 687 9 685
f 198 481 195
f 198 480 481
f 690 5 7
f 690 7 687
f 200 480 198
f 200 475 477
f 200 477 480
f 202 475 200
f 691 4 5
f 691 5 690
f 203 474 475
f 203 475 202
f 205 472 474
f 205 474 203
f 1 4 691
f 207 469 472
f 207 472 205
f 209 467 469
f 209 469 207
f 212 467 209
f 465 467 212
f 213 465 212
f 463 465 213
f 216 463 213
f 461 216 217
f 461 463 216
f 460 461 217
f 457 217 219
f 457 219 221
f 457 460 217
f 455 221 223
f 455 457 221
f 453 455 223
f 453 223 226
f 451 453 226
f 451 226 227
f 449 227 230
f 449 451 227
f 447 230 232
f 447 449 230
f 445 232 233
f 445 447 232
f 443 233 235
f 443 445 233
f 442 235 237
f 442 443 235
f 341 337 339
f 439 237 239
f 439 442 237
f 343 337 341
f 437 239 242
f 437 439 239
f 435 242 244
f 435 437 242
f 345 337 343
f 345 335 337
f 433 435 244
f 433 244 245
f 433 245 247
f 347 335 345
f 347 333 335
f 432 247 249
f 432 433 247
f 349 333 347
f 429 432 249
f 429 249 251
f 351 331 333
f 351 333 349
f 427 251 253
f 427 429 251
f 425 253 255
f 425 427 253
f 353 331 351
f 353 330 331
f 424 255 257
f 424 425 255
f 355 330 353
f 355 327 330
f 422 257 260
f 422 260 261
f 422 424 257
f 358 326 327
f 358 327 355
f 419 261 264
f 419 422 261
f 359 323 326
f 359 326 358
f 418 419 264
f 418 264 266
f 415 266 267
f 415 418 266
f 361 322 323
f 361 323 359
f 413 415 267
f 413 267 269
f 363 322 361
f 411 269 272
f 411 413 269
f 365 319 322
f 365 322 363
f 410 272 273
f 410 411 272
f 368 319 365
f 368 317 319
f 407 273 275
f 407 410 273
f 406 275 278
f 406 407 275
f 369 315 317
f 369 317 368
f 403 278 280
f 403 406 278
f 372 315 369
f 372 314 315
f 402 280 282
f 402 403 280
f 374 314 372
f 374 312 314
f 399 282 283
f 399 402 282
f 375 312 374
f 375 309 312
f 397 283 286
f 397 399 283
f 377 309 375
f 377 305 308
f 377 308 309
f 395 397 286
f 395 286 287
f 379 305 377
f 379 304 305
f 393 395 287
f 393 287 289
f 393 289 291
f 381 304 379
f 381 302 304
f 391 393 291
f 391 291 293
f 383 302 381
f 383 299 302
f 389 391 293
f 389 293 296
f 385 299 383
f 385 298 299
f 387 389 296
f 387 298 385
f 387 296 298
